<svg width="64" height="64" viewBox="0 0 64 64" fill="none" xmlns="http://www.w3.org/2000/svg">
<path d="M49.3333 24H14.6667C13.1939 24 12 25.1939 12 26.6667V53.3333C12 54.8061 13.1939 56 14.6667 56H49.3333C50.8061 56 52 54.8061 52 53.3333V26.6667C52 25.1939 50.8061 24 49.3333 24Z" fill="#0077B6" stroke="#001F2F" stroke-width="2"/>
<path d="M22.6667 37.3333C24.1394 37.3333 25.3333 36.1394 25.3333 34.6667C25.3333 33.1939 24.1394 32 22.6667 32C21.1939 32 20 33.1939 20 34.6667C20 36.1394 21.1939 37.3333 22.6667 37.3333Z" fill="#E7ECF9"/>
<path d="M41.3332 37.3333C42.8059 37.3333 43.9998 36.1394 43.9998 34.6667C43.9998 33.1939 42.8059 32 41.3332 32C39.8604 32 38.6665 33.1939 38.6665 34.6667C38.6665 36.1394 39.8604 37.3333 41.3332 37.3333Z" fill="#E7ECF9"/>
<path d="M26.6667 42.6667C25.1939 42.6667 24 43.8606 24 45.3334C24 46.8062 25.1939 48 26.6667 48V42.6667ZM37.3333 48C38.8061 48 40 46.8062 40 45.3334C40 43.8606 38.8061 42.6667 37.3333 42.6667V48ZM26.6667 48H37.3333V42.6667H26.6667V48Z" fill="#E7ECF9"/>
<path d="M32 13.3333V24" stroke="#001F2F" stroke-width="2" stroke-linecap="round" stroke-linejoin="round"/>
<path d="M5.33325 34.6667V45.3334" stroke="#001F2F" stroke-width="2" stroke-linecap="round" stroke-linejoin="round"/>
<path d="M58.6665 34.6667V45.3334" stroke="#001F2F" stroke-width="2" stroke-linecap="round" stroke-linejoin="round"/>
<path d="M31.9999 13.3333C33.4727 13.3333 34.6666 12.1394 34.6666 10.6667C34.6666 9.19391 33.4727 8 31.9999 8C30.5272 8 29.3333 9.19391 29.3333 10.6667C29.3333 12.1394 30.5272 13.3333 31.9999 13.3333Z" stroke="#001F2F" stroke-width="2"/>
</svg>
