<svg width="41" height="42" viewBox="0 0 41 42" fill="none" xmlns="http://www.w3.org/2000/svg">
<path d="M11.4799 16.0703L5.56373 20.9999L11.4799 25.9295C11.6761 26.0903 11.8385 26.2884 11.9578 26.5123C12.0771 26.7361 12.1509 26.9814 12.1749 27.234C12.199 27.4865 12.1728 27.7413 12.0978 27.9836C12.0229 28.226 11.9008 28.4511 11.7384 28.646C11.576 28.841 11.3767 29.0018 11.1519 29.1193C10.927 29.2368 10.6812 29.3086 10.4285 29.3306C10.1757 29.3526 9.92117 29.3244 9.67941 29.2475C9.43766 29.1707 9.21351 29.0467 9.0199 28.8828L1.3324 22.4766C1.11589 22.2962 0.941689 22.0704 0.822142 21.8153C0.702594 21.5601 0.640625 21.2817 0.640625 20.9999C0.640625 20.7181 0.702594 20.4398 0.822142 20.1846C0.941689 19.9294 1.11589 19.7036 1.3324 19.5233L9.0199 13.117C9.41208 12.7956 9.91538 12.6422 10.4202 12.6903C10.9249 12.7383 11.3903 12.9839 11.7148 13.3735C12.0393 13.7631 12.1967 14.2651 12.1527 14.7703C12.1087 15.2754 11.8669 15.7427 11.4799 16.0703ZM39.6674 19.5233L31.9799 13.117C31.7863 12.9531 31.5621 12.8292 31.3204 12.7523C31.0786 12.6754 30.8241 12.6472 30.5713 12.6692C30.3186 12.6912 30.0728 12.7631 29.8479 12.8805C29.6231 12.998 29.4238 13.1589 29.2614 13.3538C29.0991 13.5487 28.9769 13.7738 28.902 14.0162C28.827 14.2586 28.8008 14.5134 28.8249 14.7659C28.8489 15.0184 28.9227 15.2637 29.042 15.4876C29.1613 15.7115 29.3237 15.9095 29.5199 16.0703L35.4361 20.9999L29.5199 25.9295C29.3237 26.0903 29.1613 26.2884 29.042 26.5123C28.9227 26.7361 28.8489 26.9814 28.8249 27.234C28.8008 27.4865 28.827 27.7413 28.902 27.9836C28.9769 28.226 29.0991 28.4511 29.2614 28.646C29.4238 28.841 29.6231 29.0018 29.8479 29.1193C30.0728 29.2368 30.3186 29.3086 30.5713 29.3306C30.8241 29.3526 31.0786 29.3244 31.3204 29.2475C31.5621 29.1707 31.7863 29.0467 31.9799 28.8828L39.6674 22.4766C39.8839 22.2962 40.0581 22.0704 40.1777 21.8153C40.2972 21.5601 40.3592 21.2817 40.3592 20.9999C40.3592 20.7181 40.2972 20.4398 40.1777 20.1846C40.0581 19.9294 39.8839 19.7036 39.6674 19.5233ZM26.2815 5.09961C26.0443 5.01334 25.7924 4.97465 25.5402 4.98575C25.288 4.99685 25.0405 5.05752 24.8117 5.16431C24.583 5.27109 24.3775 5.42189 24.2071 5.6081C24.0366 5.79431 23.9045 6.01227 23.8183 6.24954L13.5683 34.437C13.3946 34.916 13.4181 35.4443 13.6338 35.9059C13.8494 36.3675 14.2395 36.7245 14.7183 36.8986C14.9285 36.9763 15.1508 37.0159 15.3749 37.0155C15.7695 37.0156 16.1545 36.8942 16.4777 36.6679C16.801 36.4415 17.0466 36.1212 17.1815 35.7503L27.4315 7.56282C27.5177 7.32558 27.5564 7.07367 27.5453 6.82147C27.5342 6.56928 27.4736 6.32174 27.3668 6.093C27.26 5.86426 27.1092 5.6588 26.923 5.48835C26.7368 5.3179 26.5188 5.18581 26.2815 5.09961Z" fill="#04051A"/>
</svg>
