<svg width="24" height="24" viewBox="0 0 24 24" fill="none" xmlns="http://www.w3.org/2000/svg">
<path d="M15.989 4.00013L12.922 7.06313C12.5851 7.39947 12.3204 7.80099 12.144 8.24313L12.064 8.46713L11.324 10.7621C11.2026 11.1395 11.183 11.5423 11.2672 11.9297C11.3515 12.3171 11.5367 12.6753 11.8039 12.9682C12.0712 13.261 12.411 13.478 12.7891 13.5972C13.1672 13.7165 13.5701 13.7337 13.957 13.6471L14.113 13.6071L16.441 12.9071C16.9144 12.7651 17.3523 12.5245 17.726 12.2011L17.907 12.0321L22 7.94613V16.7551C22 17.1819 21.9159 17.6045 21.7526 17.9989C21.5893 18.3932 21.3499 18.7514 21.0481 19.0532C20.7463 19.355 20.388 19.5944 19.9937 19.7577C19.5994 19.9211 19.1768 20.0051 18.75 20.0051H5.25C4.38805 20.0051 3.5614 19.6627 2.9519 19.0532C2.34241 18.4437 2 17.6171 2 16.7551V12.5551L2.076 12.5241L2.149 12.4831L5.909 10.1201L6.007 10.0681C6.14066 10.0094 6.28854 9.99101 6.43251 10.0151C6.57648 10.0392 6.71029 10.1049 6.81751 10.2039C6.92474 10.303 7.00073 10.4312 7.03617 10.5728C7.0716 10.7144 7.06494 10.8633 7.017 11.0011L6.971 11.1051L5.763 13.3911L5.693 13.5361C5.50949 13.9534 5.45708 14.4166 5.54269 14.8644C5.6283 15.3121 5.8479 15.7233 6.1724 16.0435C6.49691 16.3637 6.91102 16.5777 7.35989 16.6573C7.80875 16.7369 8.2712 16.6782 8.686 16.4891L8.856 16.4031L10.621 15.4071L10.706 15.3501C10.8503 15.24 10.9497 15.0814 10.9859 14.9035C11.0222 14.7257 10.9927 14.5408 10.9029 14.383C10.8132 14.2253 10.6693 14.1054 10.4979 14.0457C10.3266 13.986 10.1394 13.9904 9.971 14.0581L9.879 14.1031L8.12 15.0961L8.022 15.1421C7.88762 15.1939 7.7412 15.2058 7.60021 15.1766C7.45922 15.1473 7.32964 15.0781 7.22693 14.9772C7.12422 14.8763 7.05273 14.7479 7.021 14.6075C6.98927 14.467 6.99865 14.3204 7.048 14.1851L7.089 14.0921L8.297 11.8061L8.377 11.6401C8.56009 11.2124 8.60606 10.7384 8.50857 10.2834C8.41109 9.8284 8.17494 9.41484 7.83266 9.09965C7.49037 8.78445 7.05879 8.58313 6.59733 8.5234C6.13588 8.46367 5.66726 8.54847 5.256 8.76613L5.11 8.85013L2 10.8051V7.25013C1.99995 6.42 2.31755 5.6213 2.88767 5.0179C3.45779 4.4145 4.23719 4.05213 5.066 4.00513L5.25 4.00013H15.989ZM21.176 3.54513L21.306 3.66513L21.426 3.79513C21.7974 4.22943 21.9912 4.78785 21.9688 5.35883C21.9463 5.92982 21.7093 6.47131 21.305 6.87513L17.024 11.1481C16.7609 11.4105 16.4369 11.6035 16.081 11.7101L13.754 12.4101C13.5793 12.4628 13.3935 12.4666 13.2168 12.4212C13.0401 12.3758 12.8791 12.283 12.7514 12.1527C12.6237 12.0224 12.5341 11.8596 12.4922 11.682C12.4504 11.5044 12.4579 11.3188 12.514 11.1451L13.254 8.85013C13.363 8.51013 13.552 8.20013 13.805 7.94713L18.095 3.66413C18.4991 3.26019 19.0406 3.02348 19.6115 3.00123C20.1824 2.97899 20.7407 3.17285 21.175 3.54413L21.176 3.54513Z" fill="#CF6E01"/>
</svg>
