<svg width="41" height="42" viewBox="0 0 41 42" fill="none" xmlns="http://www.w3.org/2000/svg">
<g clip-path="url(#clip0_170_8847)">
<path d="M20.5 14.1667L15.375 17.1562V23.1354L20.5 26.125L25.625 23.1354V17.1562L20.5 14.1667ZM23.0915 17.6517L20.4778 19.1755L17.8863 17.6636L20.5 16.1398L23.0915 17.6517ZM17.0662 19.1584L19.6014 20.6378V23.6274L17.0662 22.1497V19.1584ZM21.2927 23.6906V20.672L23.9338 19.1311V22.1497L21.2927 23.6906ZM5.125 0.5L0 3.48958V9.46875L5.125 12.4583L10.25 9.46875V3.48958L5.125 0.5ZM7.71654 3.985L5.10279 5.50883L2.51125 3.99696L5.125 2.47312L7.71654 3.985ZM1.69125 5.49004L4.22642 6.96946V9.95904L1.69125 8.48475V5.49004ZM5.91767 10.0223V7.00533L8.55875 5.46442V8.48304L5.91767 10.0223ZM5.125 29.5417L0 32.5312V38.5104L5.125 41.5L10.25 38.5104V32.5312L5.125 29.5417ZM7.71654 33.0267L5.10279 34.5505L2.51125 33.0386L5.125 31.5148L7.71654 33.0267ZM1.69125 34.5334L4.22642 36.0128V39.0024L1.69125 37.5264V34.5334ZM5.91767 39.0656V36.047L8.55875 34.5061V37.5247L5.91767 39.0656ZM35.875 0.5L30.75 3.48958V9.46875L35.875 12.4583L41 9.46875V3.48958L35.875 0.5ZM38.4665 3.985L35.8528 5.50883L33.2612 3.99696L35.875 2.47312L38.4665 3.985ZM32.4412 5.49175L34.9764 6.97117V9.96075L32.4412 8.48304V5.49175ZM36.6677 10.024V7.00533L39.3088 5.46442V8.48304L36.6677 10.024ZM35.875 29.5417L30.75 32.5312V38.5104L35.875 41.5L41 38.5104V32.5312L35.875 29.5417ZM38.4665 33.0267L35.8528 34.5505L33.2612 33.0386L35.875 31.5148L38.4665 33.0267ZM32.4412 34.5334L34.9764 36.0128V39.0024L32.4412 37.5247V34.5334ZM36.6677 39.0656V36.047L39.3088 34.5061V37.5247L36.6677 39.0656ZM15.375 5.625H25.625V7.33333H15.375V5.625ZM15.375 34.6667H25.625V36.375H15.375V34.6667ZM5.97917 15.875V26.125H4.27083V15.875H5.97917ZM12.4589 15.5812L8.8355 11.9578L10.0433 10.75L13.6667 14.3717L12.4589 15.5812ZM27.3333 14.6672L30.9567 11.0438L32.1645 12.2516L28.5411 15.875L27.3333 14.6672ZM13.8853 25.9183L10.262 29.5417L9.05417 28.3339L12.6775 24.7105L13.8853 25.9183ZM28.835 24.637L32.4583 28.2604L31.2505 29.4682L27.6272 25.8448L28.835 24.637ZM36.7292 15.875V26.125H35.0208V15.875H36.7292Z" fill="#04051A"/>
</g>
<defs>
<clipPath id="clip0_170_8847">
<rect width="41" height="41" fill="white" transform="translate(0 0.5)"/>
</clipPath>
</defs>
</svg>
