<svg width="40" height="40" viewBox="0 0 40 40" fill="none" xmlns="http://www.w3.org/2000/svg">
<path d="M13.28 4H26.72C31.84 4 36 8.16 36 13.28V26.72C36 29.1812 35.0223 31.5416 33.282 33.282C31.5416 35.0223 29.1812 36 26.72 36H13.28C8.16 36 4 31.84 4 26.72V13.28C4 10.8188 4.97771 8.45839 6.71805 6.71805C8.45839 4.97771 10.8188 4 13.28 4ZM12.96 7.2C11.4324 7.2 9.96727 7.80686 8.88707 8.88707C7.80686 9.96727 7.2 11.4324 7.2 12.96V27.04C7.2 30.224 9.776 32.8 12.96 32.8H27.04C28.5676 32.8 30.0327 32.1931 31.1129 31.1129C32.1931 30.0327 32.8 28.5676 32.8 27.04V12.96C32.8 9.776 30.224 7.2 27.04 7.2H12.96ZM28.4 9.6C28.9304 9.6 29.4391 9.81071 29.8142 10.1858C30.1893 10.5609 30.4 11.0696 30.4 11.6C30.4 12.1304 30.1893 12.6391 29.8142 13.0142C29.4391 13.3893 28.9304 13.6 28.4 13.6C27.8696 13.6 27.3609 13.3893 26.9858 13.0142C26.6107 12.6391 26.4 12.1304 26.4 11.6C26.4 11.0696 26.6107 10.5609 26.9858 10.1858C27.3609 9.81071 27.8696 9.6 28.4 9.6ZM20 12C22.1217 12 24.1566 12.8429 25.6569 14.3431C27.1571 15.8434 28 17.8783 28 20C28 22.1217 27.1571 24.1566 25.6569 25.6569C24.1566 27.1571 22.1217 28 20 28C17.8783 28 15.8434 27.1571 14.3431 25.6569C12.8429 24.1566 12 22.1217 12 20C12 17.8783 12.8429 15.8434 14.3431 14.3431C15.8434 12.8429 17.8783 12 20 12ZM20 15.2C18.727 15.2 17.5061 15.7057 16.6059 16.6059C15.7057 17.5061 15.2 18.727 15.2 20C15.2 21.273 15.7057 22.4939 16.6059 23.3941C17.5061 24.2943 18.727 24.8 20 24.8C21.273 24.8 22.4939 24.2943 23.3941 23.3941C24.2943 22.4939 24.8 21.273 24.8 20C24.8 18.727 24.2943 17.5061 23.3941 16.6059C22.4939 15.7057 21.273 15.2 20 15.2Z" fill="#35506B"/>
</svg>
