<svg width="40" height="40" viewBox="0 0 40 40" fill="none" xmlns="http://www.w3.org/2000/svg">
<path d="M7.63636 4C6.67406 4.00685 5.75311 4.39217 5.07264 5.07264C4.39217 5.75311 4.00685 6.67406 4 7.63636V32.3636C4 34.352 5.648 36 7.63636 36H32.3636C34.352 36 36 34.352 36 32.3636V7.63636C36 5.648 34.352 4 32.3636 4H7.63636ZM7.63636 6.90909H32.3636C32.7782 6.90909 33.0909 7.22182 33.0909 7.63636V32.3636C33.0929 32.4597 33.0754 32.5551 33.0396 32.6443C33.0037 32.7334 32.9502 32.8144 32.8823 32.8823C32.8144 32.9502 32.7334 33.0037 32.6443 33.0396C32.5551 33.0754 32.4597 33.0929 32.3636 33.0909H7.63636C7.54026 33.0931 7.44471 33.0758 7.35548 33.04C7.26626 33.0042 7.18521 32.9507 7.11723 32.8828C7.04926 32.8148 6.99577 32.7337 6.96 32.6445C6.92422 32.5553 6.9069 32.4597 6.90909 32.3636V7.63636C6.90909 7.22182 7.22182 6.90909 7.63636 6.90909ZM11.9098 9.40945C11.5765 9.40141 11.2449 9.46012 10.9346 9.58213C10.6243 9.70413 10.3415 9.88697 10.1029 10.1199C9.86435 10.3528 9.67474 10.6311 9.54529 10.9383C9.41584 11.2456 9.34915 11.5757 9.34915 11.9091C9.34915 12.2425 9.41584 12.5726 9.54529 12.8799C9.67474 13.1871 9.86435 13.4654 10.1029 13.6983C10.3415 13.9312 10.6243 14.1141 10.9346 14.2361C11.2449 14.3581 11.5765 14.4168 11.9098 14.4087C12.5623 14.393 13.1828 14.1227 13.6387 13.6557C14.0947 13.1886 14.3499 12.5618 14.3499 11.9091C14.3499 11.2564 14.0947 10.6296 13.6387 10.1625C13.1828 9.69546 12.5623 9.4252 11.9098 9.40945ZM25.0444 16.0451C22.96 16.0451 21.5738 17.1869 21.0007 18.272H20.9091V16.3636H16.8175V30.1818H21.0909V23.3629C21.0909 21.5622 21.4487 19.8182 23.6815 19.8182C25.8807 19.8182 25.9098 21.8516 25.9098 23.4545V30.1818H30.1818V22.5905C30.1818 18.8756 29.3905 16.0451 25.0444 16.0451ZM9.81818 16.3636V30.1818H14.1367V16.3636H9.81818Z" fill="#35506B"/>
</svg>
