<svg width="48" height="48" viewBox="0 0 48 48" fill="none" xmlns="http://www.w3.org/2000/svg">
<g clip-path="url(#clip0_170_8776)">
<path d="M46.7764 21.892L26.1079 1.22423C24.9184 0.0339805 22.9879 0.0339805 21.7965 1.22423L17.505 5.51648L22.9493 10.9607C24.2149 10.5336 25.6654 10.8201 26.6738 11.8285C27.6874 12.8432 27.9716 14.3061 27.534 15.5759L32.781 20.8232C34.0504 20.3856 35.5155 20.6684 36.5288 21.6839C37.9463 23.1002 37.9463 25.3964 36.5288 26.8135C36.1919 27.1505 35.7919 27.4178 35.3517 27.6003C34.9115 27.7827 34.4397 27.8765 33.9632 27.8765C33.4867 27.8765 33.0149 27.7827 32.5747 27.6003C32.1344 27.4178 31.7345 27.1505 31.3976 26.8135C30.8915 26.3071 30.5465 25.6623 30.4061 24.9602C30.2656 24.2582 30.336 23.5303 30.6083 22.8681L25.7153 17.9751L25.7145 30.853C26.0695 31.0278 26.3936 31.2593 26.6741 31.5385C28.0909 32.9549 28.0909 35.2502 26.6741 36.6696C25.257 38.086 22.9601 38.086 21.5445 36.6696C20.1278 35.2506 20.1278 32.9552 21.5445 31.5385C21.8839 31.1985 22.2877 30.9295 22.7321 30.7472V17.7501C22.2873 17.5683 21.8835 17.2991 21.5445 16.9585C20.4713 15.886 20.2129 14.311 20.7634 12.9925L15.396 7.62511L1.22401 21.7964C0.652249 22.3683 0.331055 23.1439 0.331055 23.9526C0.331055 24.7613 0.652249 25.5369 1.22401 26.1089L21.8929 46.7766C23.0831 47.9669 25.0129 47.9669 26.205 46.7766L46.7768 26.2049C47.3484 25.6328 47.6695 24.8571 47.6694 24.0483C47.6693 23.2396 47.3481 22.464 46.7764 21.892Z" fill="#E1E8FA"/>
</g>
<defs>
<clipPath id="clip0_170_8776">
<rect width="48" height="48" fill="white"/>
</clipPath>
</defs>
</svg>
