<svg width="48" height="48" viewBox="0 0 48 48" fill="none" xmlns="http://www.w3.org/2000/svg">
<g clip-path="url(#clip0_170_8721)">
<path d="M23.7967 0.0136719C11.6407 0.0136719 12.3997 5.30591 12.3997 5.30591L12.4132 10.7888H24.0134V12.4349H7.80573C7.80573 12.4349 0.0270996 11.5493 0.0270996 23.8627C0.0270996 36.1765 6.81647 35.7398 6.81647 35.7398H10.8684V30.0257C10.8684 30.0257 10.6499 23.2097 17.5494 23.2097H29.0547C29.0547 23.2097 35.5188 23.3146 35.5188 16.9379V6.39447C35.5188 6.39447 36.5005 0.0136719 23.7967 0.0136719ZM17.4003 3.70082C17.6744 3.70058 17.9459 3.7546 18.1992 3.8598C18.4525 3.965 18.6826 4.11931 18.8765 4.3139C19.0703 4.50849 19.224 4.73955 19.3288 4.99385C19.4336 5.24814 19.4874 5.52069 19.4872 5.79588C19.4874 6.07108 19.4336 6.34363 19.3288 6.59792C19.224 6.85222 19.0703 7.08327 18.8765 7.27787C18.6826 7.47246 18.4525 7.62677 18.1992 7.73197C17.9459 7.83717 17.6744 7.89119 17.4003 7.89094C17.1262 7.89119 16.8547 7.83717 16.6014 7.73197C16.3481 7.62677 16.1179 7.47246 15.9241 7.27787C15.7303 7.08327 15.5766 6.85222 15.4718 6.59792C15.367 6.34363 15.3132 6.07108 15.3134 5.79588C15.3132 5.52069 15.367 5.24814 15.4718 4.99385C15.5766 4.73955 15.7303 4.50849 15.9241 4.3139C16.1179 4.11931 16.3481 3.965 16.6014 3.8598C16.8547 3.7546 17.1262 3.70058 17.4003 3.70082Z" fill="#E1E8FA"/>
<path opacity="0.75" d="M24.142 47.8355C36.298 47.8355 35.539 42.5432 35.539 42.5432L35.5255 37.0605H23.9251V35.4144H40.1327C40.1327 35.4144 47.9114 36.3 47.9114 23.9862C47.9114 11.6726 41.122 12.1093 41.122 12.1093H37.0701V17.8232C37.0701 17.8232 37.2886 24.6392 30.3891 24.6392H18.8837C18.8837 24.6392 12.4197 24.5344 12.4197 30.9112V41.4548C12.4197 41.4548 11.4381 47.8355 24.1418 47.8355H24.142ZM30.5384 44.1487C30.2642 44.1489 29.9928 44.0949 29.7395 43.9897C29.4862 43.8845 29.256 43.7302 29.0622 43.5356C28.8683 43.341 28.7146 43.11 28.6098 42.8557C28.5051 42.6014 28.4513 42.3288 28.4515 42.0536C28.4512 41.7784 28.505 41.5058 28.6098 41.2515C28.7146 40.9972 28.8683 40.7661 29.0621 40.5715C29.2559 40.3769 29.4861 40.2226 29.7394 40.1174C29.9927 40.0122 30.2642 39.9581 30.5384 39.9584C30.8125 39.9581 31.084 40.0121 31.3373 40.1173C31.5906 40.2225 31.8207 40.3769 32.0146 40.5714C32.2084 40.766 32.3621 40.9971 32.4669 41.2514C32.5717 41.5057 32.6255 41.7782 32.6252 42.0534C32.6255 42.3286 32.5717 42.6012 32.4669 42.8555C32.3621 43.1098 32.2084 43.3408 32.0146 43.5354C31.8207 43.73 31.5906 43.8843 31.3373 43.9895C31.084 44.0947 30.8125 44.1489 30.5384 44.1487Z" fill="#E1E8FA"/>
</g>
<defs>
<clipPath id="clip0_170_8721">
<rect width="48" height="48" fill="white"/>
</clipPath>
</defs>
</svg>
