<svg width="35" height="48" viewBox="0 0 35 48" fill="none" xmlns="http://www.w3.org/2000/svg">
<path d="M0 38.7437L0.291441 38.3374L14.0406 12.255L14.0698 11.979L8.00951 0.595659C7.89856 0.387496 7.72497 0.219488 7.51329 0.115405C7.30161 0.0113209 7.06256 -0.0235688 6.82997 0.0156714C6.59737 0.0549115 6.383 0.166295 6.21718 0.334063C6.05136 0.501832 5.9425 0.717492 5.90598 0.950533L0 38.7437Z" fill="#E1E8FA"/>
<path d="M18.4072 20.4001L22.7942 15.9085L18.4072 7.54236C18.3354 7.36126 18.2127 7.20481 18.054 7.09186C17.8953 6.9789 17.7073 6.91427 17.5126 6.90575C17.318 6.89723 17.1251 6.9452 16.9571 7.04385C16.7891 7.14251 16.6533 7.28765 16.5659 7.46178L14.1418 12.1403L14.0698 12.3786L18.4072 20.4001Z" fill="#E1E8FA"/>
<path opacity="0.5" d="M0.00341797 38.7455L0.135424 38.6118L0.613731 38.4181L18.2031 20.8939L18.426 20.287L14.0389 11.9243L0.00341797 38.7455Z" fill="#E1E8FA"/>
<path opacity="0.8" d="M34.8275 38.6307L30.3153 10.8443C30.3073 10.6555 30.2435 10.4734 30.132 10.3209C30.0205 10.1684 29.8662 10.0524 29.6887 9.98759C29.5112 9.92279 29.3185 9.91211 29.1349 9.95689C28.9514 10.0017 28.7852 10.0999 28.6575 10.2392L0.171631 38.6907L15.8255 47.434C16.3137 47.7063 16.8634 47.8493 17.4224 47.8493C17.9814 47.8493 18.5312 47.7063 19.0193 47.434L34.8275 38.6307Z" fill="#E1E8FA"/>
</svg>
