<svg width="82" height="45" viewBox="0 0 82 45" fill="none" xmlns="http://www.w3.org/2000/svg">
<g clip-path="url(#clip0_18_73)">
<path fill-rule="evenodd" clip-rule="evenodd" d="M33.7695 37.8118C32.1048 43.8772 41.1332 46.2896 42.8832 39.8101C43.6988 36.7895 45.2518 27.3547 43.737 18.7929C42.6944 12.8998 40.1461 7.42073 35.3584 3.90647C32.1373 1.5421 27.8671 -0.00115967 22.1703 -0.00115967C15.8078 -0.00115967 11.2215 1.91435 7.88908 4.77686C3.06368 8.92217 0.838536 15.3039 0.208726 21.7809C-0.723848 31.3738 1.75079 40.9666 1.75079 40.9666C2.39621 43.4648 4.9437 44.9674 7.43568 44.3202C9.92792 43.6735 11.4271 41.1199 10.7817 38.6222C10.7817 38.6222 8.71908 30.6549 9.49383 22.6881C9.88852 18.6277 10.9348 14.4758 13.9597 11.877C15.8608 10.2443 18.5406 9.35032 22.1703 9.35032C25.4665 9.35032 27.9828 10.0828 29.8464 11.4509C32.6865 13.5354 33.933 16.9304 34.5514 20.4256C35.8046 27.5096 34.4536 35.3199 33.7695 37.8118Z" fill="#35506B"/>
<path fill-rule="evenodd" clip-rule="evenodd" d="M50.8302 34.7338C45.6117 33.4289 44.2128 42.5983 49.7856 43.9638C52.3836 44.6003 60.4287 45.5937 67.5252 43.5717C72.4098 42.1801 76.8409 39.3076 79.4628 34.3127C81.2268 30.9521 82.2269 26.5914 81.8291 20.8959C81.3848 14.5348 79.4531 10.063 76.8125 6.90101C72.9884 2.32238 67.4647 0.475983 61.9722 0.230217C53.8374 -0.13356 45.9405 2.90913 45.9405 2.90913C43.8841 3.70247 42.798 6.33846 43.5164 8.79153C44.2345 11.2449 46.4873 12.5924 48.5434 11.7991C48.5434 11.7991 55.1015 9.26467 61.8573 9.56704C65.3006 9.72097 68.8663 10.5209 71.2636 13.3912C72.7698 15.195 73.709 17.8212 73.9625 21.4501C74.1926 24.7456 73.7522 27.3048 72.7314 29.2491C71.1763 32.2121 68.4074 33.6596 65.5104 34.485C59.6387 36.1578 52.9742 35.27 50.8302 34.7338Z" fill="#35506B"/>
</g>
<defs>
<clipPath id="clip0_18_73">
<rect width="82" height="45" fill="white"/>
</clipPath>
</defs>
</svg>
