<svg width="68" height="48" viewBox="0 0 68 48" fill="none" xmlns="http://www.w3.org/2000/svg">
<g clip-path="url(#clip0_170_8736)">
<path d="M66.2407 18.2911C64.7176 17.2533 61.2272 16.8641 58.4985 17.383C58.1814 14.7884 56.7217 12.5184 54.1832 10.5076L52.7238 9.46975L51.7082 10.9616C50.4392 12.9076 49.8046 15.6319 49.9948 18.2265C50.0582 19.1344 50.3755 20.756 51.3274 22.183C50.4392 22.7019 48.5987 23.3506 46.1873 23.3506H0.305573L0.178755 23.8695C-0.265638 26.4638 -0.265638 34.5717 4.93814 40.7984C8.87267 45.5333 14.7111 47.9333 22.3896 47.9333C39.016 47.9333 51.3274 40.0847 57.1024 25.88C59.387 25.9449 64.2735 25.88 66.7485 21.0152C66.8119 20.8854 66.9388 20.626 67.3829 19.6533L67.6368 19.1344L66.2407 18.2911ZM36.9854 0H30.0051V6.48623H36.9854V0ZM36.9854 7.78352H30.0051V14.2698H36.9854V7.78326V7.78352ZM28.7356 7.78352H21.7553V14.2698H28.7356V7.78326V7.78352ZM20.4858 7.78352H13.5052V14.2698H20.4858V7.78326V7.78352ZM12.236 15.567H5.25545V22.0533H12.2357V15.5668L12.236 15.567ZM20.4858 15.567H13.5052V22.0533H20.4858V15.567ZM28.7356 15.567H21.7553V22.0533H28.7356V15.567ZM36.9856 15.567H30.0048V22.0533H36.9856V15.567ZM45.2354 15.567H38.2546V22.0533H45.2354V15.567Z" fill="#E1E8FA"/>
</g>
<defs>
<clipPath id="clip0_170_8736">
<rect width="67.6364" height="48" fill="white"/>
</clipPath>
</defs>
</svg>
