<svg width="18" height="24" viewBox="0 0 18 24" fill="none" xmlns="http://www.w3.org/2000/svg">
<g clip-path="url(#clip0_194_10841)">
<path d="M0 8.61005V8.55905C0 7.52105 0.199 6.53005 0.56 5.62105L0.541 5.67505C0.884002 4.78622 1.39192 3.97023 2.038 3.27005L2.033 3.27505C3.32964 1.88653 4.98826 0.887686 6.822 0.391053L6.893 0.375053C7.84034 0.123123 8.81674 -0.00296096 9.797 5.27708e-05H9.808H9.88C11.396 5.27708e-05 12.83 0.355053 14.102 0.985053L14.046 0.960053C15.3278 1.58452 16.4213 2.53753 17.215 3.72205L17.233 3.75105C18.0359 4.94548 18.4629 6.35287 18.459 7.79205L18.458 7.89505V7.89005V7.90605C18.458 8.86005 18.358 9.79105 18.168 10.6881L18.183 10.6011C17.9974 11.5078 17.6969 12.3872 17.289 13.2181L17.318 13.1541C16.944 13.9434 16.4565 14.6738 15.871 15.3221L15.878 15.3141C15.3007 15.9376 14.603 16.4377 13.827 16.7841L13.787 16.8001C12.9526 17.1696 12.0496 17.359 11.137 17.3561H11.057H11.061C10.3758 17.3517 9.70072 17.1899 9.088 16.8831L9.114 16.8951C8.52995 16.6388 8.04618 16.1979 7.737 15.6401L7.729 15.6251C7.633 15.9984 7.49967 16.5391 7.329 17.2471C7.15833 17.9551 7.04533 18.4117 6.99 18.6171C6.93667 18.8237 6.838 19.1651 6.694 19.6411C6.582 20.0411 6.454 20.3811 6.301 20.7071L6.319 20.6651L5.857 21.5671C5.633 22.0041 5.413 22.3711 5.171 22.7211L5.193 22.6871C4.95233 23.0377 4.65433 23.4534 4.299 23.9341L4.097 24.0061L3.967 23.8621C3.823 22.3521 3.751 21.4484 3.751 21.1511C3.764 20.0891 3.876 19.0621 4.079 18.0681L4.061 18.1731C4.26767 17.0724 4.58767 15.6904 5.021 14.0271C5.45433 12.3637 5.70433 11.3877 5.771 11.0991C5.43026 10.3293 5.27247 9.49103 5.31 8.65005V8.66105C5.31 7.81005 5.589 7.02505 6.06 6.39105L6.053 6.40105C6.25612 6.0795 6.53711 5.81441 6.86994 5.63034C7.20277 5.44628 7.57667 5.34918 7.957 5.34805C7.984 5.34605 8.015 5.34605 8.047 5.34605C8.558 5.34605 9.016 5.57205 9.326 5.93005L9.328 5.93205C9.634 6.31005 9.82 6.79605 9.82 7.32605L9.818 7.41505V7.41105C9.75047 8.37863 9.52902 9.32924 9.162 10.2271L9.184 10.1661C8.83647 11.0163 8.62326 11.9153 8.552 12.8311L8.55 12.8631L8.549 12.9111C8.549 13.4891 8.799 14.0091 9.197 14.3681L9.199 14.3701C9.598 14.7411 10.134 14.9691 10.724 14.9691L10.774 14.9681H10.772H10.796C11.326 14.9681 11.824 14.8341 12.26 14.5991L12.244 14.6071C12.6875 14.3716 13.0723 14.0394 13.37 13.6351L13.376 13.6261C13.668 13.2301 13.937 12.7801 14.163 12.3061L14.184 12.2561C14.403 11.8011 14.592 11.2701 14.721 10.7161L14.732 10.6631C14.838 10.2381 14.94 9.69505 15.012 9.14305L15.021 9.06305C15.079 8.63405 15.113 8.13605 15.115 7.63005V7.62805C15.1562 6.90445 15.0363 6.18073 14.7639 5.50908C14.4916 4.83743 14.0735 4.2346 13.54 3.74405L13.537 3.74105C12.3849 2.77249 10.9093 2.27526 9.406 2.34905H9.419C8.53157 2.32238 7.64781 2.47405 6.82005 2.79508C5.9923 3.11612 5.23738 3.6 4.6 4.21805L4.602 4.21605C3.96463 4.82728 3.4631 5.56586 3.13005 6.38373C2.79701 7.20161 2.63992 8.08045 2.669 8.96305V8.95305V8.96505C2.669 9.39805 2.735 9.81505 2.857 10.2081L2.849 10.1781C2.951 10.5351 3.084 10.8471 3.25 11.1361L3.239 11.1151C3.37833 11.3457 3.50833 11.5644 3.629 11.7711C3.717 11.8961 3.78 12.0441 3.808 12.2041L3.809 12.2111C3.79135 12.5796 3.71576 12.943 3.585 13.2881L3.593 13.2641C3.449 13.6967 3.271 13.9131 3.059 13.9131C3.03967 13.9131 2.958 13.8987 2.814 13.8701C2.31623 13.7203 1.86656 13.4423 1.51 13.0641L1.509 13.0621C1.13692 12.6774 0.841643 12.2253 0.639 11.7301L0.629 11.7021C0.429821 11.2174 0.276159 10.7152 0.17 10.2021L0.16 10.1441C0.0548317 9.63982 0.00155405 9.12614 0.001 8.61105V8.60905L0 8.61005Z" fill="#E1E8FA"/>
</g>
<defs>
<clipPath id="clip0_194_10841">
<rect width="18" height="24" fill="white"/>
</clipPath>
</defs>
</svg>
