<svg width="40" height="40" viewBox="0 0 40 40" fill="none" xmlns="http://www.w3.org/2000/svg">
<path fill-rule="evenodd" clip-rule="evenodd" d="M33.12 12.0747C33.1782 11.7218 33.1406 11.3597 33.0113 11.0262C32.882 10.6928 32.6656 10.4001 32.3847 10.1787C32.1037 9.95729 31.7686 9.81527 31.4142 9.76742C31.0597 9.71958 30.6989 9.76767 30.3693 9.90667L7.56934 19.5067C5.98001 20.176 5.89867 22.4747 7.56934 23.168C9.22363 23.8579 10.902 24.4886 12.6013 25.0587C14.1587 25.5733 15.8573 26.0493 17.2187 26.184C17.5907 26.6293 18.0587 27.0573 18.536 27.4507C19.2653 28.0507 20.1427 28.668 21.0493 29.26C22.8653 30.4467 24.88 31.5813 26.2373 32.32C27.86 33.2 29.8027 32.1867 30.0933 30.4173L33.12 12.0747ZM10.1253 21.3227L30.2907 12.8333L27.4667 29.9533C26.1347 29.2293 24.216 28.1453 22.5067 27.028C21.7189 26.5222 20.9582 25.9752 20.228 25.3893C20.0328 25.2299 19.8434 25.0636 19.66 24.8907L24.9413 19.6107C25.1915 19.3607 25.3322 19.0215 25.3323 18.6678C25.3324 18.3141 25.192 17.9749 24.942 17.7247C24.692 17.4745 24.3528 17.3339 23.9991 17.3337C23.6455 17.3336 23.3062 17.474 23.056 17.724L17.2733 23.5067C16.2947 23.3813 14.932 23.0187 13.436 22.5253C12.3223 22.1543 11.2174 21.7533 10.1253 21.3227Z" fill="#35506B"/>
</svg>
