<svg width="428" height="926" viewBox="0 0 428 926" fill="none" xmlns="http://www.w3.org/2000/svg">
<rect width="428" height="926" rx="48" fill="white"/>
<path d="M363.493 77.18C362.533 77.18 361.627 77.0667 360.773 76.84C359.933 76.6 359.207 76.2533 358.593 75.8C358.38 75.6533 358.253 75.48 358.213 75.28C358.173 75.08 358.193 74.8933 358.273 74.72C358.367 74.5467 358.5 74.4333 358.673 74.38C358.847 74.3133 359.047 74.3533 359.273 74.5C359.873 74.94 360.513 75.2533 361.193 75.44C361.873 75.6267 362.64 75.72 363.493 75.72C364.693 75.72 365.58 75.5 366.153 75.06C366.74 74.6067 367.033 74.0133 367.033 73.28C367.033 72.6933 366.82 72.2267 366.393 71.88C365.98 71.5333 365.28 71.26 364.293 71.06L362.213 70.64C360.96 70.3733 360.02 69.94 359.393 69.34C358.78 68.7267 358.473 67.9133 358.473 66.9C358.473 66.06 358.687 65.3267 359.113 64.7C359.553 64.0733 360.16 63.5867 360.933 63.24C361.707 62.8933 362.6 62.72 363.613 62.72C364.453 62.72 365.233 62.84 365.953 63.08C366.687 63.3067 367.347 63.6533 367.933 64.12C368.12 64.2667 368.227 64.44 368.253 64.64C368.293 64.8267 368.267 65 368.173 65.16C368.08 65.32 367.947 65.4267 367.773 65.48C367.6 65.52 367.393 65.4667 367.153 65.32C366.62 64.9067 366.06 64.6133 365.473 64.44C364.9 64.2667 364.273 64.18 363.593 64.18C362.54 64.18 361.7 64.4267 361.073 64.92C360.447 65.4 360.133 66.04 360.133 66.84C360.133 67.48 360.327 67.9867 360.713 68.36C361.113 68.7333 361.76 69.0067 362.653 69.18L364.733 69.62C366.08 69.9 367.073 70.3267 367.713 70.9C368.367 71.46 368.693 72.2267 368.693 73.2C368.693 73.9867 368.48 74.68 368.053 75.28C367.64 75.88 367.04 76.3467 366.253 76.68C365.48 77.0133 364.56 77.18 363.493 77.18ZM371.818 77.14C371.285 77.14 371.018 76.86 371.018 76.3V63.58C371.018 63.0333 371.285 62.76 371.818 62.76C372.365 62.76 372.638 63.0333 372.638 63.58V71.6H372.678L376.778 67.68C376.951 67.5067 377.111 67.3733 377.258 67.28C377.405 67.1867 377.598 67.14 377.838 67.14C378.158 67.14 378.365 67.2667 378.458 67.52C378.565 67.76 378.498 68.0067 378.258 68.26L374.358 71.96L378.638 75.98C378.918 76.2467 378.991 76.5067 378.858 76.76C378.738 77.0133 378.531 77.14 378.238 77.14C377.998 77.14 377.798 77.0933 377.638 77C377.491 76.8933 377.318 76.74 377.118 76.54L372.678 72.44H372.638V76.3C372.638 76.86 372.365 77.14 371.818 77.14ZM381.818 64.94C381.111 64.94 380.758 64.6067 380.758 63.94C380.758 63.2867 381.111 62.96 381.818 62.96C382.525 62.96 382.878 63.2867 382.878 63.94C382.878 64.6067 382.525 64.94 381.818 64.94ZM381.818 77.1C381.285 77.1 381.018 76.8067 381.018 76.22V68.04C381.018 67.4667 381.285 67.18 381.818 67.18C382.365 67.18 382.638 67.4667 382.638 68.04V76.22C382.638 76.8067 382.365 77.1 381.818 77.1ZM386.466 80.74C385.933 80.74 385.666 80.4667 385.666 79.92V67.96C385.666 67.4133 385.926 67.14 386.446 67.14C386.993 67.14 387.266 67.4133 387.266 67.96V69C387.546 68.4133 387.98 67.9533 388.566 67.62C389.153 67.2733 389.826 67.1 390.586 67.1C391.453 67.1 392.206 67.3067 392.846 67.72C393.5 68.12 394 68.7 394.346 69.46C394.706 70.2067 394.886 71.1 394.886 72.14C394.886 73.1667 394.706 74.06 394.346 74.82C394 75.5667 393.5 76.1467 392.846 76.56C392.206 76.9733 391.453 77.18 390.586 77.18C389.84 77.18 389.173 77.0133 388.586 76.68C388 76.3467 387.566 75.8867 387.286 75.3V79.92C387.286 80.4667 387.013 80.74 386.466 80.74ZM390.246 75.88C391.153 75.88 391.88 75.56 392.426 74.92C392.973 74.2667 393.246 73.34 393.246 72.14C393.246 70.9267 392.973 70 392.426 69.36C391.88 68.72 391.153 68.4 390.246 68.4C389.34 68.4 388.613 68.72 388.066 69.36C387.52 70 387.246 70.9267 387.246 72.14C387.246 73.34 387.52 74.2667 388.066 74.92C388.613 75.56 389.34 75.88 390.246 75.88Z" fill="#7C5D50"/>
<circle opacity="0.25" cx="230" cy="520" r="8" fill="#CC3A00"/>
<circle opacity="0.25" cx="254" cy="520" r="8" fill="#CC3A00"/>
<rect x="166" y="512" width="48" height="16" rx="8" fill="#CC3A00"/>
<rect x="32" y="764" width="364" height="48" rx="8" fill="#CC3A00"/>
<path d="M190.686 796.192C189.726 796.192 189.246 795.696 189.246 794.704V780.424C189.246 779.928 189.366 779.552 189.606 779.296C189.862 779.024 190.19 778.888 190.59 778.888C190.958 778.888 191.23 778.96 191.406 779.104C191.598 779.232 191.822 779.456 192.078 779.776L200.646 790.888V780.352C200.646 779.376 201.126 778.888 202.086 778.888C203.03 778.888 203.502 779.376 203.502 780.352V794.752C203.502 795.2 203.39 795.552 203.166 795.808C202.942 796.064 202.638 796.192 202.254 796.192C201.886 796.192 201.59 796.12 201.366 795.976C201.158 795.832 200.926 795.6 200.67 795.28L192.102 784.144V794.704C192.102 795.696 191.63 796.192 190.686 796.192ZM212.696 796.24C211.368 796.24 210.224 795.992 209.264 795.496C208.304 795 207.56 794.296 207.032 793.384C206.52 792.472 206.264 791.392 206.264 790.144C206.264 788.928 206.512 787.864 207.008 786.952C207.52 786.04 208.216 785.328 209.096 784.816C209.992 784.288 211.008 784.024 212.144 784.024C213.808 784.024 215.12 784.552 216.08 785.608C217.056 786.664 217.544 788.104 217.544 789.928C217.544 790.52 217.16 790.816 216.392 790.816H209.144C209.368 792.912 210.568 793.96 212.744 793.96C213.16 793.96 213.624 793.912 214.136 793.816C214.664 793.704 215.16 793.52 215.624 793.264C216.04 793.024 216.392 792.952 216.68 793.048C216.968 793.128 217.168 793.296 217.28 793.552C217.408 793.808 217.424 794.096 217.328 794.416C217.248 794.72 217.024 794.984 216.656 795.208C216.096 795.56 215.448 795.824 214.712 796C213.992 796.16 213.32 796.24 212.696 796.24ZM212.264 786.064C211.384 786.064 210.672 786.336 210.128 786.88C209.584 787.424 209.256 788.16 209.144 789.088H215.048C214.984 788.112 214.712 787.368 214.232 786.856C213.768 786.328 213.112 786.064 212.264 786.064ZM220.665 796.12C220.313 796.12 220.017 796.024 219.777 795.832C219.553 795.624 219.433 795.36 219.417 795.04C219.417 794.72 219.553 794.384 219.825 794.032L223.137 789.952L220.065 786.16C219.777 785.808 219.641 785.472 219.657 785.152C219.673 784.832 219.793 784.576 220.017 784.384C220.257 784.176 220.553 784.072 220.905 784.072C221.273 784.072 221.577 784.136 221.817 784.264C222.073 784.392 222.305 784.592 222.513 784.864L224.865 787.888L227.241 784.864C227.465 784.592 227.697 784.392 227.937 784.264C228.177 784.136 228.473 784.072 228.825 784.072C229.193 784.072 229.489 784.176 229.713 784.384C229.937 784.592 230.049 784.856 230.049 785.176C230.065 785.496 229.929 785.832 229.641 786.184L226.569 789.952L229.905 794.032C230.193 794.368 230.329 794.696 230.313 795.016C230.297 795.336 230.169 795.6 229.929 795.808C229.705 796.016 229.409 796.12 229.041 796.12C228.401 796.12 227.873 795.856 227.457 795.328L224.841 792.04L222.249 795.328C222.041 795.584 221.817 795.784 221.577 795.928C221.337 796.056 221.033 796.12 220.665 796.12ZM238.327 796.24C235.223 796.24 233.671 794.704 233.671 791.632V786.52H232.423C231.623 786.52 231.223 786.144 231.223 785.392C231.223 784.64 231.623 784.264 232.423 784.264H233.671V782.08C233.671 781.072 234.175 780.568 235.183 780.568C236.175 780.568 236.671 781.072 236.671 782.08V784.264H239.215C240.015 784.264 240.415 784.64 240.415 785.392C240.415 786.144 240.015 786.52 239.215 786.52H236.671V791.464C236.671 792.232 236.839 792.808 237.175 793.192C237.511 793.576 238.055 793.768 238.807 793.768C239.079 793.768 239.319 793.744 239.527 793.696C239.735 793.648 239.919 793.616 240.079 793.6C240.271 793.584 240.431 793.648 240.559 793.792C240.687 793.92 240.751 794.192 240.751 794.608C240.751 794.928 240.695 795.216 240.583 795.472C240.487 795.712 240.303 795.88 240.031 795.976C239.823 796.04 239.551 796.096 239.215 796.144C238.879 796.208 238.583 796.24 238.327 796.24Z" fill="#FFFDFC"/>
<path d="M98.9823 626.32C96.8063 626.32 94.8969 625.84 93.2543 624.88C91.6329 623.92 90.3743 622.576 89.4783 620.848C88.5823 619.099 88.1343 617.051 88.1343 614.704C88.1343 612.336 88.5823 610.288 89.4783 608.56C90.3743 606.832 91.6329 605.499 93.2543 604.56C94.8756 603.6 96.7849 603.12 98.9823 603.12C101.18 603.12 103.089 603.6 104.71 604.56C106.332 605.499 107.59 606.832 108.486 608.56C109.382 610.288 109.83 612.325 109.83 614.672C109.83 617.04 109.382 619.099 108.486 620.848C107.59 622.576 106.332 623.92 104.71 624.88C103.089 625.84 101.18 626.32 98.9823 626.32ZM98.9823 622.8C101.052 622.8 102.662 622.085 103.814 620.656C104.966 619.227 105.542 617.243 105.542 614.704C105.542 612.144 104.966 610.16 103.814 608.752C102.684 607.344 101.073 606.64 98.9823 606.64C96.9129 606.64 95.3023 607.344 94.1503 608.752C92.9983 610.16 92.4223 612.144 92.4223 614.704C92.4223 617.243 92.9983 619.227 94.1503 620.656C95.3023 622.085 96.9129 622.8 98.9823 622.8ZM115.595 626.256C114.273 626.256 113.611 625.573 113.611 624.208V612.112C113.611 610.768 114.262 610.096 115.563 610.096C116.865 610.096 117.515 610.768 117.515 612.112V612.784C118.049 611.888 118.763 611.205 119.659 610.736C120.577 610.267 121.601 610.032 122.731 610.032C126.422 610.032 128.267 612.176 128.267 616.464V624.208C128.267 625.573 127.606 626.256 126.283 626.256C124.939 626.256 124.267 625.573 124.267 624.208V616.656C124.267 615.44 124.033 614.555 123.563 614C123.115 613.445 122.411 613.168 121.451 613.168C120.278 613.168 119.339 613.541 118.635 614.288C117.953 615.013 117.611 615.984 117.611 617.2V624.208C117.611 625.573 116.939 626.256 115.595 626.256ZM141.354 626.32C140.202 626.32 139.178 626.075 138.282 625.584C137.386 625.072 136.714 624.389 136.266 623.536V624.208C136.266 625.573 135.615 626.256 134.314 626.256C132.991 626.256 132.33 625.573 132.33 624.208V605.2C132.33 603.856 132.991 603.184 134.314 603.184C135.658 603.184 136.33 603.856 136.33 605.2V612.656C136.799 611.867 137.471 611.237 138.346 610.768C139.242 610.277 140.245 610.032 141.354 610.032C142.741 610.032 143.946 610.363 144.97 611.024C145.994 611.685 146.794 612.624 147.37 613.84C147.946 615.035 148.234 616.475 148.234 618.16C148.234 619.824 147.946 621.275 147.37 622.512C146.794 623.728 145.983 624.667 144.938 625.328C143.914 625.989 142.719 626.32 141.354 626.32ZM140.234 623.28C141.429 623.28 142.389 622.853 143.114 622C143.839 621.125 144.202 619.845 144.202 618.16C144.202 616.453 143.839 615.184 143.114 614.352C142.389 613.499 141.429 613.072 140.234 613.072C139.039 613.072 138.079 613.499 137.354 614.352C136.629 615.184 136.266 616.453 136.266 618.16C136.266 619.845 136.629 621.125 137.354 622C138.079 622.853 139.039 623.28 140.234 623.28ZM158.654 626.32C157.032 626.32 155.624 625.989 154.43 625.328C153.235 624.667 152.307 623.728 151.646 622.512C150.984 621.275 150.654 619.824 150.654 618.16C150.654 616.496 150.984 615.056 151.646 613.84C152.307 612.624 153.235 611.685 154.43 611.024C155.624 610.363 157.032 610.032 158.654 610.032C160.275 610.032 161.683 610.363 162.878 611.024C164.072 611.685 165 612.624 165.662 613.84C166.323 615.056 166.654 616.496 166.654 618.16C166.654 619.824 166.323 621.275 165.662 622.512C165 623.728 164.072 624.667 162.878 625.328C161.683 625.989 160.275 626.32 158.654 626.32ZM158.654 623.28C159.848 623.28 160.808 622.853 161.534 622C162.259 621.125 162.622 619.845 162.622 618.16C162.622 616.453 162.259 615.184 161.534 614.352C160.808 613.499 159.848 613.072 158.654 613.072C157.459 613.072 156.499 613.499 155.774 614.352C155.048 615.184 154.686 616.453 154.686 618.16C154.686 619.845 155.048 621.125 155.774 622C156.499 622.853 157.459 623.28 158.654 623.28ZM175.107 626.32C173.976 626.32 172.963 626.107 172.067 625.68C171.192 625.232 170.499 624.635 169.987 623.888C169.496 623.141 169.251 622.299 169.251 621.36C169.251 620.208 169.55 619.301 170.147 618.64C170.744 617.957 171.715 617.467 173.059 617.168C174.403 616.869 176.206 616.72 178.467 616.72H179.587V616.048C179.587 614.981 179.352 614.213 178.883 613.744C178.414 613.275 177.624 613.04 176.515 613.04C175.896 613.04 175.224 613.115 174.499 613.264C173.795 613.413 173.048 613.669 172.259 614.032C171.747 614.267 171.32 614.299 170.979 614.128C170.638 613.936 170.403 613.648 170.275 613.264C170.168 612.859 170.19 612.453 170.339 612.048C170.51 611.643 170.84 611.344 171.331 611.152C172.312 610.747 173.251 610.459 174.147 610.288C175.064 610.117 175.896 610.032 176.643 610.032C178.926 610.032 180.622 610.565 181.731 611.632C182.84 612.677 183.395 614.309 183.395 616.528V624.208C183.395 625.573 182.776 626.256 181.539 626.256C180.28 626.256 179.651 625.573 179.651 624.208V623.504C179.288 624.379 178.712 625.072 177.923 625.584C177.134 626.075 176.195 626.32 175.107 626.32ZM175.939 623.568C176.984 623.568 177.848 623.205 178.531 622.48C179.235 621.755 179.587 620.837 179.587 619.728V619.024H178.499C176.494 619.024 175.096 619.184 174.307 619.504C173.539 619.803 173.155 620.357 173.155 621.168C173.155 621.872 173.4 622.448 173.891 622.896C174.382 623.344 175.064 623.568 175.939 623.568ZM189.503 626.256C188.138 626.256 187.455 625.573 187.455 624.208V612.112C187.455 610.768 188.106 610.096 189.407 610.096C190.708 610.096 191.359 610.768 191.359 612.112V613.104C192.127 611.269 193.77 610.245 196.287 610.032C197.204 609.925 197.716 610.448 197.823 611.6C197.93 612.731 197.375 613.36 196.159 613.488L195.455 613.552C192.831 613.808 191.519 615.152 191.519 617.584V624.208C191.519 625.573 190.847 626.256 189.503 626.256ZM205.752 626.32C204.387 626.32 203.182 625.989 202.136 625.328C201.112 624.667 200.312 623.728 199.736 622.512C199.16 621.275 198.872 619.824 198.872 618.16C198.872 616.475 199.16 615.035 199.736 613.84C200.312 612.624 201.112 611.685 202.136 611.024C203.182 610.363 204.387 610.032 205.752 610.032C206.862 610.032 207.864 610.277 208.76 610.768C209.656 611.259 210.328 611.909 210.776 612.72V605.2C210.776 603.856 211.438 603.184 212.76 603.184C214.104 603.184 214.776 603.856 214.776 605.2V624.208C214.776 625.573 214.115 626.256 212.792 626.256C211.47 626.256 210.808 625.573 210.808 624.208V623.536C210.36 624.389 209.688 625.072 208.792 625.584C207.896 626.075 206.883 626.32 205.752 626.32ZM206.872 623.28C208.067 623.28 209.027 622.853 209.752 622C210.478 621.125 210.84 619.845 210.84 618.16C210.84 616.453 210.478 615.184 209.752 614.352C209.027 613.499 208.067 613.072 206.872 613.072C205.678 613.072 204.718 613.499 203.992 614.352C203.267 615.184 202.904 616.453 202.904 618.16C202.904 619.845 203.267 621.125 203.992 622C204.718 622.853 205.678 623.28 206.872 623.28ZM220.908 607.152C220.161 607.152 219.574 606.971 219.148 606.608C218.742 606.224 218.54 605.701 218.54 605.04C218.54 604.357 218.742 603.835 219.148 603.472C219.574 603.109 220.161 602.928 220.908 602.928C222.486 602.928 223.276 603.632 223.276 605.04C223.276 606.448 222.486 607.152 220.908 607.152ZM220.908 626.224C220.268 626.224 219.777 626.032 219.436 625.648C219.094 625.264 218.924 624.731 218.924 624.048V612.304C218.924 610.853 219.585 610.128 220.908 610.128C222.252 610.128 222.924 610.853 222.924 612.304V624.048C222.924 624.731 222.753 625.264 222.412 625.648C222.07 626.032 221.569 626.224 220.908 626.224ZM229.064 626.256C227.741 626.256 227.08 625.573 227.08 624.208V612.112C227.08 610.768 227.731 610.096 229.032 610.096C230.333 610.096 230.984 610.768 230.984 612.112V612.784C231.517 611.888 232.232 611.205 233.128 610.736C234.045 610.267 235.069 610.032 236.2 610.032C239.891 610.032 241.736 612.176 241.736 616.464V624.208C241.736 625.573 241.075 626.256 239.752 626.256C238.408 626.256 237.736 625.573 237.736 624.208V616.656C237.736 615.44 237.501 614.555 237.032 614C236.584 613.445 235.88 613.168 234.92 613.168C233.747 613.168 232.808 613.541 232.104 614.288C231.421 615.013 231.08 615.984 231.08 617.2V624.208C231.08 625.573 230.408 626.256 229.064 626.256ZM253.095 632.08C251.943 632.08 250.823 631.973 249.735 631.76C248.668 631.547 247.697 631.216 246.823 630.768C246.311 630.512 246.001 630.181 245.895 629.776C245.809 629.392 245.852 629.019 246.023 628.656C246.193 628.293 246.449 628.027 246.791 627.856C247.153 627.707 247.537 627.728 247.943 627.92C248.881 628.389 249.767 628.688 250.599 628.816C251.452 628.965 252.177 629.04 252.775 629.04C255.633 629.04 257.063 627.664 257.063 624.912V622.768C256.615 623.643 255.921 624.336 254.983 624.848C254.065 625.36 253.041 625.616 251.911 625.616C250.503 625.616 249.276 625.296 248.231 624.656C247.185 623.995 246.375 623.077 245.799 621.904C245.223 620.731 244.935 619.365 244.935 617.808C244.935 616.251 245.223 614.896 245.799 613.744C246.375 612.571 247.185 611.664 248.231 611.024C249.276 610.363 250.503 610.032 251.911 610.032C253.041 610.032 254.065 610.277 254.983 610.768C255.9 611.259 256.572 611.931 256.999 612.784V612.112C256.999 611.451 257.169 610.949 257.511 610.608C257.873 610.267 258.364 610.096 258.983 610.096C260.305 610.096 260.967 610.768 260.967 612.112V624.432C260.967 626.971 260.295 628.88 258.951 630.16C257.607 631.44 255.655 632.08 253.095 632.08ZM252.999 622.576C254.236 622.576 255.217 622.149 255.943 621.296C256.668 620.443 257.031 619.28 257.031 617.808C257.031 616.336 256.668 615.184 255.943 614.352C255.217 613.499 254.236 613.072 252.999 613.072C251.761 613.072 250.78 613.499 250.055 614.352C249.329 615.184 248.967 616.336 248.967 617.808C248.967 619.28 249.329 620.443 250.055 621.296C250.78 622.149 251.761 622.576 252.999 622.576ZM281.671 626.256C280.305 626.256 279.623 625.552 279.623 624.144V606.864H273.383C272.209 606.864 271.623 606.288 271.623 605.136C271.623 604.005 272.209 603.44 273.383 603.44H289.959C291.132 603.44 291.719 604.005 291.719 605.136C291.719 606.288 291.132 606.864 289.959 606.864H283.719V624.144C283.719 625.552 283.036 626.256 281.671 626.256ZM297.408 607.152C296.661 607.152 296.074 606.971 295.648 606.608C295.242 606.224 295.04 605.701 295.04 605.04C295.04 604.357 295.242 603.835 295.648 603.472C296.074 603.109 296.661 602.928 297.408 602.928C298.986 602.928 299.776 603.632 299.776 605.04C299.776 606.448 298.986 607.152 297.408 607.152ZM297.408 626.224C296.768 626.224 296.277 626.032 295.936 625.648C295.594 625.264 295.424 624.731 295.424 624.048V612.304C295.424 610.853 296.085 610.128 297.408 610.128C298.752 610.128 299.424 610.853 299.424 612.304V624.048C299.424 624.731 299.253 625.264 298.912 625.648C298.57 626.032 298.069 626.224 297.408 626.224ZM310.748 626.32C306.609 626.32 304.54 624.272 304.54 620.176V613.36H302.876C301.809 613.36 301.276 612.859 301.276 611.856C301.276 610.853 301.809 610.352 302.876 610.352H304.54V607.44C304.54 606.096 305.212 605.424 306.556 605.424C307.879 605.424 308.54 606.096 308.54 607.44V610.352H311.932C312.999 610.352 313.532 610.853 313.532 611.856C313.532 612.859 312.999 613.36 311.932 613.36H308.54V619.952C308.54 620.976 308.764 621.744 309.212 622.256C309.66 622.768 310.385 623.024 311.388 623.024C311.751 623.024 312.071 622.992 312.348 622.928C312.625 622.864 312.871 622.821 313.084 622.8C313.34 622.779 313.553 622.864 313.724 623.056C313.895 623.227 313.98 623.589 313.98 624.144C313.98 624.571 313.905 624.955 313.756 625.296C313.628 625.616 313.383 625.84 313.02 625.968C312.743 626.053 312.38 626.128 311.932 626.192C311.484 626.277 311.089 626.32 310.748 626.32ZM321.612 626.32C318.049 626.32 316.268 624.325 316.268 620.336V605.2C316.268 603.856 316.929 603.184 318.252 603.184C319.596 603.184 320.268 603.856 320.268 605.2V620.144C320.268 622.064 321.068 623.024 322.668 623.024C322.838 623.024 322.998 623.024 323.148 623.024C323.297 623.003 323.446 622.981 323.595 622.96C323.894 622.917 324.097 623.003 324.204 623.216C324.31 623.408 324.364 623.813 324.364 624.432C324.364 624.965 324.257 625.381 324.044 625.68C323.83 625.979 323.478 626.16 322.988 626.224C322.54 626.288 322.081 626.32 321.612 626.32ZM334.042 626.32C332.271 626.32 330.746 625.989 329.466 625.328C328.186 624.667 327.194 623.728 326.49 622.512C325.807 621.296 325.466 619.856 325.466 618.192C325.466 616.571 325.797 615.152 326.458 613.936C327.141 612.72 328.069 611.771 329.242 611.088C330.437 610.384 331.791 610.032 333.306 610.032C335.525 610.032 337.274 610.736 338.554 612.144C339.855 613.552 340.506 615.472 340.506 617.904C340.506 618.693 339.994 619.088 338.97 619.088H329.306C329.605 621.883 331.205 623.28 334.106 623.28C334.661 623.28 335.279 623.216 335.962 623.088C336.666 622.939 337.327 622.693 337.946 622.352C338.501 622.032 338.97 621.936 339.354 622.064C339.738 622.171 340.005 622.395 340.154 622.736C340.325 623.077 340.346 623.461 340.218 623.888C340.111 624.293 339.813 624.645 339.322 624.944C338.575 625.413 337.711 625.765 336.73 626C335.77 626.213 334.874 626.32 334.042 626.32ZM333.466 612.752C332.293 612.752 331.343 613.115 330.618 613.84C329.893 614.565 329.455 615.547 329.306 616.784H337.178C337.093 615.483 336.73 614.491 336.09 613.808C335.471 613.104 334.597 612.752 333.466 612.752Z" fill="#100400"/>
<path d="M37.039 665C36.479 665 36.199 664.713 36.199 664.14V651.66C36.199 651.087 36.4723 650.8 37.019 650.8C37.5657 650.8 37.839 651.087 37.839 651.66V663.56H44.399C44.9057 663.56 45.159 663.8 45.159 664.28C45.159 664.76 44.9057 665 44.399 665H37.039ZM50.7807 665.18C49.834 665.18 49.014 664.973 48.3207 664.56C47.6274 664.147 47.0874 663.567 46.7007 662.82C46.3274 662.06 46.1407 661.167 46.1407 660.14C46.1407 659.113 46.3274 658.227 46.7007 657.48C47.0874 656.72 47.6274 656.133 48.3207 655.72C49.014 655.307 49.834 655.1 50.7807 655.1C51.714 655.1 52.5274 655.307 53.2207 655.72C53.9274 656.133 54.4674 656.72 54.8407 657.48C55.2274 658.227 55.4207 659.113 55.4207 660.14C55.4207 661.167 55.2274 662.06 54.8407 662.82C54.4674 663.567 53.9274 664.147 53.2207 664.56C52.5274 664.973 51.714 665.18 50.7807 665.18ZM50.7807 663.88C51.6874 663.88 52.414 663.56 52.9607 662.92C53.5074 662.267 53.7807 661.34 53.7807 660.14C53.7807 658.927 53.5074 658 52.9607 657.36C52.414 656.72 51.6874 656.4 50.7807 656.4C49.8607 656.4 49.1274 656.72 48.5807 657.36C48.0474 658 47.7807 658.927 47.7807 660.14C47.7807 661.34 48.0474 662.267 48.5807 662.92C49.1274 663.56 49.8607 663.88 50.7807 663.88ZM58.674 665.14C58.1273 665.14 57.854 664.86 57.854 664.3V655.96C57.854 655.413 58.114 655.14 58.634 655.14C59.1673 655.14 59.434 655.413 59.434 655.96V657.02C59.7007 656.407 60.114 655.94 60.674 655.62C61.234 655.287 61.9007 655.107 62.674 655.08C63.1007 655.04 63.3273 655.253 63.354 655.72C63.394 656.187 63.154 656.447 62.634 656.5L62.314 656.54C61.394 656.62 60.694 656.913 60.214 657.42C59.734 657.913 59.494 658.593 59.494 659.46V664.3C59.494 664.86 59.2207 665.14 58.674 665.14ZM69.2848 665.18C67.7514 665.18 66.5381 664.733 65.6448 663.84C64.7514 662.933 64.3048 661.707 64.3048 660.16C64.3048 659.16 64.5048 658.28 64.9048 657.52C65.3048 656.747 65.8514 656.153 66.5448 655.74C67.2514 655.313 68.0648 655.1 68.9848 655.1C70.3048 655.1 71.3381 655.527 72.0848 656.38C72.8314 657.22 73.2048 658.38 73.2048 659.86C73.2048 660.273 72.9714 660.48 72.5048 660.48H65.8848C65.9381 661.587 66.2581 662.433 66.8448 663.02C67.4314 663.593 68.2448 663.88 69.2848 663.88C69.7248 663.88 70.1714 663.827 70.6248 663.72C71.0781 663.6 71.5181 663.393 71.9448 663.1C72.2514 662.9 72.5048 662.86 72.7048 662.98C72.9181 663.1 73.0248 663.287 73.0248 663.54C73.0381 663.78 72.9048 663.993 72.6248 664.18C72.1848 664.5 71.6581 664.747 71.0448 664.92C70.4448 665.093 69.8581 665.18 69.2848 665.18ZM69.0248 656.3C68.1048 656.3 67.3781 656.587 66.8448 657.16C66.3114 657.733 65.9981 658.487 65.9048 659.42H71.8048C71.7648 658.433 71.5048 657.667 71.0248 657.12C70.5581 656.573 69.8914 656.3 69.0248 656.3ZM76.3893 665.14C75.856 665.14 75.5893 664.86 75.5893 664.3V655.96C75.5893 655.413 75.8493 655.14 76.3693 655.14C76.9026 655.14 77.1693 655.413 77.1693 655.96V656.92C77.4626 656.333 77.8693 655.887 78.3893 655.58C78.9093 655.26 79.516 655.1 80.2093 655.1C81.7293 655.1 82.7026 655.76 83.1293 657.08C83.4226 656.467 83.856 655.987 84.4293 655.64C85.0026 655.28 85.6626 655.1 86.4093 655.1C88.5693 655.1 89.6493 656.38 89.6493 658.94V664.3C89.6493 664.86 89.376 665.14 88.8293 665.14C88.296 665.14 88.0293 664.86 88.0293 664.3V659.02C88.0293 658.127 87.8693 657.473 87.5493 657.06C87.2426 656.633 86.7293 656.42 86.0093 656.42C85.2226 656.42 84.596 656.7 84.1293 657.26C83.6626 657.82 83.4293 658.567 83.4293 659.5V664.3C83.4293 664.86 83.156 665.14 82.6093 665.14C82.076 665.14 81.8093 664.86 81.8093 664.3V659.02C81.8093 658.127 81.6493 657.473 81.3293 657.06C81.0226 656.633 80.5093 656.42 79.7893 656.42C78.9893 656.42 78.356 656.7 77.8893 657.26C77.436 657.82 77.2093 658.567 77.2093 659.5V664.3C77.2093 664.86 76.936 665.14 76.3893 665.14ZM98.6345 652.94C97.9278 652.94 97.5745 652.607 97.5745 651.94C97.5745 651.287 97.9278 650.96 98.6345 650.96C99.3411 650.96 99.6945 651.287 99.6945 651.94C99.6945 652.607 99.3411 652.94 98.6345 652.94ZM98.6345 665.1C98.1011 665.1 97.8345 664.807 97.8345 664.22V656.04C97.8345 655.467 98.1011 655.18 98.6345 655.18C99.1811 655.18 99.4545 655.467 99.4545 656.04V664.22C99.4545 664.807 99.1811 665.1 98.6345 665.1ZM103.283 668.74C102.75 668.74 102.483 668.467 102.483 667.92V655.96C102.483 655.413 102.743 655.14 103.263 655.14C103.81 655.14 104.083 655.413 104.083 655.96V657C104.363 656.413 104.796 655.953 105.383 655.62C105.97 655.273 106.643 655.1 107.403 655.1C108.27 655.1 109.023 655.307 109.663 655.72C110.316 656.12 110.816 656.7 111.163 657.46C111.523 658.207 111.703 659.1 111.703 660.14C111.703 661.167 111.523 662.06 111.163 662.82C110.816 663.567 110.316 664.147 109.663 664.56C109.023 664.973 108.27 665.18 107.403 665.18C106.656 665.18 105.99 665.013 105.403 664.68C104.816 664.347 104.383 663.887 104.103 663.3V667.92C104.103 668.467 103.83 668.74 103.283 668.74ZM107.063 663.88C107.97 663.88 108.696 663.56 109.243 662.92C109.79 662.267 110.063 661.34 110.063 660.14C110.063 658.927 109.79 658 109.243 657.36C108.696 656.72 107.97 656.4 107.063 656.4C106.156 656.4 105.43 656.72 104.883 657.36C104.336 658 104.063 658.927 104.063 660.14C104.063 661.34 104.336 662.267 104.883 662.92C105.43 663.56 106.156 663.88 107.063 663.88ZM117.423 665.18C116.823 665.18 116.216 665.107 115.603 664.96C115.003 664.8 114.443 664.547 113.923 664.2C113.683 664.053 113.563 663.867 113.563 663.64C113.576 663.4 113.67 663.213 113.843 663.08C114.016 662.947 114.236 662.947 114.503 663.08C115.023 663.4 115.523 663.627 116.003 663.76C116.496 663.88 116.983 663.94 117.463 663.94C118.223 663.94 118.796 663.8 119.183 663.52C119.57 663.24 119.763 662.86 119.763 662.38C119.763 662.007 119.636 661.713 119.383 661.5C119.13 661.273 118.73 661.1 118.183 660.98L116.363 660.58C114.71 660.22 113.883 659.367 113.883 658.02C113.883 657.14 114.23 656.433 114.923 655.9C115.63 655.367 116.55 655.1 117.683 655.1C118.256 655.1 118.81 655.18 119.343 655.34C119.876 655.487 120.356 655.727 120.783 656.06C121.01 656.22 121.11 656.413 121.083 656.64C121.056 656.867 120.95 657.047 120.763 657.18C120.59 657.3 120.376 657.28 120.123 657.12C119.723 656.853 119.316 656.66 118.903 656.54C118.49 656.407 118.083 656.34 117.683 656.34C116.936 656.34 116.37 656.487 115.983 656.78C115.596 657.073 115.403 657.46 115.403 657.94C115.403 658.687 115.896 659.167 116.883 659.38L118.703 659.76C119.556 659.947 120.203 660.247 120.643 660.66C121.083 661.06 121.303 661.607 121.303 662.3C121.303 663.193 120.95 663.9 120.243 664.42C119.536 664.927 118.596 665.18 117.423 665.18ZM127.212 665.18C124.879 665.18 123.712 663.893 123.712 661.32V655.96C123.712 655.413 123.979 655.14 124.512 655.14C125.059 655.14 125.332 655.413 125.332 655.96V661.3C125.332 662.167 125.505 662.807 125.852 663.22C126.212 663.633 126.772 663.84 127.532 663.84C128.359 663.84 129.032 663.567 129.552 663.02C130.072 662.46 130.332 661.72 130.332 660.8V655.96C130.332 655.413 130.605 655.14 131.152 655.14C131.685 655.14 131.952 655.413 131.952 655.96V664.3C131.952 664.86 131.692 665.14 131.172 665.14C130.639 665.14 130.372 664.86 130.372 664.3V663.36C130.065 663.947 129.632 664.4 129.072 664.72C128.525 665.027 127.905 665.18 127.212 665.18ZM135.823 665.14C135.29 665.14 135.023 664.86 135.023 664.3V655.96C135.023 655.413 135.283 655.14 135.803 655.14C136.336 655.14 136.603 655.413 136.603 655.96V656.92C136.896 656.333 137.303 655.887 137.823 655.58C138.343 655.26 138.95 655.1 139.643 655.1C141.163 655.1 142.136 655.76 142.563 657.08C142.856 656.467 143.29 655.987 143.863 655.64C144.436 655.28 145.096 655.1 145.843 655.1C148.003 655.1 149.083 656.38 149.083 658.94V664.3C149.083 664.86 148.81 665.14 148.263 665.14C147.73 665.14 147.463 664.86 147.463 664.3V659.02C147.463 658.127 147.303 657.473 146.983 657.06C146.676 656.633 146.163 656.42 145.443 656.42C144.656 656.42 144.03 656.7 143.563 657.26C143.096 657.82 142.863 658.567 142.863 659.5V664.3C142.863 664.86 142.59 665.14 142.043 665.14C141.51 665.14 141.243 664.86 141.243 664.3V659.02C141.243 658.127 141.083 657.473 140.763 657.06C140.456 656.633 139.943 656.42 139.223 656.42C138.423 656.42 137.79 656.7 137.323 657.26C136.87 657.82 136.643 658.567 136.643 659.5V664.3C136.643 664.86 136.37 665.14 135.823 665.14ZM160.968 665.18C160.101 665.18 159.341 664.973 158.688 664.56C158.048 664.147 157.548 663.567 157.188 662.82C156.841 662.06 156.668 661.167 156.668 660.14C156.668 659.1 156.841 658.207 157.188 657.46C157.548 656.7 158.048 656.12 158.688 655.72C159.341 655.307 160.101 655.1 160.968 655.1C161.728 655.1 162.395 655.267 162.968 655.6C163.555 655.933 163.988 656.393 164.268 656.98V651.58C164.268 651.033 164.541 650.76 165.088 650.76C165.621 650.76 165.888 651.033 165.888 651.58V664.3C165.888 664.86 165.621 665.14 165.088 665.14C164.555 665.14 164.288 664.86 164.288 664.3V663.26C163.995 663.86 163.555 664.333 162.968 664.68C162.395 665.013 161.728 665.18 160.968 665.18ZM161.308 663.88C162.215 663.88 162.941 663.56 163.488 662.92C164.035 662.267 164.308 661.34 164.308 660.14C164.308 658.927 164.035 658 163.488 657.36C162.941 656.72 162.215 656.4 161.308 656.4C160.388 656.4 159.655 656.72 159.108 657.36C158.575 658 158.308 658.927 158.308 660.14C158.308 661.34 158.575 662.267 159.108 662.92C159.655 663.56 160.388 663.88 161.308 663.88ZM172.968 665.18C172.022 665.18 171.202 664.973 170.508 664.56C169.815 664.147 169.275 663.567 168.888 662.82C168.515 662.06 168.328 661.167 168.328 660.14C168.328 659.113 168.515 658.227 168.888 657.48C169.275 656.72 169.815 656.133 170.508 655.72C171.202 655.307 172.022 655.1 172.968 655.1C173.902 655.1 174.715 655.307 175.408 655.72C176.115 656.133 176.655 656.72 177.028 657.48C177.415 658.227 177.608 659.113 177.608 660.14C177.608 661.167 177.415 662.06 177.028 662.82C176.655 663.567 176.115 664.147 175.408 664.56C174.715 664.973 173.902 665.18 172.968 665.18ZM172.968 663.88C173.875 663.88 174.602 663.56 175.148 662.92C175.695 662.267 175.968 661.34 175.968 660.14C175.968 658.927 175.695 658 175.148 657.36C174.602 656.72 173.875 656.4 172.968 656.4C172.048 656.4 171.315 656.72 170.768 657.36C170.235 658 169.968 658.927 169.968 660.14C169.968 661.34 170.235 662.267 170.768 662.92C171.315 663.56 172.048 663.88 172.968 663.88ZM183.001 665.18C182.041 665.18 181.308 664.893 180.801 664.32C180.295 663.733 180.041 662.887 180.041 661.78V651.58C180.041 651.033 180.308 650.76 180.841 650.76C181.388 650.76 181.661 651.033 181.661 651.58V661.66C181.661 663.087 182.228 663.8 183.361 663.8C183.481 663.8 183.588 663.793 183.681 663.78C183.775 663.767 183.868 663.76 183.961 663.76C184.108 663.747 184.208 663.78 184.261 663.86C184.328 663.94 184.361 664.1 184.361 664.34C184.361 664.793 184.135 665.053 183.681 665.12C183.575 665.147 183.461 665.16 183.341 665.16C183.221 665.173 183.108 665.18 183.001 665.18ZM189.902 665.18C188.955 665.18 188.135 664.973 187.442 664.56C186.748 664.147 186.208 663.567 185.822 662.82C185.448 662.06 185.262 661.167 185.262 660.14C185.262 659.113 185.448 658.227 185.822 657.48C186.208 656.72 186.748 656.133 187.442 655.72C188.135 655.307 188.955 655.1 189.902 655.1C190.835 655.1 191.648 655.307 192.342 655.72C193.048 656.133 193.588 656.72 193.962 657.48C194.348 658.227 194.542 659.113 194.542 660.14C194.542 661.167 194.348 662.06 193.962 662.82C193.588 663.567 193.048 664.147 192.342 664.56C191.648 664.973 190.835 665.18 189.902 665.18ZM189.902 663.88C190.808 663.88 191.535 663.56 192.082 662.92C192.628 662.267 192.902 661.34 192.902 660.14C192.902 658.927 192.628 658 192.082 657.36C191.535 656.72 190.808 656.4 189.902 656.4C188.982 656.4 188.248 656.72 187.702 657.36C187.168 658 186.902 658.927 186.902 660.14C186.902 661.34 187.168 662.267 187.702 662.92C188.248 663.56 188.982 663.88 189.902 663.88ZM197.795 665.14C197.248 665.14 196.975 664.86 196.975 664.3V655.96C196.975 655.413 197.235 655.14 197.755 655.14C198.288 655.14 198.555 655.413 198.555 655.96V657.02C198.822 656.407 199.235 655.94 199.795 655.62C200.355 655.287 201.022 655.107 201.795 655.08C202.222 655.04 202.448 655.253 202.475 655.72C202.515 656.187 202.275 656.447 201.755 656.5L201.435 656.54C200.515 656.62 199.815 656.913 199.335 657.42C198.855 657.913 198.615 658.593 198.615 659.46V664.3C198.615 664.86 198.342 665.14 197.795 665.14ZM212.579 665.18C211.979 665.18 211.373 665.107 210.759 664.96C210.159 664.8 209.599 664.547 209.079 664.2C208.839 664.053 208.719 663.867 208.719 663.64C208.733 663.4 208.826 663.213 208.999 663.08C209.173 662.947 209.393 662.947 209.659 663.08C210.179 663.4 210.679 663.627 211.159 663.76C211.653 663.88 212.139 663.94 212.619 663.94C213.379 663.94 213.953 663.8 214.339 663.52C214.726 663.24 214.919 662.86 214.919 662.38C214.919 662.007 214.793 661.713 214.539 661.5C214.286 661.273 213.886 661.1 213.339 660.98L211.519 660.58C209.866 660.22 209.039 659.367 209.039 658.02C209.039 657.14 209.386 656.433 210.079 655.9C210.786 655.367 211.706 655.1 212.839 655.1C213.413 655.1 213.966 655.18 214.499 655.34C215.033 655.487 215.513 655.727 215.939 656.06C216.166 656.22 216.266 656.413 216.239 656.64C216.213 656.867 216.106 657.047 215.919 657.18C215.746 657.3 215.533 657.28 215.279 657.12C214.879 656.853 214.473 656.66 214.059 656.54C213.646 656.407 213.239 656.34 212.839 656.34C212.093 656.34 211.526 656.487 211.139 656.78C210.753 657.073 210.559 657.46 210.559 657.94C210.559 658.687 211.053 659.167 212.039 659.38L213.859 659.76C214.713 659.947 215.359 660.247 215.799 660.66C216.239 661.06 216.459 661.607 216.459 662.3C216.459 663.193 216.106 663.9 215.399 664.42C214.693 664.927 213.753 665.18 212.579 665.18ZM219.728 652.94C219.022 652.94 218.668 652.607 218.668 651.94C218.668 651.287 219.022 650.96 219.728 650.96C220.435 650.96 220.788 651.287 220.788 651.94C220.788 652.607 220.435 652.94 219.728 652.94ZM219.728 665.1C219.195 665.1 218.928 664.807 218.928 664.22V656.04C218.928 655.467 219.195 655.18 219.728 655.18C220.275 655.18 220.548 655.467 220.548 656.04V664.22C220.548 664.807 220.275 665.1 219.728 665.1ZM227.477 665.18C226.33 665.18 225.47 664.88 224.897 664.28C224.323 663.667 224.037 662.787 224.037 661.64V656.54H222.697C222.23 656.54 221.997 656.327 221.997 655.9C221.997 655.487 222.23 655.28 222.697 655.28H224.037V652.98C224.037 652.433 224.31 652.16 224.857 652.16C225.39 652.16 225.657 652.433 225.657 652.98V655.28H228.177C228.643 655.28 228.877 655.487 228.877 655.9C228.877 656.327 228.643 656.54 228.177 656.54H225.657V661.48C225.657 662.24 225.817 662.82 226.137 663.22C226.457 663.607 226.977 663.8 227.697 663.8C227.95 663.8 228.163 663.773 228.337 663.72C228.51 663.667 228.663 663.64 228.797 663.64C228.917 663.627 229.017 663.667 229.097 663.76C229.177 663.853 229.217 664.013 229.217 664.24C229.217 664.4 229.183 664.547 229.117 664.68C229.063 664.813 228.963 664.907 228.817 664.96C228.657 665.013 228.443 665.06 228.177 665.1C227.923 665.153 227.69 665.18 227.477 665.18ZM238.785 665.18C238.118 665.18 237.518 665.053 236.985 664.8C236.465 664.533 236.052 664.173 235.745 663.72C235.438 663.267 235.285 662.76 235.285 662.2C235.285 661.493 235.465 660.933 235.825 660.52C236.198 660.107 236.805 659.813 237.645 659.64C238.498 659.453 239.658 659.36 241.125 659.36H241.765V658.74C241.765 657.913 241.592 657.32 241.245 656.96C240.912 656.587 240.372 656.4 239.625 656.4C239.158 656.4 238.685 656.46 238.205 656.58C237.738 656.7 237.252 656.893 236.745 657.16C236.518 657.28 236.325 657.307 236.165 657.24C236.018 657.16 235.912 657.04 235.845 656.88C235.792 656.707 235.792 656.533 235.845 656.36C235.912 656.173 236.045 656.033 236.245 655.94C236.818 655.647 237.392 655.433 237.965 655.3C238.552 655.167 239.105 655.1 239.625 655.1C240.878 655.1 241.805 655.407 242.405 656.02C243.018 656.633 243.325 657.587 243.325 658.88V664.3C243.325 664.86 243.078 665.14 242.585 665.14C242.065 665.14 241.805 664.86 241.805 664.3V663.32C241.552 663.893 241.158 664.347 240.625 664.68C240.105 665.013 239.492 665.18 238.785 665.18ZM239.045 663.96C239.845 663.96 240.498 663.687 241.005 663.14C241.512 662.58 241.765 661.873 241.765 661.02V660.42H241.145C240.065 660.42 239.212 660.473 238.585 660.58C237.972 660.673 237.538 660.847 237.285 661.1C237.045 661.34 236.925 661.673 236.925 662.1C236.925 662.647 237.112 663.093 237.485 663.44C237.872 663.787 238.392 663.96 239.045 663.96ZM247.171 665.14C246.637 665.14 246.371 664.86 246.371 664.3V655.96C246.371 655.413 246.631 655.14 247.151 655.14C247.684 655.14 247.951 655.413 247.951 655.96V656.92C248.244 656.333 248.651 655.887 249.171 655.58C249.691 655.26 250.297 655.1 250.991 655.1C252.511 655.1 253.484 655.76 253.911 657.08C254.204 656.467 254.637 655.987 255.211 655.64C255.784 655.28 256.444 655.1 257.191 655.1C259.351 655.1 260.431 656.38 260.431 658.94V664.3C260.431 664.86 260.157 665.14 259.611 665.14C259.077 665.14 258.811 664.86 258.811 664.3V659.02C258.811 658.127 258.651 657.473 258.331 657.06C258.024 656.633 257.511 656.42 256.791 656.42C256.004 656.42 255.377 656.7 254.911 657.26C254.444 657.82 254.211 658.567 254.211 659.5V664.3C254.211 664.86 253.937 665.14 253.391 665.14C252.857 665.14 252.591 664.86 252.591 664.3V659.02C252.591 658.127 252.431 657.473 252.111 657.06C251.804 656.633 251.291 656.42 250.571 656.42C249.771 656.42 249.137 656.7 248.671 657.26C248.217 657.82 247.991 658.567 247.991 659.5V664.3C247.991 664.86 247.717 665.14 247.171 665.14ZM267.839 665.18C266.306 665.18 265.093 664.733 264.199 663.84C263.306 662.933 262.859 661.707 262.859 660.16C262.859 659.16 263.059 658.28 263.459 657.52C263.859 656.747 264.406 656.153 265.099 655.74C265.806 655.313 266.619 655.1 267.539 655.1C268.859 655.1 269.893 655.527 270.639 656.38C271.386 657.22 271.759 658.38 271.759 659.86C271.759 660.273 271.526 660.48 271.059 660.48H264.439C264.493 661.587 264.813 662.433 265.399 663.02C265.986 663.593 266.799 663.88 267.839 663.88C268.279 663.88 268.726 663.827 269.179 663.72C269.633 663.6 270.073 663.393 270.499 663.1C270.806 662.9 271.059 662.86 271.259 662.98C271.473 663.1 271.579 663.287 271.579 663.54C271.593 663.78 271.459 663.993 271.179 664.18C270.739 664.5 270.213 664.747 269.599 664.92C268.999 665.093 268.413 665.18 267.839 665.18ZM267.579 656.3C266.659 656.3 265.933 656.587 265.399 657.16C264.866 657.733 264.553 658.487 264.459 659.42H270.359C270.319 658.433 270.059 657.667 269.579 657.12C269.113 656.573 268.446 656.3 267.579 656.3ZM278.004 665.18C276.857 665.18 275.997 664.88 275.424 664.28C274.851 663.667 274.564 662.787 274.564 661.64V656.54H273.224C272.757 656.54 272.524 656.327 272.524 655.9C272.524 655.487 272.757 655.28 273.224 655.28H274.564V652.98C274.564 652.433 274.837 652.16 275.384 652.16C275.917 652.16 276.184 652.433 276.184 652.98V655.28H278.704C279.171 655.28 279.404 655.487 279.404 655.9C279.404 656.327 279.171 656.54 278.704 656.54H276.184V661.48C276.184 662.24 276.344 662.82 276.664 663.22C276.984 663.607 277.504 663.8 278.224 663.8C278.477 663.8 278.691 663.773 278.864 663.72C279.037 663.667 279.191 663.64 279.324 663.64C279.444 663.627 279.544 663.667 279.624 663.76C279.704 663.853 279.744 664.013 279.744 664.24C279.744 664.4 279.711 664.547 279.644 664.68C279.591 664.813 279.491 664.907 279.344 664.96C279.184 665.013 278.971 665.06 278.704 665.1C278.451 665.153 278.217 665.18 278.004 665.18ZM282.33 666.9C282.143 667.127 281.956 667.227 281.77 667.2C281.583 667.187 281.456 667.093 281.39 666.92C281.323 666.747 281.376 666.54 281.55 666.3C281.71 666.1 281.83 665.893 281.91 665.68C281.99 665.467 282.05 665.267 282.09 665.08C281.77 665.053 281.516 664.94 281.33 664.74C281.143 664.54 281.05 664.287 281.05 663.98C281.05 663.66 281.143 663.4 281.33 663.2C281.53 662.987 281.79 662.88 282.11 662.88C282.456 662.88 282.73 663 282.93 663.24C283.13 663.467 283.23 663.8 283.23 664.24C283.23 664.653 283.163 665.093 283.03 665.56C282.896 666.027 282.663 666.473 282.33 666.9ZM295.197 665.18C294.223 665.18 293.383 664.973 292.677 664.56C291.97 664.133 291.423 663.54 291.037 662.78C290.663 662.007 290.477 661.107 290.477 660.08C290.477 658.533 290.897 657.32 291.737 656.44C292.577 655.547 293.73 655.1 295.197 655.1C295.677 655.1 296.177 655.18 296.697 655.34C297.217 655.487 297.69 655.733 298.117 656.08C298.343 656.24 298.437 656.44 298.397 656.68C298.37 656.92 298.257 657.1 298.057 657.22C297.87 657.34 297.65 657.313 297.397 657.14C297.037 656.873 296.677 656.687 296.317 656.58C295.97 656.473 295.63 656.42 295.297 656.42C294.283 656.42 293.503 656.74 292.957 657.38C292.41 658.007 292.137 658.913 292.137 660.1C292.137 661.26 292.41 662.18 292.957 662.86C293.503 663.527 294.283 663.86 295.297 663.86C295.63 663.86 295.97 663.807 296.317 663.7C296.677 663.593 297.037 663.407 297.397 663.14C297.65 662.967 297.87 662.947 298.057 663.08C298.243 663.2 298.343 663.38 298.357 663.62C298.383 663.86 298.29 664.053 298.077 664.2C297.65 664.547 297.183 664.8 296.677 664.96C296.17 665.107 295.677 665.18 295.197 665.18ZM304.179 665.18C303.232 665.18 302.412 664.973 301.719 664.56C301.026 664.147 300.486 663.567 300.099 662.82C299.726 662.06 299.539 661.167 299.539 660.14C299.539 659.113 299.726 658.227 300.099 657.48C300.486 656.72 301.026 656.133 301.719 655.72C302.412 655.307 303.232 655.1 304.179 655.1C305.112 655.1 305.926 655.307 306.619 655.72C307.326 656.133 307.866 656.72 308.239 657.48C308.626 658.227 308.819 659.113 308.819 660.14C308.819 661.167 308.626 662.06 308.239 662.82C307.866 663.567 307.326 664.147 306.619 664.56C305.926 664.973 305.112 665.18 304.179 665.18ZM304.179 663.88C305.086 663.88 305.812 663.56 306.359 662.92C306.906 662.267 307.179 661.34 307.179 660.14C307.179 658.927 306.906 658 306.359 657.36C305.812 656.72 305.086 656.4 304.179 656.4C303.259 656.4 302.526 656.72 301.979 657.36C301.446 658 301.179 658.927 301.179 660.14C301.179 661.34 301.446 662.267 301.979 662.92C302.526 663.56 303.259 663.88 304.179 663.88ZM312.052 665.14C311.519 665.14 311.252 664.86 311.252 664.3V655.96C311.252 655.413 311.512 655.14 312.032 655.14C312.566 655.14 312.832 655.413 312.832 655.96V656.94C313.152 656.327 313.606 655.867 314.192 655.56C314.779 655.253 315.439 655.1 316.172 655.1C318.479 655.1 319.632 656.38 319.632 658.94V664.3C319.632 664.86 319.366 665.14 318.832 665.14C318.286 665.14 318.012 664.86 318.012 664.3V659.04C318.012 658.133 317.832 657.473 317.472 657.06C317.126 656.633 316.566 656.42 315.792 656.42C314.899 656.42 314.186 656.7 313.652 657.26C313.132 657.807 312.872 658.54 312.872 659.46V664.3C312.872 664.86 312.599 665.14 312.052 665.14ZM325.9 665.18C325.3 665.18 324.693 665.107 324.08 664.96C323.48 664.8 322.92 664.547 322.4 664.2C322.16 664.053 322.04 663.867 322.04 663.64C322.053 663.4 322.146 663.213 322.32 663.08C322.493 662.947 322.713 662.947 322.98 663.08C323.5 663.4 324 663.627 324.48 663.76C324.973 663.88 325.46 663.94 325.94 663.94C326.7 663.94 327.273 663.8 327.66 663.52C328.046 663.24 328.24 662.86 328.24 662.38C328.24 662.007 328.113 661.713 327.86 661.5C327.606 661.273 327.206 661.1 326.66 660.98L324.84 660.58C323.186 660.22 322.36 659.367 322.36 658.02C322.36 657.14 322.706 656.433 323.4 655.9C324.106 655.367 325.026 655.1 326.16 655.1C326.733 655.1 327.286 655.18 327.82 655.34C328.353 655.487 328.833 655.727 329.26 656.06C329.486 656.22 329.586 656.413 329.56 656.64C329.533 656.867 329.426 657.047 329.24 657.18C329.066 657.3 328.853 657.28 328.6 657.12C328.2 656.853 327.793 656.66 327.38 656.54C326.966 656.407 326.56 656.34 326.16 656.34C325.413 656.34 324.846 656.487 324.46 656.78C324.073 657.073 323.88 657.46 323.88 657.94C323.88 658.687 324.373 659.167 325.36 659.38L327.18 659.76C328.033 659.947 328.68 660.247 329.12 660.66C329.56 661.06 329.78 661.607 329.78 662.3C329.78 663.193 329.426 663.9 328.72 664.42C328.013 664.927 327.073 665.18 325.9 665.18ZM336.629 665.18C335.095 665.18 333.882 664.733 332.989 663.84C332.095 662.933 331.649 661.707 331.649 660.16C331.649 659.16 331.849 658.28 332.249 657.52C332.649 656.747 333.195 656.153 333.889 655.74C334.595 655.313 335.409 655.1 336.329 655.1C337.649 655.1 338.682 655.527 339.429 656.38C340.175 657.22 340.549 658.38 340.549 659.86C340.549 660.273 340.315 660.48 339.849 660.48H333.229C333.282 661.587 333.602 662.433 334.189 663.02C334.775 663.593 335.589 663.88 336.629 663.88C337.069 663.88 337.515 663.827 337.969 663.72C338.422 663.6 338.862 663.393 339.289 663.1C339.595 662.9 339.849 662.86 340.049 662.98C340.262 663.1 340.369 663.287 340.369 663.54C340.382 663.78 340.249 663.993 339.969 664.18C339.529 664.5 339.002 664.747 338.389 664.92C337.789 665.093 337.202 665.18 336.629 665.18ZM336.369 656.3C335.449 656.3 334.722 656.587 334.189 657.16C333.655 657.733 333.342 658.487 333.249 659.42H339.149C339.109 658.433 338.849 657.667 338.369 657.12C337.902 656.573 337.235 656.3 336.369 656.3ZM347.013 665.18C346.04 665.18 345.2 664.973 344.493 664.56C343.786 664.133 343.24 663.54 342.853 662.78C342.48 662.007 342.293 661.107 342.293 660.08C342.293 658.533 342.713 657.32 343.553 656.44C344.393 655.547 345.546 655.1 347.013 655.1C347.493 655.1 347.993 655.18 348.513 655.34C349.033 655.487 349.506 655.733 349.933 656.08C350.16 656.24 350.253 656.44 350.213 656.68C350.186 656.92 350.073 657.1 349.873 657.22C349.686 657.34 349.466 657.313 349.213 657.14C348.853 656.873 348.493 656.687 348.133 656.58C347.786 656.473 347.446 656.42 347.113 656.42C346.1 656.42 345.32 656.74 344.773 657.38C344.226 658.007 343.953 658.913 343.953 660.1C343.953 661.26 344.226 662.18 344.773 662.86C345.32 663.527 346.1 663.86 347.113 663.86C347.446 663.86 347.786 663.807 348.133 663.7C348.493 663.593 348.853 663.407 349.213 663.14C349.466 662.967 349.686 662.947 349.873 663.08C350.06 663.2 350.16 663.38 350.173 663.62C350.2 663.86 350.106 664.053 349.893 664.2C349.466 664.547 349 664.8 348.493 664.96C347.986 665.107 347.493 665.18 347.013 665.18ZM356.051 665.18C354.904 665.18 354.044 664.88 353.471 664.28C352.898 663.667 352.611 662.787 352.611 661.64V656.54H351.271C350.804 656.54 350.571 656.327 350.571 655.9C350.571 655.487 350.804 655.28 351.271 655.28H352.611V652.98C352.611 652.433 352.884 652.16 353.431 652.16C353.964 652.16 354.231 652.433 354.231 652.98V655.28H356.751C357.218 655.28 357.451 655.487 357.451 655.9C357.451 656.327 357.218 656.54 356.751 656.54H354.231V661.48C354.231 662.24 354.391 662.82 354.711 663.22C355.031 663.607 355.551 663.8 356.271 663.8C356.524 663.8 356.738 663.773 356.911 663.72C357.084 663.667 357.238 663.64 357.371 663.64C357.491 663.627 357.591 663.667 357.671 663.76C357.751 663.853 357.791 664.013 357.791 664.24C357.791 664.4 357.758 664.547 357.691 664.68C357.638 664.813 357.538 664.907 357.391 664.96C357.231 665.013 357.018 665.06 356.751 665.1C356.498 665.153 356.264 665.18 356.051 665.18ZM363.425 665.18C361.892 665.18 360.679 664.733 359.785 663.84C358.892 662.933 358.445 661.707 358.445 660.16C358.445 659.16 358.645 658.28 359.045 657.52C359.445 656.747 359.992 656.153 360.685 655.74C361.392 655.313 362.205 655.1 363.125 655.1C364.445 655.1 365.479 655.527 366.225 656.38C366.972 657.22 367.345 658.38 367.345 659.86C367.345 660.273 367.112 660.48 366.645 660.48H360.025C360.079 661.587 360.399 662.433 360.985 663.02C361.572 663.593 362.385 663.88 363.425 663.88C363.865 663.88 364.312 663.827 364.765 663.72C365.219 663.6 365.659 663.393 366.085 663.1C366.392 662.9 366.645 662.86 366.845 662.98C367.059 663.1 367.165 663.287 367.165 663.54C367.179 663.78 367.045 663.993 366.765 664.18C366.325 664.5 365.799 664.747 365.185 664.92C364.585 665.093 363.999 665.18 363.425 665.18ZM363.165 656.3C362.245 656.3 361.519 656.587 360.985 657.16C360.452 657.733 360.139 658.487 360.045 659.42H365.945C365.905 658.433 365.645 657.667 365.165 657.12C364.699 656.573 364.032 656.3 363.165 656.3ZM373.59 665.18C372.443 665.18 371.583 664.88 371.01 664.28C370.437 663.667 370.15 662.787 370.15 661.64V656.54H368.81C368.343 656.54 368.11 656.327 368.11 655.9C368.11 655.487 368.343 655.28 368.81 655.28H370.15V652.98C370.15 652.433 370.423 652.16 370.97 652.16C371.503 652.16 371.77 652.433 371.77 652.98V655.28H374.29C374.757 655.28 374.99 655.487 374.99 655.9C374.99 656.327 374.757 656.54 374.29 656.54H371.77V661.48C371.77 662.24 371.93 662.82 372.25 663.22C372.57 663.607 373.09 663.8 373.81 663.8C374.063 663.8 374.277 663.773 374.45 663.72C374.623 663.667 374.777 663.64 374.91 663.64C375.03 663.627 375.13 663.667 375.21 663.76C375.29 663.853 375.33 664.013 375.33 664.24C375.33 664.4 375.297 664.547 375.23 664.68C375.177 664.813 375.077 664.907 374.93 664.96C374.77 665.013 374.557 665.06 374.29 665.1C374.037 665.153 373.803 665.18 373.59 665.18ZM380.122 665.18C377.789 665.18 376.622 663.893 376.622 661.32V655.96C376.622 655.413 376.889 655.14 377.422 655.14C377.969 655.14 378.242 655.413 378.242 655.96V661.3C378.242 662.167 378.415 662.807 378.762 663.22C379.122 663.633 379.682 663.84 380.442 663.84C381.269 663.84 381.942 663.567 382.462 663.02C382.982 662.46 383.242 661.72 383.242 660.8V655.96C383.242 655.413 383.515 655.14 384.062 655.14C384.595 655.14 384.862 655.413 384.862 655.96V664.3C384.862 664.86 384.602 665.14 384.082 665.14C383.549 665.14 383.282 664.86 383.282 664.3V663.36C382.975 663.947 382.542 664.4 381.982 664.72C381.435 665.027 380.815 665.18 380.122 665.18ZM388.713 665.14C388.166 665.14 387.893 664.86 387.893 664.3V655.96C387.893 655.413 388.153 655.14 388.673 655.14C389.206 655.14 389.473 655.413 389.473 655.96V657.02C389.74 656.407 390.153 655.94 390.713 655.62C391.273 655.287 391.94 655.107 392.713 655.08C393.14 655.04 393.366 655.253 393.393 655.72C393.433 656.187 393.193 656.447 392.673 656.5L392.353 656.54C391.433 656.62 390.733 656.913 390.253 657.42C389.773 657.913 389.533 658.593 389.533 659.46V664.3C389.533 664.86 389.26 665.14 388.713 665.14ZM104.557 692.18C103.89 692.18 103.29 692.053 102.757 691.8C102.237 691.533 101.823 691.173 101.517 690.72C101.21 690.267 101.057 689.76 101.057 689.2C101.057 688.493 101.237 687.933 101.597 687.52C101.97 687.107 102.577 686.813 103.417 686.64C104.27 686.453 105.43 686.36 106.897 686.36H107.537V685.74C107.537 684.913 107.363 684.32 107.017 683.96C106.683 683.587 106.143 683.4 105.397 683.4C104.93 683.4 104.457 683.46 103.977 683.58C103.51 683.7 103.023 683.893 102.517 684.16C102.29 684.28 102.097 684.307 101.937 684.24C101.79 684.16 101.683 684.04 101.617 683.88C101.563 683.707 101.563 683.533 101.617 683.36C101.683 683.173 101.817 683.033 102.017 682.94C102.59 682.647 103.163 682.433 103.737 682.3C104.323 682.167 104.877 682.1 105.397 682.1C106.65 682.1 107.577 682.407 108.177 683.02C108.79 683.633 109.097 684.587 109.097 685.88V691.3C109.097 691.86 108.85 692.14 108.357 692.14C107.837 692.14 107.577 691.86 107.577 691.3V690.32C107.323 690.893 106.93 691.347 106.397 691.68C105.877 692.013 105.263 692.18 104.557 692.18ZM104.817 690.96C105.617 690.96 106.27 690.687 106.777 690.14C107.283 689.58 107.537 688.873 107.537 688.02V687.42H106.917C105.837 687.42 104.983 687.473 104.357 687.58C103.743 687.673 103.31 687.847 103.057 688.1C102.817 688.34 102.697 688.673 102.697 689.1C102.697 689.647 102.883 690.093 103.257 690.44C103.643 690.787 104.163 690.96 104.817 690.96ZM115.802 692.18C114.935 692.18 114.175 691.973 113.522 691.56C112.882 691.147 112.382 690.567 112.022 689.82C111.675 689.06 111.502 688.167 111.502 687.14C111.502 686.1 111.675 685.207 112.022 684.46C112.382 683.7 112.882 683.12 113.522 682.72C114.175 682.307 114.935 682.1 115.802 682.1C116.562 682.1 117.229 682.267 117.802 682.6C118.389 682.933 118.822 683.393 119.102 683.98V678.58C119.102 678.033 119.375 677.76 119.922 677.76C120.455 677.76 120.722 678.033 120.722 678.58V691.3C120.722 691.86 120.455 692.14 119.922 692.14C119.389 692.14 119.122 691.86 119.122 691.3V690.26C118.829 690.86 118.389 691.333 117.802 691.68C117.229 692.013 116.562 692.18 115.802 692.18ZM116.142 690.88C117.049 690.88 117.775 690.56 118.322 689.92C118.869 689.267 119.142 688.34 119.142 687.14C119.142 685.927 118.869 685 118.322 684.36C117.775 683.72 117.049 683.4 116.142 683.4C115.222 683.4 114.489 683.72 113.942 684.36C113.409 685 113.142 685.927 113.142 687.14C113.142 688.34 113.409 689.267 113.942 689.92C114.489 690.56 115.222 690.88 116.142 690.88ZM124.562 679.94C123.856 679.94 123.502 679.607 123.502 678.94C123.502 678.287 123.856 677.96 124.562 677.96C125.269 677.96 125.622 678.287 125.622 678.94C125.622 679.607 125.269 679.94 124.562 679.94ZM124.562 692.1C124.029 692.1 123.762 691.807 123.762 691.22V683.04C123.762 682.467 124.029 682.18 124.562 682.18C125.109 682.18 125.382 682.467 125.382 683.04V691.22C125.382 691.807 125.109 692.1 124.562 692.1ZM129.211 695.74C128.677 695.74 128.411 695.467 128.411 694.92V682.96C128.411 682.413 128.671 682.14 129.191 682.14C129.737 682.14 130.011 682.413 130.011 682.96V684C130.291 683.413 130.724 682.953 131.311 682.62C131.897 682.273 132.571 682.1 133.331 682.1C134.197 682.1 134.951 682.307 135.591 682.72C136.244 683.12 136.744 683.7 137.091 684.46C137.451 685.207 137.631 686.1 137.631 687.14C137.631 688.167 137.451 689.06 137.091 689.82C136.744 690.567 136.244 691.147 135.591 691.56C134.951 691.973 134.197 692.18 133.331 692.18C132.584 692.18 131.917 692.013 131.331 691.68C130.744 691.347 130.311 690.887 130.031 690.3V694.92C130.031 695.467 129.757 695.74 129.211 695.74ZM132.991 690.88C133.897 690.88 134.624 690.56 135.171 689.92C135.717 689.267 135.991 688.34 135.991 687.14C135.991 685.927 135.717 685 135.171 684.36C134.624 683.72 133.897 683.4 132.991 683.4C132.084 683.4 131.357 683.72 130.811 684.36C130.264 685 129.991 685.927 129.991 687.14C129.991 688.34 130.264 689.267 130.811 689.92C131.357 690.56 132.084 690.88 132.991 690.88ZM140.871 679.94C140.164 679.94 139.811 679.607 139.811 678.94C139.811 678.287 140.164 677.96 140.871 677.96C141.577 677.96 141.931 678.287 141.931 678.94C141.931 679.607 141.577 679.94 140.871 679.94ZM140.871 692.1C140.337 692.1 140.071 691.807 140.071 691.22V683.04C140.071 682.467 140.337 682.18 140.871 682.18C141.417 682.18 141.691 682.467 141.691 683.04V691.22C141.691 691.807 141.417 692.1 140.871 692.1ZM147.999 692.18C147.399 692.18 146.793 692.107 146.179 691.96C145.579 691.8 145.019 691.547 144.499 691.2C144.259 691.053 144.139 690.867 144.139 690.64C144.153 690.4 144.246 690.213 144.419 690.08C144.593 689.947 144.813 689.947 145.079 690.08C145.599 690.4 146.099 690.627 146.579 690.76C147.073 690.88 147.559 690.94 148.039 690.94C148.799 690.94 149.373 690.8 149.759 690.52C150.146 690.24 150.339 689.86 150.339 689.38C150.339 689.007 150.213 688.713 149.959 688.5C149.706 688.273 149.306 688.1 148.759 687.98L146.939 687.58C145.286 687.22 144.459 686.367 144.459 685.02C144.459 684.14 144.806 683.433 145.499 682.9C146.206 682.367 147.126 682.1 148.259 682.1C148.833 682.1 149.386 682.18 149.919 682.34C150.453 682.487 150.933 682.727 151.359 683.06C151.586 683.22 151.686 683.413 151.659 683.64C151.633 683.867 151.526 684.047 151.339 684.18C151.166 684.3 150.953 684.28 150.699 684.12C150.299 683.853 149.893 683.66 149.479 683.54C149.066 683.407 148.659 683.34 148.259 683.34C147.513 683.34 146.946 683.487 146.559 683.78C146.173 684.073 145.979 684.46 145.979 684.94C145.979 685.687 146.473 686.167 147.459 686.38L149.279 686.76C150.133 686.947 150.779 687.247 151.219 687.66C151.659 688.06 151.879 688.607 151.879 689.3C151.879 690.193 151.526 690.9 150.819 691.42C150.113 691.927 149.173 692.18 147.999 692.18ZM158.468 692.18C157.495 692.18 156.655 691.973 155.948 691.56C155.241 691.133 154.695 690.54 154.308 689.78C153.935 689.007 153.748 688.107 153.748 687.08C153.748 685.533 154.168 684.32 155.008 683.44C155.848 682.547 157.001 682.1 158.468 682.1C158.948 682.1 159.448 682.18 159.968 682.34C160.488 682.487 160.961 682.733 161.388 683.08C161.615 683.24 161.708 683.44 161.668 683.68C161.641 683.92 161.528 684.1 161.328 684.22C161.141 684.34 160.921 684.313 160.668 684.14C160.308 683.873 159.948 683.687 159.588 683.58C159.241 683.473 158.901 683.42 158.568 683.42C157.555 683.42 156.775 683.74 156.228 684.38C155.681 685.007 155.408 685.913 155.408 687.1C155.408 688.26 155.681 689.18 156.228 689.86C156.775 690.527 157.555 690.86 158.568 690.86C158.901 690.86 159.241 690.807 159.588 690.7C159.948 690.593 160.308 690.407 160.668 690.14C160.921 689.967 161.141 689.947 161.328 690.08C161.515 690.2 161.615 690.38 161.628 690.62C161.655 690.86 161.561 691.053 161.348 691.2C160.921 691.547 160.455 691.8 159.948 691.96C159.441 692.107 158.948 692.18 158.468 692.18ZM164.406 679.94C163.699 679.94 163.346 679.607 163.346 678.94C163.346 678.287 163.699 677.96 164.406 677.96C165.113 677.96 165.466 678.287 165.466 678.94C165.466 679.607 165.113 679.94 164.406 679.94ZM164.406 692.1C163.873 692.1 163.606 691.807 163.606 691.22V683.04C163.606 682.467 163.873 682.18 164.406 682.18C164.953 682.18 165.226 682.467 165.226 683.04V691.22C165.226 691.807 164.953 692.1 164.406 692.1ZM169.054 692.14C168.521 692.14 168.254 691.86 168.254 691.3V682.96C168.254 682.413 168.514 682.14 169.034 682.14C169.568 682.14 169.834 682.413 169.834 682.96V683.94C170.154 683.327 170.608 682.867 171.194 682.56C171.781 682.253 172.441 682.1 173.174 682.1C175.481 682.1 176.634 683.38 176.634 685.94V691.3C176.634 691.86 176.368 692.14 175.834 692.14C175.288 692.14 175.014 691.86 175.014 691.3V686.04C175.014 685.133 174.834 684.473 174.474 684.06C174.128 683.633 173.568 683.42 172.794 683.42C171.901 683.42 171.188 683.7 170.654 684.26C170.134 684.807 169.874 685.54 169.874 686.46V691.3C169.874 691.86 169.601 692.14 169.054 692.14ZM183.922 695.78C183.215 695.78 182.522 695.693 181.842 695.52C181.175 695.36 180.568 695.1 180.022 694.74C179.822 694.62 179.702 694.473 179.662 694.3C179.635 694.14 179.662 693.98 179.742 693.82C179.822 693.673 179.935 693.567 180.082 693.5C180.242 693.433 180.408 693.447 180.582 693.54C181.168 693.9 181.728 694.147 182.262 694.28C182.795 694.413 183.322 694.48 183.842 694.48C185.762 694.48 186.722 693.493 186.722 691.52V689.8C186.442 690.413 186.002 690.9 185.402 691.26C184.815 691.607 184.142 691.78 183.382 691.78C182.488 691.78 181.715 691.573 181.062 691.16C180.408 690.747 179.902 690.18 179.542 689.46C179.195 688.727 179.022 687.88 179.022 686.92C179.022 685.96 179.195 685.12 179.542 684.4C179.902 683.667 180.408 683.1 181.062 682.7C181.715 682.3 182.488 682.1 183.382 682.1C184.142 682.1 184.815 682.267 185.402 682.6C185.988 682.933 186.422 683.4 186.702 684V682.96C186.702 682.413 186.968 682.14 187.502 682.14C188.035 682.14 188.302 682.413 188.302 682.96V691.3C188.302 692.793 187.928 693.913 187.182 694.66C186.448 695.407 185.362 695.78 183.922 695.78ZM183.682 690.46C184.615 690.46 185.355 690.14 185.902 689.5C186.448 688.86 186.722 688 186.722 686.92C186.722 685.84 186.448 684.987 185.902 684.36C185.355 683.72 184.615 683.4 183.682 683.4C182.762 683.4 182.028 683.72 181.482 684.36C180.935 684.987 180.662 685.84 180.662 686.92C180.662 688 180.935 688.86 181.482 689.5C182.028 690.14 182.762 690.46 183.682 690.46ZM200.877 692.18C199.343 692.18 198.13 691.733 197.237 690.84C196.343 689.933 195.897 688.707 195.897 687.16C195.897 686.16 196.097 685.28 196.497 684.52C196.897 683.747 197.443 683.153 198.137 682.74C198.843 682.313 199.657 682.1 200.577 682.1C201.897 682.1 202.93 682.527 203.677 683.38C204.423 684.22 204.797 685.38 204.797 686.86C204.797 687.273 204.563 687.48 204.097 687.48H197.477C197.53 688.587 197.85 689.433 198.437 690.02C199.023 690.593 199.837 690.88 200.877 690.88C201.317 690.88 201.763 690.827 202.217 690.72C202.67 690.6 203.11 690.393 203.537 690.1C203.843 689.9 204.097 689.86 204.297 689.98C204.51 690.1 204.617 690.287 204.617 690.54C204.63 690.78 204.497 690.993 204.217 691.18C203.777 691.5 203.25 691.747 202.637 691.92C202.037 692.093 201.45 692.18 200.877 692.18ZM200.617 683.3C199.697 683.3 198.97 683.587 198.437 684.16C197.903 684.733 197.59 685.487 197.497 686.42H203.397C203.357 685.433 203.097 684.667 202.617 684.12C202.15 683.573 201.483 683.3 200.617 683.3ZM210.101 692.18C209.141 692.18 208.408 691.893 207.901 691.32C207.394 690.733 207.141 689.887 207.141 688.78V678.58C207.141 678.033 207.408 677.76 207.941 677.76C208.488 677.76 208.761 678.033 208.761 678.58V688.66C208.761 690.087 209.328 690.8 210.461 690.8C210.581 690.8 210.688 690.793 210.781 690.78C210.874 690.767 210.968 690.76 211.061 690.76C211.208 690.747 211.308 690.78 211.361 690.86C211.428 690.94 211.461 691.1 211.461 691.34C211.461 691.793 211.234 692.053 210.781 692.12C210.674 692.147 210.561 692.16 210.441 692.16C210.321 692.173 210.208 692.18 210.101 692.18ZM213.859 679.94C213.152 679.94 212.799 679.607 212.799 678.94C212.799 678.287 213.152 677.96 213.859 677.96C214.566 677.96 214.919 678.287 214.919 678.94C214.919 679.607 214.566 679.94 213.859 679.94ZM213.859 692.1C213.326 692.1 213.059 691.807 213.059 691.22V683.04C213.059 682.467 213.326 682.18 213.859 682.18C214.406 682.18 214.679 682.467 214.679 683.04V691.22C214.679 691.807 214.406 692.1 213.859 692.1ZM221.608 692.18C220.461 692.18 219.601 691.88 219.028 691.28C218.454 690.667 218.168 689.787 218.168 688.64V683.54H216.828C216.361 683.54 216.127 683.327 216.127 682.9C216.127 682.487 216.361 682.28 216.828 682.28H218.168V679.98C218.168 679.433 218.441 679.16 218.988 679.16C219.521 679.16 219.788 679.433 219.788 679.98V682.28H222.308C222.774 682.28 223.008 682.487 223.008 682.9C223.008 683.327 222.774 683.54 222.308 683.54H219.788V688.48C219.788 689.24 219.948 689.82 220.268 690.22C220.588 690.607 221.108 690.8 221.828 690.8C222.081 690.8 222.294 690.773 222.468 690.72C222.641 690.667 222.794 690.64 222.928 690.64C223.048 690.627 223.148 690.667 223.228 690.76C223.308 690.853 223.348 691.013 223.348 691.24C223.348 691.4 223.314 691.547 223.248 691.68C223.194 691.813 223.094 691.907 222.948 691.96C222.788 692.013 222.574 692.06 222.308 692.1C222.054 692.153 221.821 692.18 221.608 692.18ZM233.296 692.18C230.963 692.18 229.796 690.893 229.796 688.32V682.96C229.796 682.413 230.063 682.14 230.596 682.14C231.143 682.14 231.416 682.413 231.416 682.96V688.3C231.416 689.167 231.589 689.807 231.936 690.22C232.296 690.633 232.856 690.84 233.616 690.84C234.443 690.84 235.116 690.567 235.636 690.02C236.156 689.46 236.416 688.72 236.416 687.8V682.96C236.416 682.413 236.689 682.14 237.236 682.14C237.769 682.14 238.036 682.413 238.036 682.96V691.3C238.036 691.86 237.776 692.14 237.256 692.14C236.723 692.14 236.456 691.86 236.456 691.3V690.36C236.149 690.947 235.716 691.4 235.156 691.72C234.609 692.027 233.989 692.18 233.296 692.18ZM244.967 692.18C243.82 692.18 242.96 691.88 242.387 691.28C241.814 690.667 241.527 689.787 241.527 688.64V683.54H240.187C239.72 683.54 239.487 683.327 239.487 682.9C239.487 682.487 239.72 682.28 240.187 682.28H241.527V679.98C241.527 679.433 241.8 679.16 242.347 679.16C242.88 679.16 243.147 679.433 243.147 679.98V682.28H245.667C246.134 682.28 246.367 682.487 246.367 682.9C246.367 683.327 246.134 683.54 245.667 683.54H243.147V688.48C243.147 689.24 243.307 689.82 243.627 690.22C243.947 690.607 244.467 690.8 245.187 690.8C245.44 690.8 245.654 690.773 245.827 690.72C246 690.667 246.154 690.64 246.287 690.64C246.407 690.627 246.507 690.667 246.587 690.76C246.667 690.853 246.707 691.013 246.707 691.24C246.707 691.4 246.674 691.547 246.607 691.68C246.554 691.813 246.454 691.907 246.307 691.96C246.147 692.013 245.934 692.06 245.667 692.1C245.414 692.153 245.18 692.18 244.967 692.18ZM256.275 692.18C255.609 692.18 255.009 692.053 254.475 691.8C253.955 691.533 253.542 691.173 253.235 690.72C252.929 690.267 252.775 689.76 252.775 689.2C252.775 688.493 252.955 687.933 253.315 687.52C253.689 687.107 254.295 686.813 255.135 686.64C255.989 686.453 257.149 686.36 258.615 686.36H259.255V685.74C259.255 684.913 259.082 684.32 258.735 683.96C258.402 683.587 257.862 683.4 257.115 683.4C256.649 683.4 256.175 683.46 255.695 683.58C255.229 683.7 254.742 683.893 254.235 684.16C254.009 684.28 253.815 684.307 253.655 684.24C253.509 684.16 253.402 684.04 253.335 683.88C253.282 683.707 253.282 683.533 253.335 683.36C253.402 683.173 253.535 683.033 253.735 682.94C254.309 682.647 254.882 682.433 255.455 682.3C256.042 682.167 256.595 682.1 257.115 682.1C258.369 682.1 259.295 682.407 259.895 683.02C260.509 683.633 260.815 684.587 260.815 685.88V691.3C260.815 691.86 260.569 692.14 260.075 692.14C259.555 692.14 259.295 691.86 259.295 691.3V690.32C259.042 690.893 258.649 691.347 258.115 691.68C257.595 692.013 256.982 692.18 256.275 692.18ZM256.535 690.96C257.335 690.96 257.989 690.687 258.495 690.14C259.002 689.58 259.255 688.873 259.255 688.02V687.42H258.635C257.555 687.42 256.702 687.473 256.075 687.58C255.462 687.673 255.029 687.847 254.775 688.1C254.535 688.34 254.415 688.673 254.415 689.1C254.415 689.647 254.602 690.093 254.975 690.44C255.362 690.787 255.882 690.96 256.535 690.96ZM266.781 692.18C265.821 692.18 265.087 691.893 264.581 691.32C264.074 690.733 263.821 689.887 263.821 688.78V678.58C263.821 678.033 264.087 677.76 264.621 677.76C265.167 677.76 265.441 678.033 265.441 678.58V688.66C265.441 690.087 266.007 690.8 267.141 690.8C267.261 690.8 267.367 690.793 267.461 690.78C267.554 690.767 267.647 690.76 267.741 690.76C267.887 690.747 267.987 690.78 268.041 690.86C268.107 690.94 268.141 691.1 268.141 691.34C268.141 691.793 267.914 692.053 267.461 692.12C267.354 692.147 267.241 692.16 267.121 692.16C267.001 692.173 266.887 692.18 266.781 692.18ZM270.539 679.94C269.832 679.94 269.479 679.607 269.479 678.94C269.479 678.287 269.832 677.96 270.539 677.96C271.245 677.96 271.599 678.287 271.599 678.94C271.599 679.607 271.245 679.94 270.539 679.94ZM270.539 692.1C270.005 692.1 269.739 691.807 269.739 691.22V683.04C269.739 682.467 270.005 682.18 270.539 682.18C271.085 682.18 271.359 682.467 271.359 683.04V691.22C271.359 691.807 271.085 692.1 270.539 692.1ZM282.207 695.74C281.661 695.74 281.387 695.467 281.387 694.92V690.3C281.107 690.873 280.674 691.333 280.087 691.68C279.514 692.013 278.847 692.18 278.087 692.18C277.221 692.18 276.461 691.973 275.807 691.56C275.167 691.147 274.667 690.567 274.307 689.82C273.961 689.06 273.787 688.167 273.787 687.14C273.787 686.1 273.961 685.207 274.307 684.46C274.667 683.7 275.167 683.12 275.807 682.72C276.461 682.307 277.221 682.1 278.087 682.1C278.847 682.1 279.514 682.273 280.087 682.62C280.674 682.953 281.114 683.413 281.407 684V682.96C281.407 682.413 281.674 682.14 282.207 682.14C282.741 682.14 283.007 682.413 283.007 682.96V694.92C283.007 695.467 282.741 695.74 282.207 695.74ZM278.427 690.88C279.334 690.88 280.061 690.56 280.607 689.92C281.154 689.267 281.427 688.34 281.427 687.14C281.427 685.927 281.154 685 280.607 684.36C280.061 683.72 279.334 683.4 278.427 683.4C277.507 683.4 276.774 683.72 276.227 684.36C275.694 685 275.427 685.927 275.427 687.14C275.427 688.34 275.694 689.267 276.227 689.92C276.774 690.56 277.507 690.88 278.427 690.88ZM289.487 692.18C287.154 692.18 285.987 690.893 285.987 688.32V682.96C285.987 682.413 286.254 682.14 286.787 682.14C287.334 682.14 287.607 682.413 287.607 682.96V688.3C287.607 689.167 287.781 689.807 288.127 690.22C288.487 690.633 289.047 690.84 289.807 690.84C290.634 690.84 291.307 690.567 291.827 690.02C292.347 689.46 292.607 688.72 292.607 687.8V682.96C292.607 682.413 292.881 682.14 293.427 682.14C293.961 682.14 294.227 682.413 294.227 682.96V691.3C294.227 691.86 293.967 692.14 293.447 692.14C292.914 692.14 292.647 691.86 292.647 691.3V690.36C292.341 690.947 291.907 691.4 291.347 691.72C290.801 692.027 290.181 692.18 289.487 692.18ZM300.318 692.18C299.652 692.18 299.052 692.053 298.518 691.8C297.998 691.533 297.585 691.173 297.278 690.72C296.972 690.267 296.818 689.76 296.818 689.2C296.818 688.493 296.998 687.933 297.358 687.52C297.732 687.107 298.338 686.813 299.178 686.64C300.032 686.453 301.192 686.36 302.658 686.36H303.298V685.74C303.298 684.913 303.125 684.32 302.778 683.96C302.445 683.587 301.905 683.4 301.158 683.4C300.692 683.4 300.218 683.46 299.738 683.58C299.272 683.7 298.785 683.893 298.278 684.16C298.052 684.28 297.858 684.307 297.698 684.24C297.552 684.16 297.445 684.04 297.378 683.88C297.325 683.707 297.325 683.533 297.378 683.36C297.445 683.173 297.578 683.033 297.778 682.94C298.352 682.647 298.925 682.433 299.498 682.3C300.085 682.167 300.638 682.1 301.158 682.1C302.412 682.1 303.338 682.407 303.938 683.02C304.552 683.633 304.858 684.587 304.858 685.88V691.3C304.858 691.86 304.612 692.14 304.118 692.14C303.598 692.14 303.338 691.86 303.338 691.3V690.32C303.085 690.893 302.692 691.347 302.158 691.68C301.638 692.013 301.025 692.18 300.318 692.18ZM300.578 690.96C301.378 690.96 302.032 690.687 302.538 690.14C303.045 689.58 303.298 688.873 303.298 688.02V687.42H302.678C301.598 687.42 300.745 687.473 300.118 687.58C299.505 687.673 299.072 687.847 298.818 688.1C298.578 688.34 298.458 688.673 298.458 689.1C298.458 689.647 298.645 690.093 299.018 690.44C299.405 690.787 299.925 690.96 300.578 690.96ZM308.704 692.14C308.17 692.14 307.904 691.86 307.904 691.3V682.96C307.904 682.413 308.164 682.14 308.684 682.14C309.217 682.14 309.484 682.413 309.484 682.96V683.92C309.777 683.333 310.184 682.887 310.704 682.58C311.224 682.26 311.83 682.1 312.524 682.1C314.044 682.1 315.017 682.76 315.444 684.08C315.737 683.467 316.17 682.987 316.744 682.64C317.317 682.28 317.977 682.1 318.724 682.1C320.884 682.1 321.964 683.38 321.964 685.94V691.3C321.964 691.86 321.69 692.14 321.144 692.14C320.61 692.14 320.344 691.86 320.344 691.3V686.02C320.344 685.127 320.184 684.473 319.864 684.06C319.557 683.633 319.044 683.42 318.324 683.42C317.537 683.42 316.91 683.7 316.444 684.26C315.977 684.82 315.744 685.567 315.744 686.5V691.3C315.744 691.86 315.47 692.14 314.924 692.14C314.39 692.14 314.124 691.86 314.124 691.3V686.02C314.124 685.127 313.964 684.473 313.644 684.06C313.337 683.633 312.824 683.42 312.104 683.42C311.304 683.42 310.67 683.7 310.204 684.26C309.75 684.82 309.524 685.567 309.524 686.5V691.3C309.524 691.86 309.25 692.14 308.704 692.14ZM325.773 692.08C325.439 692.08 325.173 691.98 324.973 691.78C324.773 691.567 324.673 691.3 324.673 690.98C324.673 690.66 324.773 690.4 324.973 690.2C325.173 689.987 325.439 689.88 325.773 689.88C326.106 689.88 326.366 689.987 326.553 690.2C326.753 690.4 326.853 690.66 326.853 690.98C326.853 691.3 326.753 691.567 326.553 691.78C326.366 691.98 326.106 692.08 325.773 692.08Z" fill="#100400"/>
<path d="M322.199 302.925H83.5925V376.588H322.199V302.925Z" fill="#F8E6DE"/>
<path d="M346.39 307.461H59.4024C58.0844 307.461 57.0005 306.377 57.0005 305.059C57.0005 304.406 57.2667 303.781 57.7377 303.328L136.171 227.937V195.098C136.173 193.78 137.257 192.697 138.574 192.695H154.054C155.371 192.697 156.454 193.78 156.456 195.098V208.439L162.38 202.745C182.38 183.52 214.228 182.99 234.857 201.54L347.996 303.273C348.502 303.728 348.792 304.378 348.792 305.059C348.792 306.377 347.708 307.461 346.39 307.461Z" fill="#D1B0A2"/>
<path d="M146.58 321.608C154.926 321.608 161.794 328.474 161.794 336.82V357.372H131.368V336.82C131.368 328.474 138.235 321.608 146.58 321.608Z" fill="white"/>
<path d="M202.896 321.874C211.242 321.874 218.109 328.741 218.109 337.087V357.638H187.683V337.087C187.683 328.741 194.55 321.874 202.896 321.874Z" fill="white"/>
<path d="M259.212 322.141C267.557 322.141 274.425 329.008 274.425 337.354V357.905H243.999V337.354C243.999 329.008 250.866 322.141 259.212 322.141Z" fill="white"/>
<path d="M165.531 354.436H126.564V360.842H165.531V354.436Z" fill="#D1B0A2"/>
<path d="M222.647 354.436H183.68V360.842H222.647V354.436Z" fill="#CACACA"/>
<path d="M279.763 354.436H240.796V360.842H279.763V354.436Z" fill="#CACACA"/>
<path d="M290.938 301.826C290.938 302.245 290.932 302.67 290.925 303.089C290.919 303.592 290.906 304.089 290.886 304.593C290.867 305.031 290.847 305.463 290.821 305.895C290.742 307.34 290.618 308.779 290.448 310.225C290.408 310.591 290.363 310.951 290.31 311.317C290.271 311.599 290.232 311.886 290.187 312.174C290.14 312.495 290.094 312.815 290.042 313.136C289.937 313.816 289.82 314.496 289.689 315.177C289.624 315.517 289.559 315.857 289.487 316.197C289.349 316.871 289.198 317.551 289.042 318.225C289.029 318.277 289.016 318.336 289.003 318.388C288.924 318.722 288.846 319.049 288.76 319.383C288.734 319.481 288.715 319.572 288.682 319.671C288.623 319.919 288.557 320.168 288.493 320.416C288.401 320.763 288.309 321.103 288.211 321.45C288.054 321.986 287.897 322.516 287.734 323.052C287.713 323.108 287.696 323.165 287.681 323.222C287.367 324.236 287.034 325.237 286.668 326.231C286.478 326.755 286.275 327.284 286.072 327.808C285.87 328.331 285.66 328.854 285.444 329.371C285.235 329.875 285.019 330.378 284.803 330.876C284.751 330.993 284.698 331.111 284.64 331.229C284.411 331.746 284.175 332.249 283.933 332.753C283.927 332.759 283.927 332.773 283.92 332.779C283.731 333.185 283.527 333.59 283.324 333.989C283.324 334.002 283.32 334.013 283.311 334.022C283.116 334.414 282.913 334.807 282.703 335.193L282.369 335.827L282.33 335.899C281.912 336.678 281.48 337.45 281.022 338.215C280.924 338.385 280.826 338.555 280.728 338.719C280.63 338.889 280.525 339.059 280.42 339.222C280.355 339.34 280.283 339.458 280.204 339.575C280.067 339.798 279.929 340.027 279.786 340.249C279.76 340.295 279.727 340.341 279.701 340.387C279.453 340.772 279.204 341.152 278.955 341.538C278.647 342.002 278.333 342.46 278.014 342.918L270.909 354.287L270.602 354.031L270.517 353.953H270.511L270.229 353.718L269.457 353.063C269.222 353.292 268.993 353.521 268.757 353.744C268.665 353.835 268.568 353.92 268.476 354.012C268.404 354.077 268.338 354.143 268.266 354.208C255.989 366.197 239.644 373.146 222.491 373.668H222.472C209.484 374.025 196.625 370.99 185.168 364.864C184.912 364.733 184.664 364.602 184.415 364.452C182.924 363.641 181.465 362.784 180.032 361.868C180.026 361.861 180.019 361.861 180.012 361.855C178.351 360.677 176.729 359.421 175.146 358.087C157.943 343.586 148.507 321.822 149.682 299.354C149.701 298.915 149.727 298.484 149.759 298.045C149.865 296.462 150.026 294.886 150.243 293.316C150.303 292.878 150.368 292.439 150.433 292.008H290.271C290.546 294.009 290.736 296.021 290.841 298.045C290.906 299.308 290.938 300.564 290.938 301.826Z" fill="#FFD0BB"/>
<path d="M290.271 292.008C285.091 257.56 255.187 231.817 220.352 231.817C185.518 231.817 155.614 257.56 150.433 292.008C150.368 292.439 150.303 292.878 150.243 293.316C150.028 294.886 149.867 296.462 149.759 298.045H290.841C290.736 296.024 290.546 294.011 290.271 292.008Z" fill="#E65319"/>
<path d="M224.933 364.862H184.418V332.452C185.166 317.641 197.825 316.445 209.72 317.24H209.721C218.066 317.24 224.933 324.107 224.933 332.452V364.862Z" fill="#E65319"/>
<path d="M184.415 341.819V341.826C184.415 341.832 184.421 341.832 184.428 341.832L184.415 341.819ZM168.121 292.008C168.094 292.171 168.062 292.335 168.036 292.498C168.062 292.335 168.094 292.171 168.127 292.008H168.121ZM167.309 298.045C167.29 298.294 167.27 298.542 167.257 298.791C167.27 298.542 167.29 298.294 167.316 298.045C167.315 297.999 167.317 297.954 167.323 297.908C167.316 297.954 167.316 297.999 167.309 298.045ZM184.415 341.826C184.415 341.832 184.421 341.832 184.428 341.832L184.415 341.819V341.826ZM168.121 292.008C168.094 292.171 168.062 292.335 168.036 292.498C168.062 292.335 168.094 292.171 168.127 292.008H168.121ZM167.257 298.791C167.27 298.542 167.29 298.294 167.316 298.045C167.315 297.999 167.317 297.954 167.323 297.908C167.316 297.954 167.316 297.999 167.309 298.045C167.29 298.294 167.27 298.542 167.257 298.791ZM369.341 419.123C369.214 418.988 369.079 418.861 368.936 418.744L368.929 418.737L336.537 391.401L335.7 390.695L332.515 388.007L331.716 387.333L327.177 383.5L325.934 382.453L323.364 380.281L322.049 379.169L309.647 368.71L302.536 362.712L301.581 361.907L280.629 344.226C280.95 343.768 281.264 343.31 281.571 342.846C281.821 342.46 282.068 342.081 282.318 341.695C282.343 341.649 282.376 341.603 282.402 341.557C282.546 341.335 282.683 341.106 282.821 340.884C282.899 340.766 282.971 340.648 283.037 340.53C283.142 340.367 283.246 340.197 283.345 340.027C283.443 339.863 283.54 339.693 283.638 339.523C284.097 338.758 284.528 337.986 284.947 337.207L284.986 337.136L285.319 336.501C285.529 336.115 285.731 335.723 285.928 335.33C285.936 335.321 285.941 335.31 285.941 335.297C286.144 334.898 286.346 334.493 286.536 334.087C286.543 334.081 286.543 334.068 286.549 334.061C286.791 333.558 287.027 333.054 287.256 332.537C287.314 332.419 287.367 332.302 287.42 332.184C287.635 331.687 287.851 331.183 288.061 330.679C288.276 330.163 288.485 329.639 288.689 329.116C288.892 328.593 289.094 328.063 289.283 327.54C289.643 326.539 289.981 325.536 290.297 324.531C290.312 324.473 290.329 324.416 290.35 324.361C290.514 323.824 290.67 323.294 290.828 322.758C290.925 322.411 291.017 322.071 291.108 321.724C291.174 321.476 291.239 321.227 291.298 320.979C291.331 320.881 291.35 320.789 291.377 320.691C291.462 320.357 291.54 320.03 291.619 319.697C291.632 319.644 291.645 319.585 291.658 319.533C291.815 318.859 291.966 318.179 292.103 317.505C292.175 317.165 292.24 316.825 292.305 316.485C292.43 315.805 292.554 315.124 292.659 314.444C292.711 314.124 292.757 313.803 292.803 313.483C292.848 313.195 292.888 312.907 292.927 312.626C292.979 312.259 293.025 311.9 293.064 311.533C293.234 310.088 293.359 308.649 293.437 307.203C293.463 306.771 293.483 306.34 293.502 305.901C293.522 305.398 293.535 304.9 293.542 304.397C293.548 303.978 293.555 303.553 293.555 303.134C293.555 301.872 293.522 300.616 293.457 299.354C293.352 297.332 293.162 295.32 292.888 293.316C288.032 257.825 257.386 231.087 221.565 231.087C186.234 231.087 155.865 257.097 150.433 292.008C150.368 292.439 150.302 292.878 150.243 293.316C150.028 294.886 149.867 296.462 149.759 298.045C149.727 298.484 149.701 298.915 149.682 299.354C148.507 321.822 157.943 343.586 175.146 358.087C176.729 359.421 178.351 360.677 180.012 361.855C180.019 361.861 180.026 361.861 180.032 361.868C180.588 362.26 181.144 362.646 181.707 363.026C182.603 363.614 183.505 364.19 184.415 364.739C184.487 364.779 184.559 364.824 184.631 364.864C185.416 365.335 186.208 365.786 186.999 366.224H187.005C189.952 367.844 193.01 369.252 196.157 370.437C205.389 373.91 215.236 375.455 225.089 374.976H225.108C236.607 374.42 247.805 371.106 257.755 365.315C259.2 364.478 260.626 363.582 262.02 362.627C262.366 362.391 262.719 362.149 263.06 361.907C263.478 361.613 263.897 361.305 264.316 360.998C264.322 360.998 264.322 360.991 264.329 360.991C264.36 360.965 264.393 360.941 264.427 360.919C264.708 360.704 264.996 360.488 265.271 360.278C265.343 360.226 265.414 360.174 265.486 360.115C265.505 360.102 265.523 360.086 265.539 360.069C265.702 359.951 265.859 359.82 266.023 359.696C266.186 359.572 266.343 359.441 266.507 359.31C266.535 359.293 266.561 359.273 266.585 359.251C266.769 359.101 266.952 358.957 267.135 358.807C267.325 358.656 267.508 358.499 267.684 358.349C267.867 358.198 268.044 358.048 268.227 357.891C268.384 357.76 268.548 357.623 268.705 357.479C268.757 357.439 268.803 357.394 268.855 357.348C268.875 357.328 268.898 357.311 268.921 357.296C269.136 357.112 269.346 356.923 269.555 356.733C269.608 356.687 269.653 356.641 269.706 356.596C270.026 356.308 270.347 356.02 270.661 355.719C270.733 355.654 270.811 355.582 270.883 355.516C270.955 355.451 271.021 355.386 271.092 355.32C271.184 355.229 271.282 355.143 271.374 355.052C271.609 354.83 271.839 354.601 272.073 354.372L272.845 355.026L273.127 355.261H273.133L273.218 355.34L273.526 355.595L278.091 359.454L278.19 359.539L278.268 359.598L278.785 360.036L279.818 360.913L280.852 361.783L281.003 361.907L285.81 365.963L286.477 366.525L291.115 370.437L315.121 390.695L315.958 391.401L348.815 419.123L357.24 426.233L360.373 428.876C361.57 429.889 363.088 430.445 364.655 430.445C366.607 430.445 368.462 429.582 369.721 428.091C370.192 427.538 370.565 426.91 370.826 426.233C371.795 423.784 371.209 420.979 369.341 419.123ZM179.862 267.491C190.104 255.355 205.199 248.342 221.079 248.342C246.805 248.342 269.127 266.751 274.023 292.008C274.108 292.446 274.187 292.878 274.258 293.316C274.526 294.879 274.723 296.462 274.841 298.045C274.873 298.484 274.906 298.915 274.926 299.354C274.984 300.335 275.01 301.322 275.01 302.304C275.014 308.255 274.029 314.167 272.093 319.795V319.801C269.931 326.112 266.61 331.964 262.301 337.057C262.209 337.162 262.118 337.273 262.02 337.378C261.156 338.398 260.247 339.379 259.312 340.315C259.306 340.321 259.298 340.334 259.293 340.341C258.971 340.661 258.644 340.988 258.317 341.289C257.65 341.937 256.97 342.552 256.276 343.14C255.236 344.05 254.17 344.902 253.078 345.698C252.711 345.966 252.345 346.228 251.972 346.489C251.607 346.751 251.233 347 250.86 347.248C250.115 347.745 249.356 348.223 248.59 348.674C248.211 348.903 247.819 349.126 247.433 349.341C247.047 349.564 246.654 349.773 246.262 349.976C245.869 350.185 245.477 350.388 245.079 350.584C244.286 350.983 243.488 351.356 242.677 351.703C242.272 351.886 241.866 352.056 241.461 352.213C241.205 352.318 240.957 352.422 240.702 352.514C240.602 352.56 240.5 352.6 240.394 352.632C240.257 352.691 240.12 352.743 239.982 352.789C239.938 352.809 239.892 352.827 239.845 352.841C239.564 352.952 239.289 353.05 239.001 353.148C238.589 353.299 238.177 353.436 237.758 353.567C237.34 353.704 236.928 353.835 236.509 353.953C236.09 354.084 235.665 354.202 235.246 354.313C234.821 354.431 234.403 354.542 233.977 354.64C233.526 354.758 233.075 354.862 232.617 354.96C232.218 355.052 231.825 355.13 231.426 355.202C231.054 355.281 230.674 355.346 230.301 355.412C229.778 355.503 229.255 355.588 228.725 355.66C228.437 355.706 228.156 355.745 227.868 355.771C227.744 355.791 227.626 355.804 227.508 355.817C227.142 355.87 226.776 355.909 226.416 355.942C226.318 355.948 226.226 355.961 226.135 355.968C225.736 356.007 225.33 356.04 224.931 356.072C224.074 356.131 223.224 356.17 222.367 356.19C221.935 356.197 221.497 356.203 221.065 356.203C220.633 356.203 220.202 356.197 219.77 356.184C219.77 356.184 219.77 356.19 219.763 356.184C219.757 356.19 219.757 356.19 219.75 356.184C219.749 356.186 219.746 356.186 219.744 356.186C219.742 356.186 219.739 356.186 219.737 356.184C219.716 356.19 219.693 356.19 219.672 356.184C219.364 356.184 219.057 356.17 218.756 356.151C218.534 356.144 218.305 356.138 218.076 356.118C217.769 356.105 217.462 356.085 217.153 356.059C217.055 356.059 216.957 356.046 216.859 356.04C216.813 356.039 216.768 356.034 216.722 356.027C216.408 356 216.087 355.974 215.773 355.942C215.616 355.928 215.453 355.915 215.296 355.896C214.818 355.843 214.341 355.785 213.87 355.719C213.333 355.654 212.797 355.575 212.267 355.477C212.019 355.444 211.777 355.399 211.535 355.353C211.214 355.3 210.894 355.242 210.573 355.176C210.239 355.111 209.906 355.045 209.572 354.967C209.304 354.908 209.029 354.849 208.761 354.784C208.63 354.758 208.499 354.725 208.375 354.692C207.688 354.529 207.008 354.352 206.334 354.156C205.909 354.038 205.484 353.914 205.065 353.783C204.49 353.606 203.921 353.417 203.352 353.214C203.129 353.142 202.913 353.063 202.691 352.978C202.468 352.906 202.253 352.821 202.03 352.736C201.827 352.664 201.625 352.586 201.428 352.507C201.101 352.383 200.781 352.252 200.46 352.121C199.8 351.853 199.152 351.572 198.504 351.271C198.138 351.094 197.772 350.924 197.412 350.748C195.993 350.061 194.595 349.298 193.219 348.458C192.879 348.256 192.539 348.04 192.199 347.824C191.774 347.562 191.361 347.288 190.949 347.013C190.72 346.856 190.498 346.705 190.276 346.548C189.864 346.261 189.458 345.966 189.059 345.672C188.85 345.521 188.64 345.364 188.438 345.207C187.711 344.658 186.998 344.082 186.299 343.494C185.965 343.212 185.631 342.925 185.304 342.63C185.167 342.512 185.03 342.388 184.892 342.264C184.735 342.12 184.578 341.983 184.428 341.832L184.415 341.819C184.186 341.616 183.957 341.4 183.734 341.185C183.388 340.857 183.048 340.524 182.721 340.184C182.38 339.85 182.053 339.503 181.733 339.163C181.406 338.823 181.092 338.477 180.784 338.123C180.47 337.777 180.163 337.423 179.862 337.064C179.568 336.723 179.28 336.37 179.005 336.024C178.338 335.199 177.701 334.36 177.095 333.505C176.814 333.113 176.546 332.72 176.284 332.321C176.003 331.916 175.735 331.504 175.479 331.091C175.211 330.679 174.956 330.261 174.708 329.836C174.702 329.821 174.692 329.808 174.681 329.796C174.191 328.966 173.72 328.128 173.282 327.278C172.83 326.415 172.405 325.543 172.006 324.661C171.803 324.223 171.607 323.778 171.424 323.334C171.044 322.437 170.691 321.541 170.364 320.632C170.201 320.194 170.05 319.756 169.9 319.311C169.895 319.281 169.886 319.253 169.874 319.226C169.573 318.323 169.298 317.414 169.056 316.498C169.049 316.485 169.049 316.472 169.043 316.459C168.919 316.007 168.801 315.556 168.696 315.098C168.592 314.699 168.5 314.3 168.415 313.895C168.317 313.443 168.219 312.992 168.134 312.534C168.088 312.299 168.042 312.063 168.003 311.828C167.964 311.631 167.931 311.429 167.898 311.232C167.865 311.036 167.833 310.833 167.8 310.631C167.735 310.232 167.676 309.833 167.623 309.434C167.558 308.963 167.506 308.492 167.453 308.014C167.394 307.445 167.342 306.876 167.296 306.3C167.264 305.914 167.244 305.522 167.224 305.129C167.205 304.77 167.185 304.41 167.179 304.05C167.172 304.031 167.172 304.01 167.179 303.991C167.177 303.99 167.176 303.987 167.176 303.985C167.176 303.982 167.177 303.98 167.179 303.978C167.172 303.972 167.172 303.972 167.179 303.965C167.177 303.964 167.176 303.961 167.176 303.959C167.176 303.956 167.177 303.954 167.179 303.952C167.172 303.808 167.166 303.664 167.166 303.52C167.152 303.095 167.146 302.67 167.146 302.245C167.146 301.859 167.152 301.479 167.159 301.093C167.172 300.557 167.192 300.021 167.218 299.484C167.218 299.367 167.231 299.255 167.237 299.138C167.244 299.02 167.251 298.909 167.257 298.791C167.27 298.542 167.29 298.294 167.316 298.045C167.315 297.999 167.317 297.954 167.323 297.908C167.342 297.627 167.368 297.345 167.394 297.064C167.447 296.502 167.512 295.932 167.584 295.37C167.623 295.089 167.656 294.807 167.702 294.526C167.728 294.33 167.761 294.127 167.794 293.924C167.82 293.722 167.852 293.519 167.892 293.316C167.937 293.048 167.983 292.773 168.036 292.498C168.062 292.335 168.094 292.171 168.127 292.008C168.251 291.354 168.389 290.7 168.539 290.045C168.69 289.385 168.86 288.731 169.043 288.076C169.219 287.416 169.416 286.755 169.625 286.094C169.723 285.761 169.828 285.434 169.946 285.107C170.161 284.446 170.39 283.792 170.645 283.144C170.763 282.824 170.887 282.497 171.025 282.176C171.287 281.529 171.561 280.881 171.843 280.247C171.986 279.926 172.13 279.606 172.287 279.285C172.582 278.651 172.889 278.016 173.223 277.395C173.543 276.76 173.89 276.139 174.243 275.524C174.596 274.909 174.963 274.294 175.349 273.686C175.525 273.385 175.721 273.077 175.924 272.783C176.317 272.181 176.729 271.58 177.147 270.991C177.992 269.8 178.9 268.629 179.862 267.491ZM167.309 298.045C167.29 298.294 167.27 298.542 167.257 298.791C167.27 298.542 167.29 298.294 167.316 298.045C167.315 297.999 167.317 297.954 167.323 297.908C167.316 297.954 167.316 297.999 167.309 298.045ZM168.121 292.008C168.094 292.171 168.062 292.335 168.036 292.498C168.062 292.335 168.094 292.171 168.127 292.008H168.121ZM184.415 341.819V341.826C184.415 341.832 184.421 341.832 184.428 341.832L184.415 341.819Z" fill="#401707"/>
<path d="M186.3 343.493C164.961 325.486 160.953 293.735 177.147 270.99C176.117 272.028 175.12 273.116 174.157 274.253C165.949 283.98 161.444 296.306 161.444 309.033C161.444 338.62 185.79 362.966 215.376 362.966C231.258 362.966 246.354 355.951 256.596 343.814C257.556 342.676 258.461 341.51 259.309 340.317C239.613 360.107 207.64 361.498 186.3 343.493Z" fill="#1A0902" fill-opacity="0.3"/>
</svg>
