<svg width="428" height="926" viewBox="0 0 428 926" fill="none" xmlns="http://www.w3.org/2000/svg">
<rect width="428" height="926" rx="48" fill="url(#paint0_linear_243_2004)"/>
<path d="M96.9938 532C93.7924 532 91.0773 531.391 88.8485 530.174C86.6197 528.957 84.9177 527.253 83.7425 525.061C82.5673 522.87 82 520.314 82 517.352C82 514.309 82.6079 511.712 83.8236 509.48C84.9988 507.249 86.7413 505.544 89.0106 504.327C91.2799 503.11 93.995 502.501 97.1964 502.501C98.6552 502.501 100.114 502.663 101.573 502.988C103.032 503.313 104.45 503.84 105.787 504.611C106.517 505.017 106.963 505.544 107.125 506.234C107.246 506.924 107.165 507.573 106.882 508.182C106.598 508.831 106.152 509.277 105.504 509.561C104.936 509.845 104.207 509.805 103.356 509.399C101.532 508.466 99.5062 507.979 97.2369 507.979C94.3597 507.979 92.1715 508.79 90.7531 510.373C89.2943 511.996 88.5648 514.309 88.5648 517.352C88.5648 520.395 89.2943 522.708 90.7936 524.29C92.2525 525.873 94.4408 526.644 97.318 526.644C98.8579 526.644 100.479 526.4 102.181 525.914V520.314H98.5337C96.8722 520.314 96.0212 519.543 96.0212 518.042C96.0212 516.54 96.8722 515.769 98.5337 515.769H104.896C106.557 515.769 107.368 516.622 107.368 518.285V527.699C107.368 528.389 107.246 528.997 106.963 529.484C106.679 529.971 106.193 530.336 105.585 530.539C104.369 530.986 102.991 531.31 101.492 531.594C99.9925 531.878 98.4931 532 96.9938 532Z" fill="#FFFDFC"/>
<path d="M126.168 532C123.372 532 120.9 531.391 118.793 530.133C116.645 528.916 115.024 527.212 113.849 524.98C112.674 522.789 112.066 520.192 112.066 517.23C112.066 514.268 112.674 511.671 113.849 509.44C115.024 507.248 116.645 505.544 118.752 504.327C120.859 503.11 123.331 502.501 126.168 502.501C129.005 502.501 131.477 503.11 133.624 504.327C135.732 505.544 137.393 507.248 138.568 509.44C139.743 511.671 140.311 514.228 140.311 517.19C140.311 520.152 139.743 522.749 138.568 524.98C137.393 527.212 135.732 528.916 133.624 530.133C131.477 531.391 129.005 532 126.168 532ZM126.168 526.644C128.559 526.644 130.383 525.832 131.76 524.128C133.098 522.465 133.746 520.192 133.746 517.23C133.746 514.268 133.098 511.955 131.76 510.292C130.423 508.669 128.559 507.857 126.168 507.857C123.818 507.857 121.994 508.669 120.657 510.292C119.32 511.955 118.631 514.268 118.631 517.23C118.631 520.192 119.32 522.465 120.657 524.128C121.994 525.832 123.818 526.644 126.168 526.644Z" fill="#FFFDFC"/>
<path d="M158.425 532C155.629 532 153.157 531.391 151.05 530.133C148.902 528.916 147.281 527.212 146.106 524.98C144.931 522.789 144.323 520.192 144.323 517.23C144.323 514.268 144.931 511.671 146.106 509.44C147.281 507.248 148.902 505.544 151.009 504.327C153.116 503.11 155.588 502.501 158.425 502.501C161.262 502.501 163.734 503.11 165.881 504.327C167.989 505.544 169.65 507.248 170.825 509.44C172 511.671 172.568 514.228 172.568 517.19C172.568 520.152 172 522.749 170.825 524.98C169.65 527.212 167.989 528.916 165.881 530.133C163.734 531.391 161.262 532 158.425 532ZM158.425 526.644C160.816 526.644 162.639 525.832 164.017 524.128C165.355 522.465 166.003 520.192 166.003 517.23C166.003 514.268 165.355 511.955 164.017 510.292C162.68 508.669 160.816 507.857 158.425 507.857C156.075 507.857 154.251 508.669 152.914 510.292C151.576 511.955 150.888 514.268 150.888 517.23C150.888 520.192 151.576 522.465 152.914 524.128C154.251 525.832 156.075 526.644 158.425 526.644Z" fill="#FFFDFC"/>
<path d="M180.713 531.553C178.525 531.553 177.43 530.458 177.43 528.267V506.234C177.43 504.043 178.525 502.947 180.713 502.947H188.615C193.478 502.947 197.247 504.164 199.921 506.64C202.596 509.115 203.933 512.645 203.933 517.23C203.933 521.815 202.596 525.345 199.921 527.82C197.247 530.295 193.478 531.553 188.615 531.553H180.713ZM183.712 526.4H188.25C194.329 526.4 197.368 523.357 197.368 517.23C197.368 511.143 194.329 508.1 188.25 508.1H183.712V526.4Z" fill="#FFFDFC"/>
<path d="M219.007 532C217.265 532 215.563 531.797 213.82 531.432C212.078 531.067 210.578 530.499 209.322 529.768C208.552 529.362 208.106 528.794 207.904 528.105C207.701 527.415 207.742 526.766 208.025 526.116C208.309 525.467 208.714 525.021 209.322 524.737C209.93 524.453 210.619 524.534 211.47 524.94C212.564 525.548 213.739 526.035 215.077 526.319C216.414 526.603 217.711 526.766 219.007 526.766C220.952 526.766 222.371 526.441 223.222 525.832C224.073 525.224 224.478 524.493 224.478 523.56C224.478 522.789 224.194 522.14 223.587 521.694C222.979 521.247 221.966 520.841 220.466 520.517L215.887 519.543C210.781 518.447 208.228 515.81 208.228 511.59C208.228 509.764 208.714 508.182 209.687 506.802C210.659 505.463 212.037 504.408 213.78 503.637C215.482 502.866 217.508 502.501 219.818 502.501C221.317 502.501 222.817 502.663 224.275 503.029C225.734 503.394 227.031 503.962 228.125 504.652C228.814 505.057 229.219 505.585 229.381 506.234C229.544 506.883 229.503 507.492 229.26 508.101C228.976 508.709 228.571 509.115 227.963 509.358C227.355 509.602 226.585 509.521 225.694 509.074C224.802 508.628 223.87 508.263 222.857 508.06C221.844 507.857 220.831 507.735 219.777 507.735C218.075 507.735 216.779 508.06 215.847 508.709C214.914 509.399 214.428 510.251 214.428 511.306C214.428 512.077 214.712 512.726 215.279 513.213C215.847 513.7 216.819 514.106 218.237 514.39L222.817 515.364C228.044 516.5 230.678 519.056 230.678 523.073C230.678 524.858 230.192 526.4 229.26 527.739C228.287 529.078 226.95 530.133 225.167 530.864C223.465 531.635 221.398 532 219.007 532Z" fill="#FFFDFC"/>
<path d="M237.93 531.918C236.917 531.918 236.106 531.634 235.58 531.066C235.053 530.498 234.769 529.686 234.769 528.672V505.828C234.769 503.677 235.823 502.581 237.93 502.581C239.997 502.581 241.05 503.677 241.05 505.828V514.43H254.342V505.828C254.342 503.677 255.396 502.581 257.462 502.581C259.57 502.581 260.623 503.677 260.623 505.828V528.672C260.623 529.686 260.339 530.498 259.813 531.066C259.286 531.634 258.475 531.918 257.462 531.918C256.449 531.918 255.679 531.634 255.152 531.066C254.626 530.498 254.342 529.686 254.342 528.672V519.664H241.05V528.672C241.05 530.822 239.997 531.918 237.93 531.918Z" fill="#FFFDFC"/>
<path d="M267.193 531.918C266.058 531.918 265.247 531.553 264.761 530.782C264.275 530.011 264.275 529.078 264.802 527.982L275.176 505.219C275.622 504.286 276.108 503.636 276.716 503.19C277.324 502.784 278.012 502.581 278.782 502.581C279.552 502.581 280.241 502.784 280.849 503.19C281.457 503.636 281.943 504.286 282.348 505.219L292.804 527.982C293.33 529.118 293.33 530.051 292.885 530.782C292.398 531.553 291.628 531.918 290.575 531.918C289.643 531.918 288.954 531.715 288.468 531.269C287.941 530.822 287.495 530.173 287.13 529.24L285.428 525.345H272.096L270.434 529.24C270.029 530.173 269.583 530.863 269.138 531.269C268.692 531.715 268.044 531.918 267.193 531.918ZM278.701 509.642L274.203 520.435H283.362L278.782 509.642H278.701Z" fill="#FFFDFC"/>
<path d="M300.06 531.918C299.047 531.918 298.236 531.634 297.71 531.066C297.183 530.498 296.899 529.687 296.899 528.672V506.153C296.899 504.002 297.953 502.947 300.1 502.947H309.948C313.149 502.947 315.58 503.718 317.323 505.26C319.066 506.802 319.917 508.952 319.917 511.712C319.917 513.862 319.349 515.607 318.296 517.027C317.201 518.447 315.621 519.421 313.595 519.948C315.013 520.395 316.188 521.409 317.12 523.073L319.633 527.739C320.2 528.753 320.322 529.727 319.957 530.579C319.592 531.472 318.741 531.918 317.404 531.918C316.513 531.918 315.783 531.716 315.216 531.35C314.648 530.985 314.162 530.377 313.757 529.606L309.867 522.424C309.461 521.653 308.975 521.166 308.367 520.882C307.759 520.598 307.071 520.476 306.26 520.476H303.18V528.672C303.18 529.687 302.937 530.498 302.37 531.066C301.883 531.634 301.073 531.918 300.06 531.918ZM303.18 515.931H308.813C312.176 515.931 313.878 514.592 313.878 511.874C313.878 509.196 312.176 507.857 308.813 507.857H303.18V515.931Z" fill="#FFFDFC"/>
<path d="M328.385 531.553C326.197 531.553 325.103 530.458 325.103 528.267V506.234C325.103 504.043 326.197 502.947 328.385 502.947H342.528C344.19 502.947 345 503.759 345 505.382C345 507.045 344.19 507.857 342.528 507.857H331.1V514.552H341.596C343.258 514.552 344.109 515.363 344.109 517.027C344.109 518.691 343.258 519.502 341.596 519.502H331.1V526.644H342.528C344.19 526.644 345 527.455 345 529.078C345 530.742 344.19 531.553 342.528 531.553H328.385Z" fill="#FFFDFC"/>
<path d="M245.43 486H181.5C173.767 485.966 167.511 479.689 167.494 471.945V424.442C167.525 419.313 170.344 414.608 174.85 412.167L206.753 394.707C210.928 392.431 215.971 392.431 220.146 394.707L252.142 412.075C256.646 414.516 259.466 419.221 259.497 424.35V471.945C259.48 479.713 253.187 486 245.43 486ZM213.465 399.125C212.149 399.124 210.853 399.451 209.695 400.077L177.7 417.476C175.172 418.878 173.609 421.549 173.624 424.442V471.945C173.624 476.318 177.163 479.863 181.531 479.863H245.43C249.785 479.846 253.306 476.306 253.306 471.945V424.442C253.308 421.536 251.72 418.862 249.169 417.476L217.235 400.108C216.08 399.471 214.784 399.133 213.465 399.125Z" fill="#FFFDFC"/>
<path d="M250.672 414.778L218.707 397.408C215.439 395.629 211.494 395.629 208.226 397.408L176.26 414.778C172.736 416.711 170.548 420.42 170.56 424.443V471.947C170.56 478.014 175.472 482.933 181.532 482.933H245.431C251.479 482.916 256.372 478.002 256.372 471.947V424.443C256.384 420.42 254.196 416.711 250.672 414.778ZM231.517 457.739C229.839 466.393 222.27 472.641 213.466 472.641C204.662 472.641 197.093 466.393 195.415 457.739C195.28 456.849 195.543 455.944 196.132 455.265C196.722 454.586 197.581 454.2 198.48 454.21C199.988 454.188 201.288 455.268 201.544 456.757C202.734 462.442 207.741 466.515 213.543 466.515C219.344 466.515 224.351 462.442 225.542 456.757C225.798 455.268 227.098 454.188 228.606 454.21C229.46 454.246 230.259 454.638 230.812 455.291C231.365 455.943 231.621 456.797 231.517 457.647V457.739Z" fill="#FFFDFC"/>
<path d="M96.29 862.18C94.97 862.18 93.836 861.916 92.888 861.388C91.952 860.848 91.232 860.092 90.728 859.12C90.224 858.136 89.972 856.978 89.972 855.646C89.972 854.314 90.224 853.162 90.728 852.19C91.232 851.218 91.952 850.468 92.888 849.94C93.836 849.4 94.97 849.13 96.29 849.13C96.95 849.13 97.598 849.214 98.234 849.382C98.87 849.55 99.428 849.79 99.908 850.102C100.22 850.306 100.406 850.552 100.466 850.84C100.526 851.116 100.49 851.374 100.358 851.614C100.226 851.842 100.028 851.998 99.764 852.082C99.5 852.154 99.206 852.082 98.882 851.866C98.51 851.626 98.108 851.452 97.676 851.344C97.244 851.236 96.806 851.182 96.362 851.182C95.078 851.182 94.1 851.572 93.428 852.352C92.756 853.12 92.42 854.218 92.42 855.646C92.42 857.074 92.756 858.178 93.428 858.958C94.1 859.738 95.078 860.128 96.362 860.128C96.818 860.128 97.268 860.074 97.712 859.966C98.156 859.846 98.576 859.666 98.972 859.426C99.296 859.222 99.584 859.156 99.836 859.228C100.088 859.3 100.274 859.45 100.394 859.678C100.526 859.894 100.568 860.134 100.52 860.398C100.472 860.662 100.31 860.896 100.034 861.1C99.554 861.448 98.978 861.718 98.306 861.91C97.646 862.09 96.974 862.18 96.29 862.18ZM105.786 862.18C104.874 862.18 104.082 861.994 103.41 861.622C102.738 861.25 102.216 860.722 101.844 860.038C101.472 859.342 101.286 858.526 101.286 857.59C101.286 856.654 101.472 855.844 101.844 855.16C102.216 854.476 102.738 853.948 103.41 853.576C104.082 853.204 104.874 853.018 105.786 853.018C106.698 853.018 107.49 853.204 108.162 853.576C108.834 853.948 109.356 854.476 109.728 855.16C110.1 855.844 110.286 856.654 110.286 857.59C110.286 858.526 110.1 859.342 109.728 860.038C109.356 860.722 108.834 861.25 108.162 861.622C107.49 861.994 106.698 862.18 105.786 862.18ZM105.786 860.47C106.458 860.47 106.998 860.23 107.406 859.75C107.814 859.258 108.018 858.538 108.018 857.59C108.018 856.63 107.814 855.916 107.406 855.448C106.998 854.968 106.458 854.728 105.786 854.728C105.114 854.728 104.574 854.968 104.166 855.448C103.758 855.916 103.554 856.63 103.554 857.59C103.554 858.538 103.758 859.258 104.166 859.75C104.574 860.23 105.114 860.47 105.786 860.47ZM113.259 865.384C112.515 865.384 112.143 865.006 112.143 864.25V854.188C112.143 853.432 112.509 853.054 113.241 853.054C113.985 853.054 114.357 853.432 114.357 854.188V854.566C114.609 854.098 114.987 853.726 115.491 853.45C115.995 853.162 116.571 853.018 117.219 853.018C117.987 853.018 118.659 853.204 119.235 853.576C119.823 853.948 120.279 854.476 120.603 855.16C120.927 855.832 121.089 856.642 121.089 857.59C121.089 858.526 120.927 859.342 120.603 860.038C120.279 860.722 119.829 861.25 119.253 861.622C118.677 861.994 117.999 862.18 117.219 862.18C116.595 862.18 116.031 862.048 115.527 861.784C115.035 861.508 114.657 861.142 114.393 860.686V864.25C114.393 865.006 114.015 865.384 113.259 865.384ZM116.589 860.47C117.261 860.47 117.801 860.23 118.209 859.75C118.617 859.258 118.821 858.538 118.821 857.59C118.821 856.63 118.617 855.916 118.209 855.448C117.801 854.968 117.261 854.728 116.589 854.728C115.917 854.728 115.377 854.968 114.969 855.448C114.561 855.916 114.357 856.63 114.357 857.59C114.357 858.538 114.561 859.258 114.969 859.75C115.377 860.23 115.917 860.47 116.589 860.47ZM124.992 865.384C124.584 865.384 124.302 865.234 124.146 864.934C123.99 864.634 123.996 864.292 124.164 863.908L125.19 861.64L122.112 854.548C121.944 854.152 121.944 853.804 122.112 853.504C122.28 853.204 122.61 853.054 123.102 853.054C123.378 853.054 123.6 853.12 123.768 853.252C123.936 853.372 124.086 853.606 124.218 853.954L126.378 859.354L128.592 853.936C128.724 853.6 128.88 853.372 129.06 853.252C129.24 853.12 129.48 853.054 129.78 853.054C130.164 853.054 130.434 853.204 130.59 853.504C130.746 853.804 130.74 854.146 130.572 854.53L126.198 864.52C126.042 864.856 125.874 865.084 125.694 865.204C125.514 865.324 125.28 865.384 124.992 865.384ZM133.386 862.144C132.618 862.144 132.234 861.76 132.234 860.992V854.188C132.234 853.432 132.6 853.054 133.332 853.054C134.064 853.054 134.43 853.432 134.43 854.188V854.746C134.862 853.714 135.786 853.138 137.202 853.018C137.718 852.958 138.006 853.252 138.066 853.9C138.126 854.536 137.814 854.89 137.13 854.962L136.734 854.998C135.258 855.142 134.52 855.898 134.52 857.266V860.992C134.52 861.76 134.142 862.144 133.386 862.144ZM140.399 851.398C139.979 851.398 139.649 851.296 139.409 851.092C139.181 850.876 139.067 850.582 139.067 850.21C139.067 849.826 139.181 849.532 139.409 849.328C139.649 849.124 139.979 849.022 140.399 849.022C141.287 849.022 141.731 849.418 141.731 850.21C141.731 851.002 141.287 851.398 140.399 851.398ZM140.399 862.126C140.039 862.126 139.763 862.018 139.571 861.802C139.379 861.586 139.283 861.286 139.283 860.902V854.296C139.283 853.48 139.655 853.072 140.399 853.072C141.155 853.072 141.533 853.48 141.533 854.296V860.902C141.533 861.286 141.437 861.586 141.245 861.802C141.053 862.018 140.771 862.126 140.399 862.126ZM147.975 865.42C147.327 865.42 146.697 865.36 146.085 865.24C145.485 865.12 144.939 864.934 144.447 864.682C144.159 864.538 143.985 864.352 143.925 864.124C143.877 863.908 143.901 863.698 143.997 863.494C144.093 863.29 144.237 863.14 144.429 863.044C144.633 862.96 144.849 862.972 145.077 863.08C145.605 863.344 146.103 863.512 146.571 863.584C147.051 863.668 147.459 863.71 147.795 863.71C149.403 863.71 150.207 862.936 150.207 861.388V860.182C149.955 860.674 149.565 861.064 149.037 861.352C148.521 861.64 147.945 861.784 147.309 861.784C146.517 861.784 145.827 861.604 145.239 861.244C144.651 860.872 144.195 860.356 143.871 859.696C143.547 859.036 143.385 858.268 143.385 857.392C143.385 856.516 143.547 855.754 143.871 855.106C144.195 854.446 144.651 853.936 145.239 853.576C145.827 853.204 146.517 853.018 147.309 853.018C147.945 853.018 148.521 853.156 149.037 853.432C149.553 853.708 149.931 854.086 150.171 854.566V854.188C150.171 853.816 150.267 853.534 150.459 853.342C150.663 853.15 150.939 853.054 151.287 853.054C152.031 853.054 152.403 853.432 152.403 854.188V861.118C152.403 862.546 152.025 863.62 151.269 864.34C150.513 865.06 149.415 865.42 147.975 865.42ZM147.921 860.074C148.617 860.074 149.169 859.834 149.577 859.354C149.985 858.874 150.189 858.22 150.189 857.392C150.189 856.564 149.985 855.916 149.577 855.448C149.169 854.968 148.617 854.728 147.921 854.728C147.225 854.728 146.673 854.968 146.265 855.448C145.857 855.916 145.653 856.564 145.653 857.392C145.653 858.22 145.857 858.874 146.265 859.354C146.673 859.834 147.225 860.074 147.921 860.074ZM155.85 862.144C155.106 862.144 154.734 861.76 154.734 860.992V850.3C154.734 849.544 155.106 849.166 155.85 849.166C156.606 849.166 156.984 849.544 156.984 850.3V854.476C157.284 853.996 157.686 853.636 158.19 853.396C158.694 853.144 159.252 853.018 159.864 853.018C161.94 853.018 162.978 854.224 162.978 856.636V860.992C162.978 861.76 162.606 862.144 161.862 862.144C161.106 862.144 160.728 861.76 160.728 860.992V856.744C160.728 856.06 160.596 855.562 160.332 855.25C160.08 854.938 159.684 854.782 159.144 854.782C158.484 854.782 157.956 854.992 157.56 855.412C157.176 855.82 156.984 856.366 156.984 857.05V860.992C156.984 861.76 156.606 862.144 155.85 862.144ZM169.296 862.18C166.968 862.18 165.804 861.028 165.804 858.724V854.89H164.868C164.268 854.89 163.968 854.608 163.968 854.044C163.968 853.48 164.268 853.198 164.868 853.198H165.804V851.56C165.804 850.804 166.182 850.426 166.938 850.426C167.682 850.426 168.054 850.804 168.054 851.56V853.198H169.962C170.562 853.198 170.862 853.48 170.862 854.044C170.862 854.608 170.562 854.89 169.962 854.89H168.054V858.598C168.054 859.174 168.18 859.606 168.432 859.894C168.684 860.182 169.092 860.326 169.656 860.326C169.86 860.326 170.04 860.308 170.196 860.272C170.352 860.236 170.49 860.212 170.61 860.2C170.754 860.188 170.874 860.236 170.97 860.344C171.066 860.44 171.114 860.644 171.114 860.956C171.114 861.196 171.072 861.412 170.988 861.604C170.916 861.784 170.778 861.91 170.574 861.982C170.418 862.03 170.214 862.072 169.962 862.108C169.71 862.156 169.488 862.18 169.296 862.18ZM183.233 862.18C182.309 862.18 181.451 862.018 180.659 861.694C179.867 861.358 179.171 860.896 178.571 860.308C177.983 859.708 177.521 859.012 177.185 858.22C176.861 857.428 176.699 856.57 176.699 855.646C176.699 854.722 176.861 853.864 177.185 853.072C177.521 852.28 177.983 851.59 178.571 851.002C179.171 850.414 179.867 849.958 180.659 849.634C181.451 849.298 182.309 849.13 183.233 849.13C184.157 849.13 185.015 849.298 185.807 849.634C186.599 849.958 187.289 850.414 187.877 851.002C188.465 851.59 188.921 852.28 189.245 853.072C189.581 853.864 189.749 854.722 189.749 855.646C189.749 856.57 189.581 857.428 189.245 858.22C188.921 859.012 188.465 859.708 187.877 860.308C187.289 860.896 186.599 861.358 185.807 861.694C185.015 862.018 184.157 862.18 183.233 862.18ZM183.233 861.226C184.289 861.226 185.231 860.98 186.059 860.488C186.887 859.996 187.541 859.33 188.021 858.49C188.501 857.65 188.741 856.702 188.741 855.646C188.741 854.59 188.501 853.642 188.021 852.802C187.541 851.962 186.887 851.302 186.059 850.822C185.231 850.33 184.289 850.084 183.233 850.084C182.177 850.084 181.229 850.33 180.389 850.822C179.561 851.302 178.907 851.962 178.427 852.802C177.947 853.642 177.707 854.59 177.707 855.646C177.707 856.702 177.947 857.65 178.427 858.49C178.907 859.33 179.561 859.996 180.389 860.488C181.229 860.98 182.177 861.226 183.233 861.226ZM183.557 859.534C182.357 859.534 181.403 859.18 180.695 858.472C179.999 857.764 179.651 856.816 179.651 855.628C179.651 854.428 179.999 853.486 180.695 852.802C181.403 852.118 182.357 851.776 183.557 851.776C183.905 851.776 184.271 851.824 184.655 851.92C185.039 852.004 185.399 852.142 185.735 852.334C185.939 852.454 186.065 852.616 186.113 852.82C186.173 853.012 186.161 853.198 186.077 853.378C186.005 853.558 185.885 853.684 185.717 853.756C185.561 853.828 185.369 853.804 185.141 853.684C184.661 853.42 184.181 853.288 183.701 853.288C183.041 853.288 182.519 853.492 182.135 853.9C181.751 854.308 181.559 854.884 181.559 855.628C181.559 856.372 181.751 856.96 182.135 857.392C182.519 857.812 183.041 858.022 183.701 858.022C184.181 858.022 184.667 857.896 185.159 857.644C185.375 857.536 185.561 857.518 185.717 857.59C185.885 857.662 186.005 857.782 186.077 857.95C186.149 858.118 186.161 858.298 186.113 858.49C186.065 858.67 185.945 858.82 185.753 858.94C185.429 859.132 185.069 859.282 184.673 859.39C184.289 859.486 183.917 859.534 183.557 859.534ZM197.847 862C197.463 862 197.181 861.916 197.001 861.748C196.833 861.568 196.749 861.31 196.749 860.974C196.749 860.77 196.803 860.572 196.911 860.38C197.019 860.188 197.175 859.984 197.379 859.768L200.997 855.916C201.549 855.34 201.945 854.818 202.185 854.35C202.425 853.87 202.545 853.39 202.545 852.91C202.545 851.686 201.807 851.074 200.331 851.074C199.923 851.074 199.515 851.134 199.107 851.254C198.699 851.362 198.285 851.554 197.865 851.83C197.601 852.01 197.355 852.064 197.127 851.992C196.899 851.92 196.725 851.776 196.605 851.56C196.485 851.332 196.443 851.092 196.479 850.84C196.527 850.588 196.683 850.372 196.947 850.192C197.463 849.844 198.039 849.58 198.675 849.4C199.323 849.22 199.971 849.13 200.619 849.13C201.975 849.13 203.013 849.436 203.733 850.048C204.465 850.66 204.831 851.536 204.831 852.676C204.831 853.444 204.645 854.182 204.273 854.89C203.913 855.598 203.343 856.36 202.563 857.176L199.773 860.092H204.471C205.131 860.092 205.461 860.404 205.461 861.028C205.461 861.676 205.131 862 204.471 862H197.847ZM211.646 862.18C210.146 862.18 209 861.616 208.208 860.488C207.416 859.348 207.02 857.728 207.02 855.628C207.02 853.504 207.416 851.89 208.208 850.786C209 849.682 210.146 849.13 211.646 849.13C213.158 849.13 214.304 849.682 215.084 850.786C215.876 851.89 216.272 853.498 216.272 855.61C216.272 857.722 215.876 859.348 215.084 860.488C214.292 861.616 213.146 862.18 211.646 862.18ZM211.646 860.29C212.462 860.29 213.062 859.912 213.446 859.156C213.842 858.4 214.04 857.218 214.04 855.61C214.04 854.002 213.842 852.838 213.446 852.118C213.062 851.386 212.462 851.02 211.646 851.02C210.842 851.02 210.242 851.386 209.846 852.118C209.45 852.838 209.252 854.002 209.252 855.61C209.252 857.218 209.45 858.4 209.846 859.156C210.242 859.912 210.842 860.29 211.646 860.29ZM219.433 862C219.049 862 218.767 861.916 218.587 861.748C218.419 861.568 218.335 861.31 218.335 860.974C218.335 860.77 218.389 860.572 218.497 860.38C218.605 860.188 218.761 859.984 218.965 859.768L222.583 855.916C223.135 855.34 223.531 854.818 223.771 854.35C224.011 853.87 224.131 853.39 224.131 852.91C224.131 851.686 223.393 851.074 221.917 851.074C221.509 851.074 221.101 851.134 220.693 851.254C220.285 851.362 219.871 851.554 219.451 851.83C219.187 852.01 218.941 852.064 218.713 851.992C218.485 851.92 218.311 851.776 218.191 851.56C218.071 851.332 218.029 851.092 218.065 850.84C218.113 850.588 218.269 850.372 218.533 850.192C219.049 849.844 219.625 849.58 220.261 849.4C220.909 849.22 221.557 849.13 222.205 849.13C223.561 849.13 224.599 849.436 225.319 850.048C226.051 850.66 226.417 851.536 226.417 852.676C226.417 853.444 226.231 854.182 225.859 854.89C225.499 855.598 224.929 856.36 224.149 857.176L221.359 860.092H226.057C226.717 860.092 227.047 860.404 227.047 861.028C227.047 861.676 226.717 862 226.057 862H219.433ZM230.64 862C229.98 862 229.65 861.676 229.65 861.028C229.65 860.404 229.98 860.092 230.64 860.092H232.656V851.938L231.126 852.856C230.838 853.024 230.574 853.066 230.334 852.982C230.106 852.898 229.932 852.748 229.812 852.532C229.692 852.316 229.656 852.082 229.704 851.83C229.752 851.566 229.92 851.35 230.208 851.182L232.692 849.688C232.932 849.544 233.172 849.424 233.412 849.328C233.652 849.22 233.874 849.166 234.078 849.166C234.33 849.166 234.54 849.238 234.708 849.382C234.876 849.514 234.96 849.736 234.96 850.048V860.092H236.796C237.456 860.092 237.786 860.404 237.786 861.028C237.786 861.676 237.456 862 236.796 862H230.64ZM251 862.18C249.596 862.18 248.408 861.916 247.436 861.388C246.476 860.86 245.744 860.11 245.24 859.138C244.736 858.166 244.484 857.014 244.484 855.682C244.484 854.338 244.742 853.18 245.258 852.208C245.774 851.224 246.518 850.468 247.49 849.94C248.462 849.4 249.626 849.13 250.982 849.13C251.654 849.13 252.326 849.214 252.998 849.382C253.682 849.538 254.324 849.808 254.924 850.192C255.188 850.348 255.338 850.558 255.374 850.822C255.422 851.074 255.386 851.314 255.266 851.542C255.146 851.77 254.966 851.932 254.726 852.028C254.486 852.112 254.222 852.07 253.934 851.902C253.478 851.638 253.016 851.446 252.548 851.326C252.08 851.206 251.558 851.146 250.982 851.146C249.638 851.146 248.618 851.536 247.922 852.316C247.238 853.096 246.896 854.218 246.896 855.682C246.896 857.158 247.25 858.28 247.958 859.048C248.666 859.816 249.716 860.2 251.108 860.2C251.504 860.2 251.906 860.17 252.314 860.11C252.734 860.038 253.148 859.936 253.556 859.804V856.852H251.576C250.952 856.852 250.64 856.564 250.64 855.988C250.64 855.424 250.952 855.142 251.576 855.142H254.546C255.17 855.142 255.482 855.454 255.482 856.078V860.452C255.482 861.004 255.266 861.358 254.834 861.514C254.306 861.706 253.7 861.868 253.016 862C252.332 862.12 251.66 862.18 251 862.18ZM261.95 862.18C261.038 862.18 260.246 861.994 259.574 861.622C258.902 861.25 258.38 860.722 258.008 860.038C257.636 859.342 257.45 858.526 257.45 857.59C257.45 856.654 257.636 855.844 258.008 855.16C258.38 854.476 258.902 853.948 259.574 853.576C260.246 853.204 261.038 853.018 261.95 853.018C262.862 853.018 263.654 853.204 264.326 853.576C264.998 853.948 265.52 854.476 265.892 855.16C266.264 855.844 266.45 856.654 266.45 857.59C266.45 858.526 266.264 859.342 265.892 860.038C265.52 860.722 264.998 861.25 264.326 861.622C263.654 861.994 262.862 862.18 261.95 862.18ZM261.95 860.47C262.622 860.47 263.162 860.23 263.57 859.75C263.978 859.258 264.182 858.538 264.182 857.59C264.182 856.63 263.978 855.916 263.57 855.448C263.162 854.968 262.622 854.728 261.95 854.728C261.278 854.728 260.738 854.968 260.33 855.448C259.922 855.916 259.718 856.63 259.718 857.59C259.718 858.538 259.922 859.258 260.33 859.75C260.738 860.23 261.278 860.47 261.95 860.47ZM272.321 862.18C271.409 862.18 270.617 861.994 269.945 861.622C269.273 861.25 268.751 860.722 268.379 860.038C268.007 859.342 267.821 858.526 267.821 857.59C267.821 856.654 268.007 855.844 268.379 855.16C268.751 854.476 269.273 853.948 269.945 853.576C270.617 853.204 271.409 853.018 272.321 853.018C273.233 853.018 274.025 853.204 274.697 853.576C275.369 853.948 275.891 854.476 276.263 855.16C276.635 855.844 276.821 856.654 276.821 857.59C276.821 858.526 276.635 859.342 276.263 860.038C275.891 860.722 275.369 861.25 274.697 861.622C274.025 861.994 273.233 862.18 272.321 862.18ZM272.321 860.47C272.993 860.47 273.533 860.23 273.941 859.75C274.349 859.258 274.553 858.538 274.553 857.59C274.553 856.63 274.349 855.916 273.941 855.448C273.533 854.968 272.993 854.728 272.321 854.728C271.649 854.728 271.109 854.968 270.701 855.448C270.293 855.916 270.089 856.63 270.089 857.59C270.089 858.538 270.293 859.258 270.701 859.75C271.109 860.23 271.649 860.47 272.321 860.47ZM282.062 862.18C281.294 862.18 280.616 861.994 280.028 861.622C279.452 861.25 279.002 860.722 278.678 860.038C278.354 859.342 278.192 858.526 278.192 857.59C278.192 856.642 278.354 855.832 278.678 855.16C279.002 854.476 279.452 853.948 280.028 853.576C280.616 853.204 281.294 853.018 282.062 853.018C282.686 853.018 283.25 853.156 283.754 853.432C284.258 853.708 284.636 854.074 284.888 854.53V850.3C284.888 849.544 285.26 849.166 286.004 849.166C286.76 849.166 287.138 849.544 287.138 850.3V860.992C287.138 861.76 286.766 862.144 286.022 862.144C285.278 862.144 284.906 861.76 284.906 860.992V860.614C284.654 861.094 284.276 861.478 283.772 861.766C283.268 862.042 282.698 862.18 282.062 862.18ZM282.692 860.47C283.364 860.47 283.904 860.23 284.312 859.75C284.72 859.258 284.924 858.538 284.924 857.59C284.924 856.63 284.72 855.916 284.312 855.448C283.904 854.968 283.364 854.728 282.692 854.728C282.02 854.728 281.48 854.968 281.072 855.448C280.664 855.916 280.46 856.63 280.46 857.59C280.46 858.538 280.664 859.258 281.072 859.75C281.48 860.23 282.02 860.47 282.692 860.47ZM292.693 862.18C292.177 862.18 291.631 862.126 291.055 862.018C290.479 861.91 289.963 861.724 289.507 861.46C289.255 861.316 289.099 861.142 289.039 860.938C288.979 860.722 288.985 860.524 289.057 860.344C289.141 860.152 289.273 860.014 289.453 859.93C289.645 859.846 289.867 859.864 290.119 859.984C290.599 860.212 291.049 860.374 291.469 860.47C291.889 860.554 292.303 860.596 292.711 860.596C293.287 860.596 293.713 860.5 293.989 860.308C294.277 860.104 294.421 859.84 294.421 859.516C294.421 859.012 294.049 858.688 293.305 858.544L291.505 858.202C289.981 857.914 289.219 857.122 289.219 855.826C289.219 855.25 289.375 854.752 289.687 854.332C290.011 853.912 290.455 853.588 291.019 853.36C291.583 853.132 292.231 853.018 292.963 853.018C294.019 853.018 294.961 853.252 295.789 853.72C296.017 853.84 296.149 854.008 296.185 854.224C296.233 854.428 296.209 854.626 296.113 854.818C296.029 854.998 295.891 855.13 295.699 855.214C295.507 855.286 295.285 855.262 295.033 855.142C294.661 854.95 294.301 854.812 293.953 854.728C293.617 854.644 293.293 854.602 292.981 854.602C292.393 854.602 291.955 854.704 291.667 854.908C291.391 855.112 291.253 855.382 291.253 855.718C291.253 856.246 291.595 856.57 292.279 856.69L294.079 857.032C294.859 857.176 295.447 857.44 295.843 857.824C296.251 858.208 296.455 858.724 296.455 859.372C296.455 860.248 296.113 860.938 295.429 861.442C294.745 861.934 293.833 862.18 292.693 862.18ZM299.376 862.144C298.632 862.144 298.26 861.76 298.26 860.992V850.3C298.26 849.544 298.632 849.166 299.376 849.166C300.132 849.166 300.51 849.544 300.51 850.3V854.476C300.81 853.996 301.212 853.636 301.716 853.396C302.22 853.144 302.778 853.018 303.39 853.018C305.466 853.018 306.504 854.224 306.504 856.636V860.992C306.504 861.76 306.132 862.144 305.388 862.144C304.632 862.144 304.254 861.76 304.254 860.992V856.744C304.254 856.06 304.122 855.562 303.858 855.25C303.606 854.938 303.21 854.782 302.67 854.782C302.01 854.782 301.482 854.992 301.086 855.412C300.702 855.82 300.51 856.366 300.51 857.05V860.992C300.51 861.76 300.132 862.144 299.376 862.144ZM311.687 862.18C311.051 862.18 310.481 862.06 309.977 861.82C309.485 861.568 309.095 861.232 308.807 860.812C308.531 860.392 308.393 859.918 308.393 859.39C308.393 858.742 308.561 858.232 308.897 857.86C309.233 857.476 309.779 857.2 310.535 857.032C311.291 856.864 312.305 856.78 313.577 856.78H314.207V856.402C314.207 855.802 314.075 855.37 313.811 855.106C313.547 854.842 313.103 854.71 312.479 854.71C312.131 854.71 311.753 854.752 311.345 854.836C310.949 854.92 310.529 855.064 310.085 855.268C309.797 855.4 309.557 855.418 309.365 855.322C309.173 855.214 309.041 855.052 308.969 854.836C308.909 854.608 308.921 854.38 309.005 854.152C309.101 853.924 309.287 853.756 309.563 853.648C310.115 853.42 310.643 853.258 311.147 853.162C311.663 853.066 312.131 853.018 312.551 853.018C313.835 853.018 314.789 853.318 315.413 853.918C316.037 854.506 316.349 855.424 316.349 856.672V860.992C316.349 861.76 316.001 862.144 315.305 862.144C314.597 862.144 314.243 861.76 314.243 860.992V860.596C314.039 861.088 313.715 861.478 313.271 861.766C312.827 862.042 312.299 862.18 311.687 862.18ZM312.155 860.632C312.743 860.632 313.229 860.428 313.613 860.02C314.009 859.612 314.207 859.096 314.207 858.472V858.076H313.595C312.467 858.076 311.681 858.166 311.237 858.346C310.805 858.514 310.589 858.826 310.589 859.282C310.589 859.678 310.727 860.002 311.003 860.254C311.279 860.506 311.663 860.632 312.155 860.632ZM319.785 862.144C319.017 862.144 318.633 861.76 318.633 860.992V854.188C318.633 853.432 318.999 853.054 319.731 853.054C320.463 853.054 320.829 853.432 320.829 854.188V854.746C321.261 853.714 322.185 853.138 323.601 853.018C324.117 852.958 324.405 853.252 324.465 853.9C324.525 854.536 324.213 854.89 323.529 854.962L323.133 854.998C321.657 855.142 320.919 855.898 320.919 857.266V860.992C320.919 861.76 320.541 862.144 319.785 862.144ZM329.879 862.18C328.883 862.18 328.025 861.994 327.305 861.622C326.585 861.25 326.027 860.722 325.631 860.038C325.247 859.354 325.055 858.544 325.055 857.608C325.055 856.696 325.241 855.898 325.613 855.214C325.997 854.53 326.519 853.996 327.179 853.612C327.851 853.216 328.613 853.018 329.465 853.018C330.713 853.018 331.697 853.414 332.417 854.206C333.149 854.998 333.515 856.078 333.515 857.446C333.515 857.89 333.227 858.112 332.651 858.112H327.215C327.383 859.684 328.283 860.47 329.915 860.47C330.227 860.47 330.575 860.434 330.959 860.362C331.355 860.278 331.727 860.14 332.075 859.948C332.387 859.768 332.651 859.714 332.867 859.786C333.083 859.846 333.233 859.972 333.317 860.164C333.413 860.356 333.425 860.572 333.353 860.812C333.293 861.04 333.125 861.238 332.849 861.406C332.429 861.67 331.943 861.868 331.391 862C330.851 862.12 330.347 862.18 329.879 862.18ZM329.555 854.548C328.895 854.548 328.361 854.752 327.953 855.16C327.545 855.568 327.299 856.12 327.215 856.816H331.643C331.595 856.084 331.391 855.526 331.031 855.142C330.683 854.746 330.191 854.548 329.555 854.548ZM336.377 862.09C335.969 862.09 335.639 861.964 335.387 861.712C335.147 861.46 335.027 861.136 335.027 860.74C335.027 860.356 335.147 860.044 335.387 859.804C335.639 859.552 335.969 859.426 336.377 859.426C336.797 859.426 337.121 859.552 337.349 859.804C337.589 860.044 337.709 860.356 337.709 860.74C337.709 861.136 337.589 861.46 337.349 861.712C337.121 861.964 336.797 862.09 336.377 862.09Z" fill="#FFFDFC"/>
<defs>
<linearGradient id="paint0_linear_243_2004" x1="214" y1="0" x2="214" y2="926" gradientUnits="userSpaceOnUse">
<stop stop-color="#CC3A00"/>
<stop offset="1" stop-color="#CC3A00" stop-opacity="0.82"/>
</linearGradient>
</defs>
</svg>
