<svg width="40" height="40" viewBox="0 0 40 40" fill="none" xmlns="http://www.w3.org/2000/svg">
<path d="M31.3367 8.65608C29.8624 7.17437 28.1064 5.99956 26.1711 5.20017C24.2357 4.40079 22.1598 3.99283 20.0643 4.0001C11.2844 4.0001 4.12864 11.1201 4.12864 19.856C4.12864 22.656 4.86834 25.376 6.25126 27.776L4 36L12.4422 33.792C14.7739 35.056 17.395 35.728 20.0643 35.728C28.8442 35.728 36 28.608 36 19.872C36 15.6321 34.3437 11.6481 31.3367 8.65608ZM20.0643 33.04C17.6844 33.04 15.3528 32.4 13.3106 31.2L12.8281 30.912L7.81106 32.224L9.14573 27.36L8.82412 26.864C7.5019 24.7632 6.79982 22.3348 6.79799 19.856C6.79799 12.5921 12.7477 6.67209 20.0482 6.67209C23.5859 6.67209 26.9146 8.04808 29.407 10.5441C30.6412 11.7664 31.6192 13.2203 32.2845 14.8215C32.9497 16.4228 33.2889 18.1394 33.2824 19.872C33.3146 27.136 27.3648 33.04 20.0643 33.04ZM27.3327 23.184C26.9307 22.992 24.9688 22.032 24.6151 21.888C24.2452 21.76 23.9879 21.696 23.7146 22.08C23.4412 22.48 22.6854 23.376 22.4603 23.632C22.2352 23.904 21.994 23.936 21.592 23.728C21.1899 23.536 19.9035 23.104 18.392 21.76C17.202 20.704 16.4141 19.408 16.1729 19.008C15.9477 18.6081 16.1407 18.4001 16.3497 18.1921C16.5266 18.0161 16.7518 17.7281 16.9447 17.5041C17.1377 17.2801 17.2181 17.1041 17.3467 16.8481C17.4754 16.5761 17.4111 16.3521 17.3146 16.1601C17.2181 15.9681 16.4141 14.0161 16.0925 13.2161C15.7709 12.4481 15.4332 12.5441 15.192 12.5281H14.4201C14.1467 12.5281 13.7286 12.6241 13.3588 13.0241C13.005 13.4241 11.9759 14.3841 11.9759 16.3361C11.9759 18.2881 13.407 20.176 13.6 20.432C13.793 20.704 16.4141 24.704 20.402 26.416C21.3508 26.832 22.0905 27.072 22.6693 27.248C23.6181 27.552 24.4864 27.504 25.1779 27.408C25.9497 27.296 27.5417 26.448 27.8633 25.52C28.201 24.592 28.201 23.808 28.0884 23.632C27.9759 23.456 27.7347 23.376 27.3327 23.184Z" fill="#35506B"/>
</svg>
