<svg width="40" height="40" viewBox="0 0 40 40" fill="none" xmlns="http://www.w3.org/2000/svg">
<path d="M36 19.6418C36 19.5632 36 19.4739 35.9964 19.3702C35.9929 19.0807 35.9857 18.7554 35.9786 18.4087C35.95 17.4115 35.9 16.4178 35.8214 15.4814C35.7143 14.191 35.5571 13.1152 35.3429 12.3074C35.1167 11.4644 34.6735 10.6955 34.0574 10.0777C33.4413 9.4599 32.674 9.01473 31.8321 8.7867C30.8214 8.51505 28.8429 8.34706 26.0571 8.24341C24.7321 8.19337 23.3143 8.1612 21.8964 8.14333C21.4 8.13618 20.9393 8.1326 20.525 8.12903H19.475C19.0607 8.1326 18.6 8.13618 18.1036 8.14333C16.6857 8.1612 15.2679 8.19337 13.9429 8.24341C11.1571 8.35063 9.175 8.51863 8.16786 8.7867C7.32572 9.01417 6.5581 9.45915 5.94194 10.0771C5.32578 10.695 4.88271 11.4641 4.65714 12.3074C4.43929 13.1152 4.28571 14.191 4.17857 15.4814C4.1 16.4178 4.05 17.4115 4.02143 18.4087C4.01071 18.7554 4.00714 19.0807 4.00357 19.3702C4.00357 19.4739 4 19.5632 4 19.6418V19.842C4 19.9206 4 20.01 4.00357 20.1137C4.00714 20.4032 4.01429 20.7284 4.02143 21.0751C4.05 22.0724 4.1 23.066 4.17857 24.0025C4.28571 25.2928 4.44286 26.3687 4.65714 27.1765C5.11429 28.8886 6.45714 30.2397 8.16786 30.6972C9.175 30.9688 11.1571 31.1368 13.9429 31.2405C15.2679 31.2905 16.6857 31.3227 18.1036 31.3405C18.6 31.3477 19.0607 31.3513 19.475 31.3548H20.525C20.9393 31.3513 21.4 31.3477 21.8964 31.3405C23.3143 31.3227 24.7321 31.2905 26.0571 31.2405C28.8429 31.1332 30.825 30.9652 31.8321 30.6972C33.5429 30.2397 34.8857 28.8921 35.3429 27.1765C35.5607 26.3687 35.7143 25.2928 35.8214 24.0025C35.9 23.066 35.95 22.0724 35.9786 21.0751C35.9893 20.7284 35.9929 20.4032 35.9964 20.1137C35.9964 20.01 36 19.9206 36 19.842V19.6418ZM33.4286 19.8277C33.4286 19.9028 33.4286 19.985 33.425 20.0815C33.4214 20.3603 33.4143 20.6677 33.4071 21.0001C33.3821 21.9508 33.3321 22.9016 33.2571 23.7845C33.1607 24.9354 33.025 25.879 32.8571 26.5117C32.6357 27.3373 31.9857 27.9914 31.1643 28.2094C30.4143 28.4096 28.525 28.5704 25.9571 28.667C24.6571 28.717 23.2571 28.7492 21.8607 28.767C21.3714 28.7742 20.9179 28.7778 20.5107 28.7778H19.4893L18.1393 28.767C16.7429 28.7492 15.3464 28.717 14.0429 28.667C11.475 28.5669 9.58214 28.4096 8.83571 28.2094C8.01429 27.9878 7.36429 27.3373 7.14286 26.5117C6.975 25.879 6.83929 24.9354 6.74286 23.7845C6.66786 22.9016 6.62143 21.9508 6.59286 21.0001C6.58214 20.6677 6.57857 20.3567 6.575 20.0815C6.575 19.985 6.57143 19.8992 6.57143 19.8277V19.6561C6.57143 19.5811 6.57143 19.4989 6.575 19.4024C6.57857 19.1236 6.58571 18.8162 6.59286 18.4838C6.61786 17.533 6.66786 16.5822 6.74286 15.6994C6.83929 14.5485 6.975 13.6049 7.14286 12.9722C7.36429 12.1465 8.01429 11.4924 8.83571 11.2744C9.58571 11.0743 11.475 10.9134 14.0429 10.8169C15.3429 10.7669 16.7429 10.7347 18.1393 10.7168C18.6286 10.7097 19.0821 10.7061 19.4893 10.7061H20.5107L21.8607 10.7168C23.2571 10.7347 24.6536 10.7669 25.9571 10.8169C28.525 10.917 30.4179 11.0743 31.1643 11.2744C31.9857 11.496 32.6357 12.1465 32.8571 12.9722C33.025 13.6049 33.1607 14.5485 33.2571 15.6994C33.3321 16.5822 33.3786 17.533 33.4071 18.4838C33.4179 18.8162 33.4214 19.1271 33.425 19.4024C33.425 19.4989 33.4286 19.5847 33.4286 19.6561V19.8277ZM16.8214 24.5315L25.1071 19.7062L16.8214 14.9524V24.5315Z" fill="#35506B"/>
</svg>
