<svg width="49" height="48" viewBox="0 0 49 48" fill="none" xmlns="http://www.w3.org/2000/svg">
<g clip-path="url(#clip0_24_59164)">
<path d="M21.7048 47.8447C20.9912 47.7596 20.2427 47.6497 20.042 47.6002C19.7468 47.5302 19.4498 47.4677 19.1514 47.4127C18.8106 47.3467 18.4725 47.2675 18.1378 47.1754C16.5834 46.7299 16.472 46.6935 15.3002 46.2142C14.222 45.7747 12.2357 44.748 11.5562 44.2807C11.3702 44.1517 11.1962 44.0479 11.1695 44.0479C11.1429 44.0479 10.7083 43.7419 10.2028 43.368C6.98903 40.9894 4.57628 38.1019 2.8329 34.5454C2.5329 33.9345 2.28803 33.3926 2.28803 33.3416C2.28803 33.2914 2.23403 33.1522 2.16803 33.0352C2.0319 32.7919 1.83803 32.2676 1.68165 31.7257C1.61444 31.4955 1.53623 31.2686 1.44728 31.0459C1.37415 30.8734 1.31528 30.6634 1.31528 30.5786C1.31528 30.4935 1.24215 30.2167 1.1529 29.9617C1.06365 29.7086 0.991652 29.4097 0.991652 29.298C0.991652 29.187 0.921527 28.803 0.834902 28.4445C0.624152 27.5595 0.399902 25.2671 0.399902 23.9824C0.399902 22.6991 0.624152 20.4067 0.834902 19.5221C0.921152 19.1632 0.991652 18.7721 0.991652 18.6521C0.991652 18.5317 1.04603 18.2959 1.11165 18.1271C1.17915 17.9591 1.2654 17.6572 1.30515 17.4566C1.3464 17.256 1.44015 16.9102 1.51628 16.686L1.73753 16.0387C1.8999 15.5539 2.05065 15.1436 2.12265 14.9839C2.1639 14.8946 2.32478 14.5301 2.48153 14.1739C2.73503 13.5982 3.2784 12.5126 3.59603 11.9445C3.7119 11.7364 3.75578 11.6674 4.38278 10.6875C5.37615 9.132 7.07378 7.19662 8.65403 5.817C9.2109 5.33062 11.0713 3.91837 11.1549 3.91837C11.1782 3.91837 11.3537 3.813 11.546 3.684C12.0512 3.34575 12.5465 3.0585 13.1923 2.73487C13.4241 2.62024 13.6536 2.50109 13.8808 2.3775C13.9877 2.316 14.1883 2.22375 15.2184 1.7625C15.4453 1.66125 15.6898 1.569 16.3944 1.32262C16.5497 1.26862 16.8617 1.15425 17.0844 1.07062C17.3087 0.987371 17.5723 0.918371 17.6705 0.918371C17.7673 0.918371 18.0219 0.850871 18.236 0.767621C18.4498 0.683996 18.8379 0.588746 19.1 0.556496C19.361 0.525746 19.7079 0.452621 19.8707 0.395246C20.0319 0.339746 20.4744 0.267746 20.8535 0.235871C21.3476 0.191149 21.8404 0.133003 22.3314 0.0614961C23.3394 -0.0862539 25.5309 -0.0862539 26.5284 0.0614961C26.9995 0.12911 27.4723 0.184753 27.9463 0.228371C28.3037 0.257996 28.7593 0.332621 28.9599 0.394121C29.1605 0.454121 29.5078 0.529121 29.7305 0.556496C29.9533 0.586121 30.3283 0.678371 30.5638 0.763121C30.8 0.849371 31.0678 0.918371 31.16 0.918371C31.2523 0.918371 31.4428 0.969746 31.5819 1.03425C31.7225 1.09725 32.0199 1.20262 32.2442 1.26862C32.4669 1.33612 32.849 1.46925 33.0954 1.5675C33.3399 1.66537 33.668 1.79437 33.8248 1.85287C34.1135 1.96162 36.2473 3.02925 36.5375 3.21112C38.8929 4.68 40.1045 5.63962 41.7335 7.32262C43.6978 9.35287 45.0017 11.2864 46.3288 14.1326C46.4225 14.3336 46.5658 14.631 46.6479 14.7919C46.7285 14.9546 46.796 15.1451 46.796 15.2156C46.796 15.2869 46.8635 15.5006 46.9468 15.6915C47.1725 16.2101 47.3657 16.8004 47.4568 17.2515C47.5018 17.4727 47.5854 17.7465 47.6424 17.8594C47.6998 17.9719 47.7669 18.258 47.7935 18.4924C47.8198 18.7264 47.8974 19.1104 47.9634 19.3432C48.3459 20.6674 48.536 24.5685 48.3047 26.2939C48.236 26.8065 48.1584 27.4264 48.1322 27.6709C48.0879 28.0897 47.8667 29.1724 47.6777 29.9002L47.4827 30.6709C47.1152 32.1547 46.2069 34.2686 45.098 36.2242C44.6585 37.0005 43.1852 39.0997 42.9069 39.3457C42.8818 39.3675 42.7573 39.5145 42.6313 39.6694C42.5053 39.8261 42.101 40.2641 41.735 40.6421C40.1222 42.3075 38.8213 43.3372 36.5375 44.7555C36.2668 44.9239 33.9699 46.0459 33.5405 46.2202C33.3178 46.3095 32.9458 46.4602 32.7144 46.554C32.4845 46.6466 32.228 46.7242 32.1474 46.7257C32.0668 46.7269 31.8545 46.7989 31.6757 46.8851C31.4972 46.9714 31.2699 47.0434 31.169 47.0449C31.0693 47.0464 30.7779 47.1169 30.5214 47.2016C30.2653 47.2879 29.909 47.3805 29.7302 47.4079C29.5517 47.436 29.1695 47.5121 28.8793 47.5766C28.5894 47.6411 27.713 47.7671 26.9342 47.8564C25.1967 48.0592 23.4413 48.0553 21.7048 47.8447ZM23.4684 43.1572C23.5809 43.0695 23.6968 42.8947 23.7275 42.7721C23.795 42.501 34.6903 20.6584 34.8954 20.3846C35.0683 20.1532 35.0844 19.7827 34.9262 19.6522C34.8429 19.5821 33.7997 19.56 31.0149 19.5645C28.9262 19.569 27.17 19.5705 27.1127 19.569C27.0279 19.566 27.0103 18.1702 27.0189 12.192C27.0249 8.13562 27.0058 4.77975 26.9765 4.73325C26.9473 4.686 26.8329 4.64812 26.7215 4.64812C26.5648 4.64812 26.4917 4.71562 26.3953 4.95112C26.2134 5.38912 25.7109 6.38362 23.2648 11.133C22.7567 12.1186 22.2498 13.1049 21.7442 14.0917C21.3107 14.94 20.6267 16.2716 20.2265 17.0505C19.1495 19.1442 18.0748 21.2391 17.0023 23.3351C15.1524 26.9486 14.9285 27.3795 14.849 27.4747C14.6953 27.6607 14.6117 28.0897 14.6983 28.251C14.777 28.3987 14.9342 28.4047 18.8394 28.3987C21.0718 28.3961 22.913 28.4077 22.9322 28.425C22.9835 28.4779 22.9644 42.4162 22.9115 42.7485C22.8767 42.9667 22.8999 43.0822 22.9997 43.182C23.1722 43.3549 23.2194 43.3534 23.4684 43.1572Z" fill="#677E8A"/>
</g>
<defs>
<clipPath id="clip0_24_59164">
<rect width="48" height="48" fill="white" transform="translate(0.399902)"/>
</clipPath>
</defs>
</svg>
