<svg width="49" height="48" viewBox="0 0 49 48" fill="none" xmlns="http://www.w3.org/2000/svg">
<path fill-rule="evenodd" clip-rule="evenodd" d="M18.034 18.834C17.3556 18.834 16.6838 18.9676 16.0571 19.2272C15.4303 19.4869 14.8608 19.8674 14.3811 20.3471C13.9014 20.8268 13.5209 21.3963 13.2613 22.0231C13.0016 22.6498 12.868 23.3216 12.868 24C12.868 24.6784 13.0016 25.3502 13.2613 25.9769C13.5209 26.6037 13.9014 27.1732 14.3811 27.6529C14.8608 28.1326 15.4303 28.5131 16.0571 28.7728C16.6838 29.0324 17.3556 29.166 18.034 29.166H23.2V18.834H18.034ZM23.2 15.834H18.034C16.6636 15.834 15.3494 15.2896 14.3804 14.3206C13.4114 13.3516 12.867 12.0374 12.867 10.667C12.867 9.29663 13.4114 7.98238 14.3804 7.01338C15.3494 6.04438 16.6636 5.5 18.034 5.5H23.2V15.834ZM26.2 5.5V15.834H31.366C32.7188 15.8074 34.0072 15.2513 34.9544 14.2852C35.9017 13.3191 36.4324 12.02 36.4324 10.667C36.4324 9.31397 35.9017 8.0149 34.9544 7.04879C34.0072 6.08269 32.7188 5.52662 31.366 5.5H26.2ZM31.366 18.832C30.01 18.8318 28.7083 19.3648 27.7418 20.316C26.7753 21.2671 26.2215 22.5602 26.2 23.916V24.082C26.2166 25.1 26.5336 26.0904 27.1112 26.9288C27.6888 27.7673 28.5013 28.4163 29.4466 28.7945C30.3919 29.1726 31.4279 29.263 32.4244 29.0543C33.4209 28.8456 34.3335 28.347 35.0476 27.6213C35.7617 26.8956 36.2454 25.9751 36.438 24.9753C36.6307 23.9756 36.5236 22.9412 36.1302 22.0021C35.7369 21.0631 35.0748 20.2612 34.2272 19.6971C33.3795 19.1331 32.3841 18.8321 31.366 18.832ZM18.034 32.166C17.0118 32.1656 16.0124 32.4684 15.1623 33.036C14.3121 33.6036 13.6494 34.4106 13.258 35.3549C12.8665 36.2992 12.7639 37.3384 12.9631 38.341C13.1623 39.3436 13.6543 40.2647 14.377 40.9876C15.0997 41.7106 16.0205 42.203 17.0231 42.4025C18.0256 42.6021 19.0648 42.4999 20.0093 42.1088C20.9537 41.7177 21.761 41.0553 22.3289 40.2054C22.8969 39.3555 23.2 38.3562 23.2 37.334V32.166H18.034Z" fill="#677E8A"/>
</svg>
