<svg width="49" height="48" viewBox="0 0 49 48" fill="none" xmlns="http://www.w3.org/2000/svg">
<g clip-path="url(#clip0_24_59160)">
<path d="M1.0249 0V48H49.0249V0H1.0249ZM27.1472 37.4349C27.1472 42.1063 24.4043 44.2389 20.4083 44.2389C16.798 44.2389 14.7083 42.3754 13.6369 40.1143L17.3123 37.896C18.0203 39.1491 18.6632 40.2103 20.2163 40.2103C21.694 40.2103 22.6369 39.6309 22.6369 37.3714V22.0389H27.1472V37.4349ZM37.8169 44.2389C33.6272 44.2389 30.9169 42.2469 29.5986 39.6309L33.274 37.5103C34.2392 39.0857 35.5026 40.2531 37.7209 40.2531C39.5843 40.2531 40.786 39.3206 40.786 38.0246C40.786 36.4817 39.5638 35.9349 37.4963 35.0246L36.3718 34.5429C33.1146 33.1611 30.9615 31.4143 30.9615 27.7389C30.9615 24.3531 33.5432 21.7817 37.5615 21.7817C40.4329 21.7817 42.49 22.7777 43.9695 25.392L40.4552 27.6429C39.6838 26.2611 38.8472 25.7143 37.5512 25.7143C36.2346 25.7143 35.398 26.5509 35.398 27.6429C35.398 28.9937 36.2346 29.5389 38.1735 30.3857L39.298 30.8674C43.1346 32.5063 45.2878 34.1897 45.2878 37.9594C45.2878 42.0103 42.094 44.2371 37.8186 44.2371L37.8169 44.2389Z" fill="#677E8A"/>
</g>
<defs>
<clipPath id="clip0_24_59160">
<rect width="48" height="48" fill="white" transform="translate(0.899902)"/>
</clipPath>
</defs>
</svg>
