<svg width="41" height="41" viewBox="0 0 41 41" fill="none" xmlns="http://www.w3.org/2000/svg">
<path d="M31.9738 5.40125C32.8578 5.40125 33.7057 5.75243 34.3308 6.37756C34.9559 7.00268 35.3071 7.85052 35.3071 8.73458V32.0679C35.3071 32.952 34.9559 33.7998 34.3308 34.4249C33.7057 35.0501 32.8578 35.4012 31.9738 35.4012H8.64046C7.75641 35.4012 6.90856 35.0501 6.28344 34.4249C5.65832 33.7998 5.30713 32.952 5.30713 32.0679V8.73458C5.30713 7.85052 5.65832 7.00268 6.28344 6.37756C6.90856 5.75243 7.75641 5.40125 8.64046 5.40125H31.9738ZM31.1405 31.2346V22.4012C31.1405 20.9602 30.568 19.5782 29.5491 18.5593C28.5301 17.5403 27.1481 16.9679 25.7071 16.9679C24.2905 16.9679 22.6405 17.8346 21.8405 19.1346V17.2846H17.1905V31.2346H21.8405V23.0179C21.8405 21.7346 22.8738 20.6846 24.1571 20.6846C24.776 20.6846 25.3695 20.9304 25.807 21.368C26.2446 21.8056 26.4905 22.3991 26.4905 23.0179V31.2346H31.1405ZM11.7738 14.6679C12.5164 14.6679 13.2286 14.3729 13.7537 13.8478C14.2788 13.3227 14.5738 12.6105 14.5738 11.8679C14.5738 10.3179 13.3238 9.05125 11.7738 9.05125C11.0268 9.05125 10.3103 9.348 9.78211 9.87623C9.25388 10.4045 8.95713 11.1209 8.95713 11.8679C8.95713 13.4179 10.2238 14.6679 11.7738 14.6679ZM14.0905 31.2346V17.2846H9.4738V31.2346H14.0905Z" fill="#EBF1FF"/>
</svg>
