<svg width="64" height="35" viewBox="0 0 64 35" fill="none" xmlns="http://www.w3.org/2000/svg">
<g clip-path="url(#clip0_24_59094)">
<path fill-rule="evenodd" clip-rule="evenodd" d="M26.3566 29.3327C25.0574 34.038 32.1039 35.9094 33.4697 30.8829C34.1063 28.5396 35.3184 21.2206 34.1361 14.5787C33.3224 10.007 31.3335 5.75661 27.5968 3.0304C25.0827 1.19622 21.7499 -0.000976562 17.3036 -0.000976562C12.3377 -0.000976562 8.75817 1.485 6.15728 3.70561C2.39111 6.92136 0.654417 11.872 0.162858 16.8966C-0.565005 24.3384 1.36642 31.7801 1.36642 31.7801C1.87016 33.718 3.85845 34.8838 5.80341 34.3817C7.74857 33.8799 8.91867 31.899 8.41493 29.9614C8.41493 29.9614 6.80509 23.7807 7.40977 17.6004C7.71782 14.4505 8.53444 11.2296 10.8954 9.21361C12.3791 7.94703 14.4707 7.25351 17.3036 7.25351C19.8763 7.25351 21.8402 7.82175 23.2947 8.88307C25.5114 10.5001 26.4843 13.1338 26.9669 15.8452C27.945 21.3407 26.8905 27.3996 26.3566 29.3327Z" fill="#0077B6"/>
<path fill-rule="evenodd" clip-rule="evenodd" d="M39.6806 26.9439C35.609 25.9296 34.5206 33.0446 38.8687 34.106C40.8957 34.6007 47.1724 35.3742 52.7081 33.8075C56.5183 32.7292 59.9743 30.5017 62.0182 26.6264C63.3933 24.0192 64.172 20.6356 63.8598 16.2158C63.5111 11.2795 62.0027 7.8088 59.9415 5.35425C56.9567 1.80001 52.6467 0.365421 48.3617 0.17292C42.0152 -0.112016 35.8555 2.24652 35.8555 2.24652C34.2514 2.86149 33.4049 4.90665 33.9662 6.81045C34.5273 8.71447 36.2852 9.76087 37.889 9.14592C37.889 9.14592 43.0044 7.18138 48.2751 7.41821C50.9614 7.53878 53.7435 8.16072 55.6147 10.3888C56.7904 11.7891 57.5239 13.8273 57.7229 16.6434C57.9035 19.2007 57.5607 21.1865 56.765 22.6949C55.5527 24.9937 53.3931 26.116 51.1332 26.7556C46.553 28.0518 41.3534 27.3607 39.6806 26.9439Z" fill="#0077B6"/>
</g>
<defs>
<clipPath id="clip0_24_59094">
<rect width="64" height="34.9091" fill="white"/>
</clipPath>
</defs>
</svg>
