<svg width="49" height="48" viewBox="0 0 49 48" fill="none" xmlns="http://www.w3.org/2000/svg">
<path d="M42.56 21.42C43.261 19.7041 43.4952 17.8332 43.239 15.9975C42.9827 14.1617 42.2451 12.4265 41.101 10.9682C39.9569 9.50981 38.4472 8.38032 36.7252 7.69444C35.0032 7.00856 33.1303 6.79074 31.2969 7.06311C30.1607 5.59952 28.6574 4.46265 26.9397 3.76794C25.222 3.07323 23.3511 2.84542 21.5169 3.10764C19.6826 3.36986 17.9505 4.11277 16.4962 5.26094C15.042 6.40912 13.9175 7.92166 13.2369 9.64499C11.4004 9.89637 9.66317 10.6294 8.20177 11.7697C6.74036 12.91 5.60685 14.4168 4.91643 16.137C4.22601 17.8573 4.00329 19.7296 4.27089 21.5638C4.53849 23.398 5.28688 25.1287 6.44001 26.58C5.8773 27.959 5.6144 29.4419 5.66876 30.9303C5.72312 32.4187 6.09351 33.8785 6.75532 35.2128C7.41714 36.547 8.35523 37.7252 9.50732 38.6691C10.6594 39.6131 11.9991 40.3011 13.4375 40.6875C14.3291 40.9315 15.2488 41.0576 16.1731 41.0625C16.6859 41.0618 17.1979 41.0236 17.705 40.9481C18.8415 42.4112 20.3448 43.5475 22.0623 44.2418C23.7799 44.9361 25.6506 45.1636 27.4845 44.9012C29.3184 44.6388 31.0503 43.8958 32.5042 42.7478C33.9582 41.5997 35.0826 40.0874 35.7631 38.3644C37.5996 38.113 39.3369 37.3799 40.7983 36.2396C42.2597 35.0994 43.3932 33.5926 44.0836 31.8723C44.774 30.1521 44.9967 28.2797 44.7291 26.4455C44.4615 24.6113 43.7131 22.8806 42.56 21.4294V21.42ZM34.7844 10.2056C36.6745 10.7109 38.2924 11.9348 39.2928 13.6162C40.2933 15.2976 40.5971 17.3034 40.1394 19.2056C39.9614 19.0864 39.7794 18.9732 39.5938 18.8662L31.25 14.04C31.022 13.9083 30.7633 13.839 30.5 13.839C30.2367 13.839 29.978 13.9083 29.75 14.04L21.5 18.8044V15.3394L29.0938 10.9556C29.9457 10.4608 30.8872 10.1397 31.864 10.011C32.8408 9.88225 33.8333 9.9484 34.7844 10.2056ZM27.5 25.7325L24.5 27.465L21.5 25.7325V22.2675L24.5 20.535L27.5 22.2675V25.7325ZM15.5 13.5C15.5007 12.0337 15.9312 10.5999 16.7382 9.37567C17.5452 8.15148 18.6933 7.19069 20.0406 6.61212C21.3878 6.03355 22.8752 5.86258 24.3186 6.12035C25.762 6.37813 27.0982 7.05334 28.1619 8.06249C27.9744 8.15811 27.7869 8.24999 27.5994 8.36624L19.25 13.1756C19.0222 13.3071 18.833 13.4962 18.7014 13.724C18.5697 13.9517 18.5003 14.2101 18.5 14.4731V24L15.5 22.2675V13.5ZM8.16126 16.2994C9.11696 14.6326 10.6794 13.3993 12.5225 12.8569C12.5084 13.071 12.5009 13.2854 12.5 13.5V23.1337C12.5 23.3971 12.5692 23.6558 12.7009 23.8839C12.8325 24.112 13.0219 24.3014 13.25 24.4331L21.5 29.1956L18.5 30.9375L10.9063 26.5444C9.18372 25.5498 7.9268 23.9116 7.41202 21.9904C6.89724 20.0691 7.16675 18.022 8.16126 16.2994ZM14.2156 37.7944C12.3255 37.2891 10.7076 36.0652 9.70718 34.3838C8.70675 32.7024 8.40296 30.6966 8.86064 28.7944C9.03876 28.9125 9.21876 29.0269 9.40626 29.1337L17.75 33.96C17.978 34.0916 18.2367 34.1609 18.5 34.1609C18.7633 34.1609 19.022 34.0916 19.25 33.96L27.5 29.1956V32.6606L19.9063 37.0444C19.0543 37.5392 18.1128 37.8602 17.136 37.989C16.1593 38.1177 15.1667 38.0516 14.2156 37.7944ZM33.5 34.5C33.5008 35.9667 33.0715 37.4014 32.2653 38.6266C31.4592 39.8518 30.3114 40.8138 28.9641 41.3934C27.6169 41.9731 26.1292 42.145 24.6852 41.8879C23.2413 41.6308 21.9044 40.9559 20.84 39.9469C21.0275 39.8512 21.215 39.75 21.4025 39.6412L29.75 34.8244C29.9778 34.6928 30.167 34.5037 30.2987 34.276C30.4303 34.0483 30.4997 33.7899 30.5 33.5269V24L33.5 25.7325V34.5ZM40.8388 31.7006C39.8831 33.3673 38.3206 34.6006 36.4775 35.1431C36.4906 34.9294 36.5 34.7156 36.5 34.5V24.8662C36.5001 24.6029 36.4308 24.3441 36.2991 24.116C36.1675 23.888 35.9781 23.6985 35.75 23.5669L27.5 18.8044L30.5 17.0719L38.0938 21.4556C39.8163 22.4502 41.0732 24.0883 41.588 26.0096C42.1028 27.9309 41.8333 29.978 40.8388 31.7006Z" fill="#677E8A"/>
</svg>
