<svg width="49" height="48" viewBox="0 0 49 48" fill="none" xmlns="http://www.w3.org/2000/svg">
<g clip-path="url(#clip0_24_59168)">
<mask id="mask0_24_59168" style="mask-type:luminance" maskUnits="userSpaceOnUse" x="0" y="0" width="49" height="48">
<path d="M0.100098 0H48.1001V48H0.100098V0Z" fill="white"/>
</mask>
<g mask="url(#mask0_24_59168)">
<path d="M23.9281 0C11.7401 0 12.5001 5.312 12.5001 5.312L12.5141 10.816H24.1421V12.468H7.9001C7.9001 12.468 0.100098 11.578 0.100098 23.938C0.100098 36.298 6.9061 35.858 6.9061 35.858H10.9661V30.124C10.9661 30.124 10.7481 23.284 17.6661 23.284H29.1981C29.1981 23.284 35.6781 23.388 35.6781 16.988V6.404C35.6781 6.404 36.6621 0 23.9281 0ZM17.5161 3.7C18.6721 3.7 19.6081 4.64 19.6081 5.804C19.6081 6.966 18.6721 7.906 17.5161 7.906C16.3601 7.906 15.4241 6.966 15.4241 5.804C15.4241 4.64 16.3581 3.7 17.5161 3.7Z" fill="#677E8A"/>
<path d="M24.274 48C36.458 48 35.698 42.688 35.698 42.688L35.684 37.184H24.056V35.532H40.302C40.302 35.532 48.102 36.422 48.102 24.062C48.102 11.702 41.294 12.142 41.294 12.142H37.234V17.876C37.234 17.876 37.452 24.716 30.534 24.716H19.004C19.004 24.716 12.524 24.612 12.524 31.012V41.596C12.524 41.596 11.54 48 24.274 48ZM30.686 44.3C29.528 44.3 28.594 43.36 28.594 42.196C28.594 41.034 29.528 40.094 30.686 40.094C31.842 40.094 32.778 41.034 32.778 42.196C32.778 43.36 31.842 44.3 30.686 44.3Z" fill="#677E8A"/>
</g>
</g>
<defs>
<clipPath id="clip0_24_59168">
<rect width="48" height="48" fill="white" transform="translate(0.100098)"/>
</clipPath>
</defs>
</svg>
