<svg width="49" height="48" viewBox="0 0 49 48" fill="none" xmlns="http://www.w3.org/2000/svg">
<path d="M24.6 20.22C26.66 20.22 28.34 21.9 28.34 24C28.34 26 26.66 27.7 24.6 27.7C22.54 27.7 20.86 26 20.86 24C20.86 21.9 22.54 20.22 24.6 20.22ZM15.34 40C16.6 40.76 19.36 39.6 22.54 36.6C21.5 35.42 20.48 34.14 19.52 32.8C17.9084 32.6446 16.3062 32.4043 14.72 32.08C13.7 36.36 14.08 39.3 15.34 40ZM16.76 28.52L16.18 27.5C15.96 28.08 15.74 28.66 15.6 29.22C16.14 29.34 16.74 29.44 17.36 29.54L16.76 28.52ZM29.84 27L31.46 24L29.84 21C29.24 19.94 28.6 19 28.02 18.06C26.94 18 25.8 18 24.6 18C23.4 18 22.26 18 21.18 18.06C20.6 19 19.96 19.94 19.36 21L17.74 24L19.36 27C19.96 28.06 20.6 29 21.18 29.94C22.26 30 23.4 30 24.6 30C25.8 30 26.94 30 28.02 29.94C28.6 29 29.24 28.06 29.84 27ZM24.6 13.56C24.22 14 23.82 14.46 23.42 15H25.78C25.38 14.46 24.98 14 24.6 13.56ZM24.6 34.44C24.98 34 25.38 33.54 25.78 33H23.42C23.82 33.54 24.22 34 24.6 34.44ZM33.84 8C32.6 7.24 29.84 8.4 26.66 11.4C27.7 12.58 28.72 13.86 29.68 15.2C31.32 15.36 32.94 15.6 34.48 15.92C35.5 11.64 35.12 8.7 33.84 8ZM32.44 19.48L33.02 20.5C33.24 19.92 33.46 19.34 33.6 18.78C33.06 18.66 32.46 18.56 31.84 18.46L32.44 19.48ZM35.34 5.38C38.28 7.06 38.6 11.48 37.36 16.64C42.44 18.14 46.1 20.62 46.1 24C46.1 27.38 42.44 29.86 37.36 31.36C38.6 36.52 38.28 40.94 35.34 42.62C32.42 44.3 28.44 42.38 24.6 38.72C20.76 42.38 16.78 44.3 13.84 42.62C10.92 40.94 10.6 36.52 11.84 31.36C6.75998 29.86 3.09998 27.38 3.09998 24C3.09998 20.62 6.75998 18.14 11.84 16.64C10.6 11.48 10.92 7.06 13.84 5.38C16.78 3.7 20.76 5.62 24.6 9.28C28.44 5.62 32.42 3.7 35.34 5.38ZM34.76 24C35.44 25.5 36.04 27 36.54 28.52C40.74 27.26 43.1 25.46 43.1 24C43.1 22.54 40.74 20.74 36.54 19.48C36.04 21 35.44 22.5 34.76 24ZM14.44 24C13.76 22.5 13.16 21 12.66 19.48C8.45998 20.74 6.09998 22.54 6.09998 24C6.09998 25.46 8.45998 27.26 12.66 28.52C13.16 27 13.76 25.5 14.44 24ZM32.44 28.52L31.84 29.54C32.46 29.44 33.06 29.34 33.6 29.22C33.46 28.66 33.24 28.08 33.02 27.5L32.44 28.52ZM26.66 36.6C29.84 39.6 32.6 40.76 33.84 40C35.12 39.3 35.5 36.36 34.48 32.08C32.94 32.4 31.32 32.64 29.68 32.8C28.72 34.14 27.7 35.42 26.66 36.6ZM16.76 19.48L17.36 18.46C16.74 18.56 16.14 18.66 15.6 18.78C15.74 19.34 15.96 19.92 16.18 20.5L16.76 19.48ZM22.54 11.4C19.36 8.4 16.6 7.24 15.34 8C14.08 8.7 13.7 11.64 14.72 15.92C16.3062 15.5957 17.9084 15.3554 19.52 15.2C20.48 13.86 21.5 12.58 22.54 11.4Z" fill="#677E8A"/>
</svg>
