<svg width="49" height="48" viewBox="0 0 49 48" fill="none" xmlns="http://www.w3.org/2000/svg">
<g clip-path="url(#clip0_24_59153)">
<mask id="mask0_24_59153" style="mask-type:luminance" maskUnits="userSpaceOnUse" x="0" y="0" width="49" height="48">
<path d="M0.199951 0H48.2V48H0.199951V0Z" fill="white"/>
</mask>
<g mask="url(#mask0_24_59153)">
<path d="M47.058 7.01818e-06H1.33995C1.19008 6.78754e-06 1.04167 0.0295599 0.903231 0.0869753C0.76479 0.144391 0.639028 0.228541 0.533143 0.334612C0.427258 0.440683 0.343328 0.566592 0.286156 0.705134C0.228983 0.843676 0.19969 0.992132 0.199953 1.14201V46.86C0.199689 47.0101 0.229048 47.1587 0.286346 47.2973C0.343643 47.436 0.427752 47.562 0.533849 47.6681C0.639946 47.7742 0.765944 47.8583 0.904617 47.9156C1.04329 47.9729 1.19191 48.0023 1.34195 48.002H47.06C47.21 48.0023 47.3586 47.9729 47.4973 47.9156C47.636 47.8583 47.762 47.7742 47.8681 47.6681C47.9742 47.562 48.0583 47.436 48.1156 47.2973C48.1729 47.1587 48.2022 47.0101 48.202 46.86V1.14001C48.202 0.989963 48.1723 0.841395 48.1148 0.702822C48.0573 0.56425 47.9729 0.438399 47.8666 0.332488C47.7604 0.226577 47.6342 0.142688 47.4954 0.0856336C47.3567 0.028579 47.208 -0.000519452 47.058 7.01818e-06ZM28.772 25.652H23.058V43.428H18.486V25.652H12.772V21.714H28.772V25.652ZM30.052 42.412V37.662C30.052 37.662 32.648 39.618 35.762 39.618C38.876 39.618 38.756 37.582 38.756 37.302C38.756 34.348 29.932 34.348 29.932 27.8C29.932 18.896 42.79 22.41 42.79 22.41L42.63 26.642C42.63 26.642 40.474 25.204 38.038 25.204C35.602 25.204 34.7239 26.364 34.7239 27.6C34.7239 30.794 43.628 30.476 43.628 36.904C43.628 46.804 30.052 42.414 30.052 42.414" fill="#677E8A"/>
</g>
</g>
<defs>
<clipPath id="clip0_24_59153">
<rect width="48" height="48" fill="white" transform="translate(0.199951)"/>
</clipPath>
</defs>
</svg>
