<svg width="49" height="48" viewBox="0 0 49 48" fill="none" xmlns="http://www.w3.org/2000/svg">
<g clip-path="url(#clip0_24_59149)">
<path d="M33.4101 14.235C30.7876 12.7435 27.8171 11.9724 24.8001 12C24.6405 11.9816 24.4787 11.9972 24.3255 12.0457C24.1723 12.0942 24.031 12.1746 23.9111 12.2815C23.7911 12.3884 23.6951 12.5196 23.6293 12.6662C23.5636 12.8129 23.5296 12.9718 23.5296 13.1325C23.5296 13.2932 23.5636 13.4521 23.6293 13.5988C23.6951 13.7455 23.7911 13.8766 23.9111 13.9835C24.031 14.0905 24.1723 14.1708 24.3255 14.2193C24.4787 14.2679 24.6405 14.2834 24.8001 14.265C25.763 14.2778 26.7225 14.3833 27.6651 14.58C24.2751 16.2 20.5251 19.95 17.5701 25.08C16.3321 27.1849 15.3263 29.418 14.5701 31.74C13.027 30.0571 11.9062 28.0314 11.3001 25.83C11.0993 25.1707 11.033 24.4778 11.1052 23.7924C11.1773 23.107 11.3865 22.443 11.7201 21.84C12.9051 19.785 15.3801 18.615 18.6651 18.54C18.8149 18.5361 18.9624 18.5028 19.0992 18.4419C19.236 18.3809 19.3595 18.2937 19.4626 18.185C19.5657 18.0764 19.6463 17.9485 19.7 17.8086C19.7536 17.6688 19.7791 17.5197 19.7751 17.37C19.7733 17.2197 19.7413 17.0712 19.681 16.9335C19.6208 16.7957 19.5336 16.6714 19.4245 16.568C19.3155 16.4645 19.1867 16.3839 19.046 16.331C18.9053 16.2781 18.7554 16.254 18.6051 16.26C14.5851 16.32 11.4501 17.88 9.80014 20.61C9.31067 21.4634 8.99977 22.4075 8.88631 23.3847C8.77286 24.362 8.85921 25.3521 9.14014 26.295C10.0362 29.2762 11.69 31.974 13.9401 34.125C13.5873 35.7244 13.4661 37.3662 13.5801 39C12.2376 37.4806 11.2171 35.7049 10.5801 33.78C10.5406 33.6335 10.4719 33.4964 10.3781 33.3772C10.2842 33.2579 10.1672 33.1588 10.0341 33.086C9.90094 33.0131 9.75444 32.9679 9.60339 32.9531C9.45234 32.9384 9.29987 32.9543 9.15514 33C9.00506 33.0453 8.86592 33.121 8.74644 33.2225C8.62695 33.324 8.52968 33.449 8.4607 33.5898C8.39172 33.7306 8.35251 33.8841 8.34554 34.0407C8.33856 34.1973 8.36396 34.3537 8.42014 34.5C9.73668 38.5416 12.5051 41.9514 16.1901 44.07C18.8054 45.5877 21.7764 46.3848 24.8001 46.38C26.3191 46.3806 27.8318 46.1839 29.3001 45.795C32.5773 44.9057 35.5184 43.0673 37.7536 40.5109C39.9887 37.9546 41.4182 34.7945 41.8623 31.428C42.3063 28.0614 41.7452 24.6388 40.2493 21.5903C38.7534 18.5418 36.3896 16.0037 33.4551 14.295L33.4101 14.235ZM28.6701 43.59C26.7746 44.1021 24.7964 44.2332 22.8499 43.9757C20.9034 43.7182 19.0273 43.0773 17.3301 42.09C16.0401 41.355 15.5151 39.09 15.9201 36.09C17.0898 37.0473 18.3337 37.91 19.6401 38.67C22.7808 40.5673 26.3665 41.6021 30.0351 41.67C31.257 41.6648 32.4744 41.524 33.6651 41.25C32.1627 42.3382 30.4679 43.1322 28.6701 43.59ZM37.7601 36.6C34.7601 39.6 27.7701 40.71 20.7801 36.675C19.2295 35.7671 17.7768 34.7014 16.4451 33.495C17.168 30.9174 18.2164 28.4425 19.5651 26.13C23.9751 18.51 29.8101 14.775 32.2701 16.2C35.6909 18.1888 38.1873 21.4487 39.2156 25.2696C40.2439 29.0905 39.7207 33.163 37.7601 36.6ZM7.04014 17.58L2.51014 15C2.38081 14.9095 2.23409 14.8468 2.07926 14.8159C1.92443 14.785 1.76488 14.7866 1.61071 14.8206C1.45654 14.8547 1.31112 14.9203 1.18365 15.0135C1.05619 15.1066 0.949463 15.2252 0.870238 15.3618C0.791013 15.4984 0.741017 15.6499 0.723415 15.8068C0.705814 15.9637 0.720993 16.1225 0.76799 16.2732C0.814986 16.4239 0.892776 16.5633 0.99643 16.6823C1.10008 16.8014 1.22734 16.8977 1.37014 16.965L5.90014 19.5C6.07602 19.5933 6.27111 19.6447 6.47014 19.65C6.67042 19.649 6.86698 19.5959 7.04055 19.496C7.21411 19.396 7.35871 19.2527 7.46014 19.08C7.59348 18.8234 7.62427 18.5256 7.54629 18.2471C7.4683 17.9686 7.28737 17.7301 7.04014 17.58ZM13.2351 11.385C13.3258 11.567 13.4646 11.7206 13.6365 11.829C13.8085 11.9375 14.0069 11.9966 14.2101 12C14.4101 12.0016 14.6069 11.9498 14.7801 11.85C15.0274 11.6999 15.2083 11.4614 15.2863 11.1829C15.3643 10.9044 15.3335 10.6067 15.2001 10.35L12.5901 5.85001C12.4377 5.60535 12.1981 5.42755 11.9198 5.3524C11.6415 5.27725 11.345 5.31034 11.0901 5.44501C10.8401 5.59254 10.6568 5.83101 10.5785 6.11056C10.5003 6.39011 10.5331 6.6891 10.6701 6.94501L13.2351 11.385ZM24.8001 9.12001C25.1025 9.12001 25.3925 8.9999 25.6062 8.78611C25.82 8.57232 25.9401 8.28236 25.9401 7.98001V2.74501C25.9401 2.44266 25.82 2.1527 25.6062 1.93891C25.3925 1.72512 25.1025 1.60501 24.8001 1.60501C24.4978 1.60501 24.2078 1.72512 23.994 1.93891C23.7803 2.1527 23.6601 2.44266 23.6601 2.74501V7.98001C23.6601 8.28236 23.7803 8.57232 23.994 8.78611C24.2078 8.9999 24.4978 9.12001 24.8001 9.12001ZM34.8201 11.805C35.0761 11.9421 35.375 11.9749 35.6546 11.8966C35.9341 11.8183 36.1726 11.635 36.3201 11.385L38.9451 6.88501C39.0822 6.6291 39.115 6.33011 39.0367 6.05056C38.9585 5.77101 38.7752 5.53254 38.5251 5.38501C38.2702 5.25035 37.9738 5.21725 37.6955 5.2924C37.4171 5.36755 37.1776 5.54535 37.0251 5.79001L34.4151 10.29C34.276 10.5464 34.2404 10.8464 34.3158 11.1282C34.3911 11.41 34.5716 11.6523 34.8201 11.805ZM48.6501 15.375C48.4977 15.1304 48.2581 14.9525 47.9798 14.8774C47.7015 14.8023 47.405 14.8353 47.1501 14.97L42.6501 17.58C42.4029 17.7301 42.222 17.9686 42.144 18.2471C42.066 18.5256 42.0968 18.8234 42.2301 19.08C42.3316 19.2527 42.4762 19.396 42.6497 19.496C42.8233 19.5959 43.0199 19.649 43.2201 19.65C43.4192 19.6447 43.6143 19.5933 43.7901 19.5L48.2901 16.875C48.5272 16.7156 48.6957 16.4729 48.7624 16.1951C48.8291 15.9174 48.789 15.6247 48.6501 15.375Z" fill="#677E8A"/>
</g>
<defs>
<clipPath id="clip0_24_59149">
<rect width="48" height="48" fill="white" transform="translate(0.800049)"/>
</clipPath>
</defs>
</svg>
